<svg width="132" height="115" viewBox="0 0 132 115" fill="none" xmlns="http://www.w3.org/2000/svg">
<g opacity="0.3">
<mask id="mask0_722_15355" style="mask-type:alpha" maskUnits="userSpaceOnUse" x="0" y="0" width="11" height="11">
<path d="M5.22838 10.425C8.11594 10.425 10.4568 8.09121 10.4568 5.21245C10.4568 2.33368 8.11594 0 5.22838 0C2.34082 0 0 2.33368 0 5.21245C0 8.09121 2.34082 10.425 5.22838 10.425Z" fill="url(#paint0_linear_722_15355)"/>
</mask>
<g mask="url(#mask0_722_15355)">
<path d="M5.22838 10.425C8.11594 10.425 10.4568 8.09121 10.4568 5.21245C10.4568 2.33368 8.11594 0 5.22838 0C2.34082 0 0 2.33368 0 5.21245C0 8.09121 2.34082 10.425 5.22838 10.425Z" fill="#064D3F"/>
</g>
<mask id="mask1_722_15355" style="mask-type:alpha" maskUnits="userSpaceOnUse" x="30" y="0" width="11" height="11">
<path d="M35.5096 10.425C38.3972 10.425 40.738 8.09121 40.738 5.21245C40.738 2.33368 38.3972 0 35.5096 0C32.6221 0 30.2812 2.33368 30.2812 5.21245C30.2812 8.09121 32.6221 10.425 35.5096 10.425Z" fill="url(#paint1_linear_722_15355)"/>
</mask>
<g mask="url(#mask1_722_15355)">
<path d="M35.5096 10.425C38.3972 10.425 40.738 8.09121 40.738 5.21245C40.738 2.33368 38.3972 0 35.5096 0C32.6221 0 30.2812 2.33368 30.2812 5.21245C30.2812 8.09121 32.6221 10.425 35.5096 10.425Z" fill="#064D3F"/>
</g>
<mask id="mask2_722_15355" style="mask-type:alpha" maskUnits="userSpaceOnUse" x="60" y="0" width="12" height="11">
<path d="M65.7904 10.425C68.678 10.425 71.0188 8.09121 71.0188 5.21245C71.0188 2.33368 68.678 0 65.7904 0C62.9028 0 60.562 2.33368 60.562 5.21245C60.562 8.09121 62.9028 10.425 65.7904 10.425Z" fill="url(#paint2_linear_722_15355)"/>
</mask>
<g mask="url(#mask2_722_15355)">
<path d="M65.7904 10.425C68.678 10.425 71.0188 8.09121 71.0188 5.21245C71.0188 2.33368 68.678 0 65.7904 0C62.9028 0 60.562 2.33368 60.562 5.21245C60.562 8.09121 62.9028 10.425 65.7904 10.425Z" fill="#064D3F"/>
</g>
<mask id="mask3_722_15355" style="mask-type:alpha" maskUnits="userSpaceOnUse" x="90" y="0" width="12" height="11">
<path d="M96.0717 10.425C98.9592 10.425 101.3 8.09121 101.3 5.21245C101.3 2.33368 98.9592 0 96.0717 0C93.1841 0 90.8433 2.33368 90.8433 5.21245C90.8433 8.09121 93.1841 10.425 96.0717 10.425Z" fill="url(#paint3_linear_722_15355)"/>
</mask>
<g mask="url(#mask3_722_15355)">
<path d="M96.0717 10.425C98.9592 10.425 101.3 8.09121 101.3 5.21245C101.3 2.33368 98.9592 0 96.0717 0C93.1841 0 90.8433 2.33368 90.8433 5.21245C90.8433 8.09121 93.1841 10.425 96.0717 10.425Z" fill="#064D3F"/>
</g>
<mask id="mask4_722_15355" style="mask-type:alpha" maskUnits="userSpaceOnUse" x="121" y="0" width="11" height="11">
<path d="M126.352 10.425C129.24 10.425 131.581 8.09121 131.581 5.21245C131.581 2.33368 129.24 0 126.352 0C123.465 0 121.124 2.33368 121.124 5.21245C121.124 8.09121 123.465 10.425 126.352 10.425Z" fill="url(#paint4_linear_722_15355)"/>
</mask>
<g mask="url(#mask4_722_15355)">
<path d="M126.352 10.425C129.24 10.425 131.581 8.09121 131.581 5.21245C131.581 2.33368 129.24 0 126.352 0C123.465 0 121.124 2.33368 121.124 5.21245C121.124 8.09121 123.465 10.425 126.352 10.425Z" fill="#064D3F"/>
</g>
<mask id="mask5_722_15355" style="mask-type:alpha" maskUnits="userSpaceOnUse" x="0" y="26" width="11" height="11">
<path d="M5.22838 36.5958C8.11594 36.5958 10.4568 34.2621 10.4568 31.3834C10.4568 28.5046 8.11594 26.171 5.22838 26.171C2.34082 26.171 0 28.5046 0 31.3834C0 34.2621 2.34082 36.5958 5.22838 36.5958Z" fill="url(#paint5_linear_722_15355)"/>
</mask>
<g mask="url(#mask5_722_15355)">
<path d="M5.22838 36.5958C8.11594 36.5958 10.4568 34.2621 10.4568 31.3834C10.4568 28.5046 8.11594 26.171 5.22838 26.171C2.34082 26.171 0 28.5046 0 31.3834C0 34.2621 2.34082 36.5958 5.22838 36.5958Z" fill="#064D3F"/>
</g>
<mask id="mask6_722_15355" style="mask-type:alpha" maskUnits="userSpaceOnUse" x="30" y="26" width="11" height="11">
<path d="M35.5096 36.5958C38.3972 36.5958 40.738 34.2621 40.738 31.3834C40.738 28.5046 38.3972 26.171 35.5096 26.171C32.6221 26.171 30.2812 28.5046 30.2812 31.3834C30.2812 34.2621 32.6221 36.5958 35.5096 36.5958Z" fill="url(#paint6_linear_722_15355)"/>
</mask>
<g mask="url(#mask6_722_15355)">
<path d="M35.5096 36.5958C38.3972 36.5958 40.738 34.2621 40.738 31.3834C40.738 28.5046 38.3972 26.171 35.5096 26.171C32.6221 26.171 30.2812 28.5046 30.2812 31.3834C30.2812 34.2621 32.6221 36.5958 35.5096 36.5958Z" fill="#064D3F"/>
</g>
<mask id="mask7_722_15355" style="mask-type:alpha" maskUnits="userSpaceOnUse" x="60" y="26" width="12" height="11">
<path d="M65.7904 36.5958C68.678 36.5958 71.0188 34.2621 71.0188 31.3834C71.0188 28.5046 68.678 26.171 65.7904 26.171C62.9028 26.171 60.562 28.5046 60.562 31.3834C60.562 34.2621 62.9028 36.5958 65.7904 36.5958Z" fill="url(#paint7_linear_722_15355)"/>
</mask>
<g mask="url(#mask7_722_15355)">
<path d="M65.7904 36.5958C68.678 36.5958 71.0188 34.2621 71.0188 31.3834C71.0188 28.5046 68.678 26.171 65.7904 26.171C62.9028 26.171 60.562 28.5046 60.562 31.3834C60.562 34.2621 62.9028 36.5958 65.7904 36.5958Z" fill="#064D3F"/>
</g>
<mask id="mask8_722_15355" style="mask-type:alpha" maskUnits="userSpaceOnUse" x="90" y="26" width="12" height="11">
<path d="M96.0717 36.5958C98.9592 36.5958 101.3 34.2621 101.3 31.3834C101.3 28.5046 98.9592 26.171 96.0717 26.171C93.1841 26.171 90.8433 28.5046 90.8433 31.3834C90.8433 34.2621 93.1841 36.5958 96.0717 36.5958Z" fill="url(#paint8_linear_722_15355)"/>
</mask>
<g mask="url(#mask8_722_15355)">
<path d="M96.0717 36.5958C98.9592 36.5958 101.3 34.2621 101.3 31.3834C101.3 28.5046 98.9592 26.171 96.0717 26.171C93.1841 26.171 90.8433 28.5046 90.8433 31.3834C90.8433 34.2621 93.1841 36.5958 96.0717 36.5958Z" fill="#064D3F"/>
</g>
<mask id="mask9_722_15355" style="mask-type:alpha" maskUnits="userSpaceOnUse" x="121" y="26" width="11" height="11">
<path d="M126.352 36.5958C129.24 36.5958 131.581 34.2621 131.581 31.3834C131.581 28.5046 129.24 26.171 126.352 26.171C123.465 26.171 121.124 28.5046 121.124 31.3834C121.124 34.2621 123.465 36.5958 126.352 36.5958Z" fill="url(#paint9_linear_722_15355)"/>
</mask>
<g mask="url(#mask9_722_15355)">
<path d="M126.352 36.5958C129.24 36.5958 131.581 34.2621 131.581 31.3834C131.581 28.5046 129.24 26.171 126.352 26.171C123.465 26.171 121.124 28.5046 121.124 31.3834C121.124 34.2621 123.465 36.5958 126.352 36.5958Z" fill="#064D3F"/>
</g>
<mask id="mask10_722_15355" style="mask-type:alpha" maskUnits="userSpaceOnUse" x="0" y="52" width="11" height="11">
<path d="M5.22838 62.7125C8.11594 62.7125 10.4568 60.3788 10.4568 57.5C10.4568 54.6212 8.11594 52.2875 5.22838 52.2875C2.34082 52.2875 0 54.6212 0 57.5C0 60.3788 2.34082 62.7125 5.22838 62.7125Z" fill="url(#paint10_linear_722_15355)"/>
</mask>
<g mask="url(#mask10_722_15355)">
<path d="M5.22838 62.7125C8.11594 62.7125 10.4568 60.3788 10.4568 57.5C10.4568 54.6212 8.11594 52.2875 5.22838 52.2875C2.34082 52.2875 0 54.6212 0 57.5C0 60.3788 2.34082 62.7125 5.22838 62.7125Z" fill="#064D3F"/>
</g>
<mask id="mask11_722_15355" style="mask-type:alpha" maskUnits="userSpaceOnUse" x="30" y="52" width="11" height="11">
<path d="M35.5096 62.7125C38.3972 62.7125 40.738 60.3788 40.738 57.5C40.738 54.6212 38.3972 52.2875 35.5096 52.2875C32.6221 52.2875 30.2812 54.6212 30.2812 57.5C30.2812 60.3788 32.6221 62.7125 35.5096 62.7125Z" fill="url(#paint11_linear_722_15355)"/>
</mask>
<g mask="url(#mask11_722_15355)">
<path d="M35.5096 62.7125C38.3972 62.7125 40.738 60.3788 40.738 57.5C40.738 54.6212 38.3972 52.2875 35.5096 52.2875C32.6221 52.2875 30.2812 54.6212 30.2812 57.5C30.2812 60.3788 32.6221 62.7125 35.5096 62.7125Z" fill="#064D3F"/>
</g>
<mask id="mask12_722_15355" style="mask-type:alpha" maskUnits="userSpaceOnUse" x="60" y="52" width="12" height="11">
<path d="M65.7904 62.7125C68.678 62.7125 71.0188 60.3788 71.0188 57.5C71.0188 54.6212 68.678 52.2875 65.7904 52.2875C62.9028 52.2875 60.562 54.6212 60.562 57.5C60.562 60.3788 62.9028 62.7125 65.7904 62.7125Z" fill="url(#paint12_linear_722_15355)"/>
</mask>
<g mask="url(#mask12_722_15355)">
<path d="M65.7904 62.7125C68.678 62.7125 71.0188 60.3788 71.0188 57.5C71.0188 54.6212 68.678 52.2875 65.7904 52.2875C62.9028 52.2875 60.562 54.6212 60.562 57.5C60.562 60.3788 62.9028 62.7125 65.7904 62.7125Z" fill="#064D3F"/>
</g>
<mask id="mask13_722_15355" style="mask-type:alpha" maskUnits="userSpaceOnUse" x="90" y="52" width="12" height="11">
<path d="M96.0717 62.7125C98.9592 62.7125 101.3 60.3788 101.3 57.5C101.3 54.6212 98.9592 52.2875 96.0717 52.2875C93.1841 52.2875 90.8433 54.6212 90.8433 57.5C90.8433 60.3788 93.1841 62.7125 96.0717 62.7125Z" fill="url(#paint13_linear_722_15355)"/>
</mask>
<g mask="url(#mask13_722_15355)">
<path d="M96.0717 62.7125C98.9592 62.7125 101.3 60.3788 101.3 57.5C101.3 54.6212 98.9592 52.2875 96.0717 52.2875C93.1841 52.2875 90.8433 54.6212 90.8433 57.5C90.8433 60.3788 93.1841 62.7125 96.0717 62.7125Z" fill="#064D3F"/>
</g>
<mask id="mask14_722_15355" style="mask-type:alpha" maskUnits="userSpaceOnUse" x="121" y="52" width="11" height="11">
<path d="M126.352 62.7125C129.24 62.7125 131.581 60.3788 131.581 57.5C131.581 54.6212 129.24 52.2875 126.352 52.2875C123.465 52.2875 121.124 54.6212 121.124 57.5C121.124 60.3788 123.465 62.7125 126.352 62.7125Z" fill="url(#paint14_linear_722_15355)"/>
</mask>
<g mask="url(#mask14_722_15355)">
<path d="M126.352 62.7125C129.24 62.7125 131.581 60.3788 131.581 57.5C131.581 54.6212 129.24 52.2875 126.352 52.2875C123.465 52.2875 121.124 54.6212 121.124 57.5C121.124 60.3788 123.465 62.7125 126.352 62.7125Z" fill="#064D3F"/>
</g>
<mask id="mask15_722_15355" style="mask-type:alpha" maskUnits="userSpaceOnUse" x="0" y="78" width="11" height="11">
<path d="M5.22838 88.8834C8.11594 88.8834 10.4568 86.5496 10.4568 83.6709C10.4568 80.7921 8.11594 78.4584 5.22838 78.4584C2.34082 78.4584 0 80.7921 0 83.6709C0 86.5496 2.34082 88.8834 5.22838 88.8834Z" fill="url(#paint15_linear_722_15355)"/>
</mask>
<g mask="url(#mask15_722_15355)">
<path d="M5.22838 88.8834C8.11594 88.8834 10.4568 86.5496 10.4568 83.6709C10.4568 80.7921 8.11594 78.4584 5.22838 78.4584C2.34082 78.4584 0 80.7921 0 83.6709C0 86.5496 2.34082 88.8834 5.22838 88.8834Z" fill="#064D3F"/>
</g>
<mask id="mask16_722_15355" style="mask-type:alpha" maskUnits="userSpaceOnUse" x="30" y="78" width="11" height="11">
<path d="M35.5096 88.8834C38.3972 88.8834 40.738 86.5496 40.738 83.6709C40.738 80.7921 38.3972 78.4584 35.5096 78.4584C32.6221 78.4584 30.2812 80.7921 30.2812 83.6709C30.2812 86.5496 32.6221 88.8834 35.5096 88.8834Z" fill="url(#paint16_linear_722_15355)"/>
</mask>
<g mask="url(#mask16_722_15355)">
<path d="M35.5096 88.8834C38.3972 88.8834 40.738 86.5496 40.738 83.6709C40.738 80.7921 38.3972 78.4584 35.5096 78.4584C32.6221 78.4584 30.2812 80.7921 30.2812 83.6709C30.2812 86.5496 32.6221 88.8834 35.5096 88.8834Z" fill="#064D3F"/>
</g>
<mask id="mask17_722_15355" style="mask-type:alpha" maskUnits="userSpaceOnUse" x="60" y="78" width="12" height="11">
<path d="M65.7904 88.8834C68.678 88.8834 71.0188 86.5496 71.0188 83.6709C71.0188 80.7921 68.678 78.4584 65.7904 78.4584C62.9028 78.4584 60.562 80.7921 60.562 83.6709C60.562 86.5496 62.9028 88.8834 65.7904 88.8834Z" fill="url(#paint17_linear_722_15355)"/>
</mask>
<g mask="url(#mask17_722_15355)">
<path d="M65.7904 88.8834C68.678 88.8834 71.0188 86.5496 71.0188 83.6709C71.0188 80.7921 68.678 78.4584 65.7904 78.4584C62.9028 78.4584 60.562 80.7921 60.562 83.6709C60.562 86.5496 62.9028 88.8834 65.7904 88.8834Z" fill="#064D3F"/>
</g>
<mask id="mask18_722_15355" style="mask-type:alpha" maskUnits="userSpaceOnUse" x="90" y="78" width="12" height="11">
<path d="M96.0717 88.8834C98.9592 88.8834 101.3 86.5496 101.3 83.6709C101.3 80.7921 98.9592 78.4584 96.0717 78.4584C93.1841 78.4584 90.8433 80.7921 90.8433 83.6709C90.8433 86.5496 93.1841 88.8834 96.0717 88.8834Z" fill="url(#paint18_linear_722_15355)"/>
</mask>
<g mask="url(#mask18_722_15355)">
<path d="M96.0717 88.8834C98.9592 88.8834 101.3 86.5496 101.3 83.6709C101.3 80.7921 98.9592 78.4584 96.0717 78.4584C93.1841 78.4584 90.8433 80.7921 90.8433 83.6709C90.8433 86.5496 93.1841 88.8834 96.0717 88.8834Z" fill="#064D3F"/>
</g>
<mask id="mask19_722_15355" style="mask-type:alpha" maskUnits="userSpaceOnUse" x="121" y="78" width="11" height="11">
<path d="M126.352 88.8834C129.24 88.8834 131.581 86.5496 131.581 83.6709C131.581 80.7921 129.24 78.4584 126.352 78.4584C123.465 78.4584 121.124 80.7921 121.124 83.6709C121.124 86.5496 123.465 88.8834 126.352 88.8834Z" fill="url(#paint19_linear_722_15355)"/>
</mask>
<g mask="url(#mask19_722_15355)">
<path d="M126.352 88.8834C129.24 88.8834 131.581 86.5496 131.581 83.6709C131.581 80.7921 129.24 78.4584 126.352 78.4584C123.465 78.4584 121.124 80.7921 121.124 83.6709C121.124 86.5496 123.465 88.8834 126.352 88.8834Z" fill="#064D3F"/>
</g>
<mask id="mask20_722_15355" style="mask-type:alpha" maskUnits="userSpaceOnUse" x="0" y="104" width="11" height="11">
<path d="M5.22838 115C8.11594 115 10.4568 112.666 10.4568 109.788C10.4568 106.909 8.11594 104.575 5.22838 104.575C2.34082 104.575 0 106.909 0 109.788C0 112.666 2.34082 115 5.22838 115Z" fill="url(#paint20_linear_722_15355)"/>
</mask>
<g mask="url(#mask20_722_15355)">
<path d="M5.22838 115C8.11594 115 10.4568 112.666 10.4568 109.788C10.4568 106.909 8.11594 104.575 5.22838 104.575C2.34082 104.575 0 106.909 0 109.788C0 112.666 2.34082 115 5.22838 115Z" fill="#064D3F"/>
</g>
<mask id="mask21_722_15355" style="mask-type:alpha" maskUnits="userSpaceOnUse" x="30" y="104" width="11" height="11">
<path d="M35.5096 115C38.3972 115 40.738 112.666 40.738 109.788C40.738 106.909 38.3972 104.575 35.5096 104.575C32.6221 104.575 30.2812 106.909 30.2812 109.788C30.2812 112.666 32.6221 115 35.5096 115Z" fill="url(#paint21_linear_722_15355)"/>
</mask>
<g mask="url(#mask21_722_15355)">
<path d="M35.5096 115C38.3972 115 40.738 112.666 40.738 109.788C40.738 106.909 38.3972 104.575 35.5096 104.575C32.6221 104.575 30.2812 106.909 30.2812 109.788C30.2812 112.666 32.6221 115 35.5096 115Z" fill="#064D3F"/>
</g>
<mask id="mask22_722_15355" style="mask-type:alpha" maskUnits="userSpaceOnUse" x="60" y="104" width="12" height="11">
<path d="M65.7904 115C68.678 115 71.0188 112.666 71.0188 109.788C71.0188 106.909 68.678 104.575 65.7904 104.575C62.9028 104.575 60.562 106.909 60.562 109.788C60.562 112.666 62.9028 115 65.7904 115Z" fill="url(#paint22_linear_722_15355)"/>
</mask>
<g mask="url(#mask22_722_15355)">
<path d="M65.7904 115C68.678 115 71.0188 112.666 71.0188 109.788C71.0188 106.909 68.678 104.575 65.7904 104.575C62.9028 104.575 60.562 106.909 60.562 109.788C60.562 112.666 62.9028 115 65.7904 115Z" fill="#064D3F"/>
</g>
<mask id="mask23_722_15355" style="mask-type:alpha" maskUnits="userSpaceOnUse" x="90" y="104" width="12" height="11">
<path d="M96.0717 115C98.9592 115 101.3 112.666 101.3 109.788C101.3 106.909 98.9592 104.575 96.0717 104.575C93.1841 104.575 90.8433 106.909 90.8433 109.788C90.8433 112.666 93.1841 115 96.0717 115Z" fill="url(#paint23_linear_722_15355)"/>
</mask>
<g mask="url(#mask23_722_15355)">
<path d="M96.0717 115C98.9592 115 101.3 112.666 101.3 109.788C101.3 106.909 98.9592 104.575 96.0717 104.575C93.1841 104.575 90.8433 106.909 90.8433 109.788C90.8433 112.666 93.1841 115 96.0717 115Z" fill="#064D3F"/>
</g>
<mask id="mask24_722_15355" style="mask-type:alpha" maskUnits="userSpaceOnUse" x="121" y="104" width="11" height="11">
<path d="M126.352 115C129.24 115 131.581 112.666 131.581 109.788C131.581 106.909 129.24 104.575 126.352 104.575C123.465 104.575 121.124 106.909 121.124 109.788C121.124 112.666 123.465 115 126.352 115Z" fill="url(#paint24_linear_722_15355)"/>
</mask>
<g mask="url(#mask24_722_15355)">
<path d="M126.352 115C129.24 115 131.581 112.666 131.581 109.788C131.581 106.909 129.24 104.575 126.352 104.575C123.465 104.575 121.124 106.909 121.124 109.788C121.124 112.666 123.465 115 126.352 115Z" fill="#064D3F"/>
</g>
</g>
<defs>
<linearGradient id="paint0_linear_722_15355" x1="54.996" y1="131.134" x2="-16.4057" y2="-50.67" gradientUnits="userSpaceOnUse">
<stop/>
<stop offset="1" stop-color="white"/>
</linearGradient>
<linearGradient id="paint1_linear_722_15355" x1="81.2007" y1="120.843" x2="9.79907" y2="-60.9613" gradientUnits="userSpaceOnUse">
<stop/>
<stop offset="1" stop-color="white"/>
</linearGradient>
<linearGradient id="paint2_linear_722_15355" x1="107.405" y1="110.551" x2="36.0032" y2="-71.2526" gradientUnits="userSpaceOnUse">
<stop/>
<stop offset="1" stop-color="white"/>
</linearGradient>
<linearGradient id="paint3_linear_722_15355" x1="133.609" y1="100.259" x2="62.2076" y2="-81.5444" gradientUnits="userSpaceOnUse">
<stop/>
<stop offset="1" stop-color="white"/>
</linearGradient>
<linearGradient id="paint4_linear_722_15355" x1="159.813" y1="89.9679" x2="88.4116" y2="-91.8359" gradientUnits="userSpaceOnUse">
<stop/>
<stop offset="1" stop-color="white"/>
</linearGradient>
<linearGradient id="paint5_linear_722_15355" x1="46.0538" y1="134.645" x2="-25.3466" y2="-47.1571" gradientUnits="userSpaceOnUse">
<stop/>
<stop offset="1" stop-color="white"/>
</linearGradient>
<linearGradient id="paint6_linear_722_15355" x1="72.2583" y1="124.354" x2="0.857901" y2="-57.449" gradientUnits="userSpaceOnUse">
<stop/>
<stop offset="1" stop-color="white"/>
</linearGradient>
<linearGradient id="paint7_linear_722_15355" x1="98.4623" y1="114.062" x2="27.0619" y2="-67.7403" gradientUnits="userSpaceOnUse">
<stop/>
<stop offset="1" stop-color="white"/>
</linearGradient>
<linearGradient id="paint8_linear_722_15355" x1="124.667" y1="103.771" x2="53.2664" y2="-78.0318" gradientUnits="userSpaceOnUse">
<stop/>
<stop offset="1" stop-color="white"/>
</linearGradient>
<linearGradient id="paint9_linear_722_15355" x1="150.871" y1="93.4794" x2="79.4705" y2="-88.3231" gradientUnits="userSpaceOnUse">
<stop/>
<stop offset="1" stop-color="white"/>
</linearGradient>
<linearGradient id="paint10_linear_722_15355" x1="37.1113" y1="138.158" x2="-34.2903" y2="-43.6458" gradientUnits="userSpaceOnUse">
<stop/>
<stop offset="1" stop-color="white"/>
</linearGradient>
<linearGradient id="paint11_linear_722_15355" x1="63.3159" y1="127.866" x2="-8.08572" y2="-53.9374" gradientUnits="userSpaceOnUse">
<stop/>
<stop offset="1" stop-color="white"/>
</linearGradient>
<linearGradient id="paint12_linear_722_15355" x1="89.5199" y1="117.575" x2="18.1184" y2="-64.2288" gradientUnits="userSpaceOnUse">
<stop/>
<stop offset="1" stop-color="white"/>
</linearGradient>
<linearGradient id="paint13_linear_722_15355" x1="115.724" y1="107.283" x2="44.3228" y2="-74.5204" gradientUnits="userSpaceOnUse">
<stop/>
<stop offset="1" stop-color="white"/>
</linearGradient>
<linearGradient id="paint14_linear_722_15355" x1="141.928" y1="96.9919" x2="70.5268" y2="-84.8119" gradientUnits="userSpaceOnUse">
<stop/>
<stop offset="1" stop-color="white"/>
</linearGradient>
<linearGradient id="paint15_linear_722_15355" x1="28.169" y1="141.67" x2="-43.2327" y2="-40.1338" gradientUnits="userSpaceOnUse">
<stop/>
<stop offset="1" stop-color="white"/>
</linearGradient>
<linearGradient id="paint16_linear_722_15355" x1="54.3736" y1="131.379" x2="-17.0281" y2="-50.4253" gradientUnits="userSpaceOnUse">
<stop/>
<stop offset="1" stop-color="white"/>
</linearGradient>
<linearGradient id="paint17_linear_722_15355" x1="80.5775" y1="121.087" x2="9.17597" y2="-60.7168" gradientUnits="userSpaceOnUse">
<stop/>
<stop offset="1" stop-color="white"/>
</linearGradient>
<linearGradient id="paint18_linear_722_15355" x1="106.782" y1="110.795" x2="35.3804" y2="-71.0084" gradientUnits="userSpaceOnUse">
<stop/>
<stop offset="1" stop-color="white"/>
</linearGradient>
<linearGradient id="paint19_linear_722_15355" x1="132.986" y1="100.504" x2="61.5845" y2="-81.3" gradientUnits="userSpaceOnUse">
<stop/>
<stop offset="1" stop-color="white"/>
</linearGradient>
<linearGradient id="paint20_linear_722_15355" x1="19.2266" y1="145.182" x2="-52.1751" y2="-36.6219" gradientUnits="userSpaceOnUse">
<stop/>
<stop offset="1" stop-color="white"/>
</linearGradient>
<linearGradient id="paint21_linear_722_15355" x1="45.4312" y1="134.89" x2="-25.9705" y2="-46.9134" gradientUnits="userSpaceOnUse">
<stop/>
<stop offset="1" stop-color="white"/>
</linearGradient>
<linearGradient id="paint22_linear_722_15355" x1="71.6352" y1="124.599" x2="0.233627" y2="-57.2047" gradientUnits="userSpaceOnUse">
<stop/>
<stop offset="1" stop-color="white"/>
</linearGradient>
<linearGradient id="paint23_linear_722_15355" x1="97.8397" y1="114.307" x2="26.4381" y2="-67.4964" gradientUnits="userSpaceOnUse">
<stop/>
<stop offset="1" stop-color="white"/>
</linearGradient>
<linearGradient id="paint24_linear_722_15355" x1="124.044" y1="104.016" x2="52.6421" y2="-77.7879" gradientUnits="userSpaceOnUse">
<stop/>
<stop offset="1" stop-color="white"/>
</linearGradient>
</defs>
</svg>
