<svg width="132" height="115" viewBox="0 0 132 115" fill="none" xmlns="http://www.w3.org/2000/svg">
<g opacity="0.3">
<mask id="mask0_722_19965" style="mask-type:alpha" maskUnits="userSpaceOnUse" x="0" y="0" width="11" height="11">
<path d="M5.22838 10.425C8.11594 10.425 10.4568 8.09121 10.4568 5.21245C10.4568 2.33368 8.11594 0 5.22838 0C2.34082 0 0 2.33368 0 5.21245C0 8.09121 2.34082 10.425 5.22838 10.425Z" fill="url(#paint0_linear_722_19965)"/>
</mask>
<g mask="url(#mask0_722_19965)">
<path d="M5.22838 10.425C8.11594 10.425 10.4568 8.09121 10.4568 5.21245C10.4568 2.33368 8.11594 0 5.22838 0C2.34082 0 0 2.33368 0 5.21245C0 8.09121 2.34082 10.425 5.22838 10.425Z" fill="#EAFFEE"/>
</g>
<mask id="mask1_722_19965" style="mask-type:alpha" maskUnits="userSpaceOnUse" x="30" y="0" width="11" height="11">
<path d="M35.5096 10.425C38.3972 10.425 40.738 8.09121 40.738 5.21245C40.738 2.33368 38.3972 0 35.5096 0C32.6221 0 30.2812 2.33368 30.2812 5.21245C30.2812 8.09121 32.6221 10.425 35.5096 10.425Z" fill="url(#paint1_linear_722_19965)"/>
</mask>
<g mask="url(#mask1_722_19965)">
<path d="M35.5096 10.425C38.3972 10.425 40.738 8.09121 40.738 5.21245C40.738 2.33368 38.3972 0 35.5096 0C32.6221 0 30.2812 2.33368 30.2812 5.21245C30.2812 8.09121 32.6221 10.425 35.5096 10.425Z" fill="#EAFFEE"/>
</g>
<mask id="mask2_722_19965" style="mask-type:alpha" maskUnits="userSpaceOnUse" x="60" y="0" width="12" height="11">
<path d="M65.7909 10.425C68.6784 10.425 71.0193 8.09121 71.0193 5.21245C71.0193 2.33368 68.6784 0 65.7909 0C62.9033 0 60.5625 2.33368 60.5625 5.21245C60.5625 8.09121 62.9033 10.425 65.7909 10.425Z" fill="url(#paint2_linear_722_19965)"/>
</mask>
<g mask="url(#mask2_722_19965)">
<path d="M65.7909 10.425C68.6784 10.425 71.0193 8.09121 71.0193 5.21245C71.0193 2.33368 68.6784 0 65.7909 0C62.9033 0 60.5625 2.33368 60.5625 5.21245C60.5625 8.09121 62.9033 10.425 65.7909 10.425Z" fill="#EAFFEE"/>
</g>
<mask id="mask3_722_19965" style="mask-type:alpha" maskUnits="userSpaceOnUse" x="90" y="0" width="12" height="11">
<path d="M96.0721 10.425C98.9597 10.425 101.301 8.09121 101.301 5.21245C101.301 2.33368 98.9597 0 96.0721 0C93.1846 0 90.8438 2.33368 90.8438 5.21245C90.8438 8.09121 93.1846 10.425 96.0721 10.425Z" fill="url(#paint3_linear_722_19965)"/>
</mask>
<g mask="url(#mask3_722_19965)">
<path d="M96.0721 10.425C98.9597 10.425 101.301 8.09121 101.301 5.21245C101.301 2.33368 98.9597 0 96.0721 0C93.1846 0 90.8438 2.33368 90.8438 5.21245C90.8438 8.09121 93.1846 10.425 96.0721 10.425Z" fill="#EAFFEE"/>
</g>
<mask id="mask4_722_19965" style="mask-type:alpha" maskUnits="userSpaceOnUse" x="121" y="0" width="11" height="11">
<path d="M126.353 10.425C129.241 10.425 131.582 8.09121 131.582 5.21245C131.582 2.33368 129.241 0 126.353 0C123.466 0 121.125 2.33368 121.125 5.21245C121.125 8.09121 123.466 10.425 126.353 10.425Z" fill="url(#paint4_linear_722_19965)"/>
</mask>
<g mask="url(#mask4_722_19965)">
<path d="M126.353 10.425C129.241 10.425 131.582 8.09121 131.582 5.21245C131.582 2.33368 129.241 0 126.353 0C123.466 0 121.125 2.33368 121.125 5.21245C121.125 8.09121 123.466 10.425 126.353 10.425Z" fill="#EAFFEE"/>
</g>
<mask id="mask5_722_19965" style="mask-type:alpha" maskUnits="userSpaceOnUse" x="0" y="26" width="11" height="11">
<path d="M5.22838 36.5958C8.11594 36.5958 10.4568 34.2621 10.4568 31.3833C10.4568 28.5046 8.11594 26.1709 5.22838 26.1709C2.34082 26.1709 0 28.5046 0 31.3833C0 34.2621 2.34082 36.5958 5.22838 36.5958Z" fill="url(#paint5_linear_722_19965)"/>
</mask>
<g mask="url(#mask5_722_19965)">
<path d="M5.22838 36.5958C8.11594 36.5958 10.4568 34.2621 10.4568 31.3833C10.4568 28.5046 8.11594 26.1709 5.22838 26.1709C2.34082 26.1709 0 28.5046 0 31.3833C0 34.2621 2.34082 36.5958 5.22838 36.5958Z" fill="#EAFFEE"/>
</g>
<mask id="mask6_722_19965" style="mask-type:alpha" maskUnits="userSpaceOnUse" x="30" y="26" width="11" height="11">
<path d="M35.5096 36.5958C38.3972 36.5958 40.738 34.2621 40.738 31.3833C40.738 28.5046 38.3972 26.1709 35.5096 26.1709C32.6221 26.1709 30.2812 28.5046 30.2812 31.3833C30.2812 34.2621 32.6221 36.5958 35.5096 36.5958Z" fill="url(#paint6_linear_722_19965)"/>
</mask>
<g mask="url(#mask6_722_19965)">
<path d="M35.5096 36.5958C38.3972 36.5958 40.738 34.2621 40.738 31.3833C40.738 28.5046 38.3972 26.1709 35.5096 26.1709C32.6221 26.1709 30.2812 28.5046 30.2812 31.3833C30.2812 34.2621 32.6221 36.5958 35.5096 36.5958Z" fill="#EAFFEE"/>
</g>
<mask id="mask7_722_19965" style="mask-type:alpha" maskUnits="userSpaceOnUse" x="60" y="26" width="12" height="11">
<path d="M65.7909 36.5958C68.6784 36.5958 71.0193 34.2621 71.0193 31.3833C71.0193 28.5046 68.6784 26.1709 65.7909 26.1709C62.9033 26.1709 60.5625 28.5046 60.5625 31.3833C60.5625 34.2621 62.9033 36.5958 65.7909 36.5958Z" fill="url(#paint7_linear_722_19965)"/>
</mask>
<g mask="url(#mask7_722_19965)">
<path d="M65.7909 36.5958C68.6784 36.5958 71.0193 34.2621 71.0193 31.3833C71.0193 28.5046 68.6784 26.1709 65.7909 26.1709C62.9033 26.1709 60.5625 28.5046 60.5625 31.3833C60.5625 34.2621 62.9033 36.5958 65.7909 36.5958Z" fill="#EAFFEE"/>
</g>
<mask id="mask8_722_19965" style="mask-type:alpha" maskUnits="userSpaceOnUse" x="90" y="26" width="12" height="11">
<path d="M96.0721 36.5958C98.9597 36.5958 101.301 34.2621 101.301 31.3833C101.301 28.5046 98.9597 26.1709 96.0721 26.1709C93.1846 26.1709 90.8438 28.5046 90.8438 31.3833C90.8438 34.2621 93.1846 36.5958 96.0721 36.5958Z" fill="url(#paint8_linear_722_19965)"/>
</mask>
<g mask="url(#mask8_722_19965)">
<path d="M96.0721 36.5958C98.9597 36.5958 101.301 34.2621 101.301 31.3833C101.301 28.5046 98.9597 26.1709 96.0721 26.1709C93.1846 26.1709 90.8438 28.5046 90.8438 31.3833C90.8438 34.2621 93.1846 36.5958 96.0721 36.5958Z" fill="#EAFFEE"/>
</g>
<mask id="mask9_722_19965" style="mask-type:alpha" maskUnits="userSpaceOnUse" x="121" y="26" width="11" height="11">
<path d="M126.353 36.5958C129.241 36.5958 131.582 34.2621 131.582 31.3833C131.582 28.5046 129.241 26.1709 126.353 26.1709C123.466 26.1709 121.125 28.5046 121.125 31.3833C121.125 34.2621 123.466 36.5958 126.353 36.5958Z" fill="url(#paint9_linear_722_19965)"/>
</mask>
<g mask="url(#mask9_722_19965)">
<path d="M126.353 36.5958C129.241 36.5958 131.582 34.2621 131.582 31.3833C131.582 28.5046 129.241 26.1709 126.353 26.1709C123.466 26.1709 121.125 28.5046 121.125 31.3833C121.125 34.2621 123.466 36.5958 126.353 36.5958Z" fill="#EAFFEE"/>
</g>
<mask id="mask10_722_19965" style="mask-type:alpha" maskUnits="userSpaceOnUse" x="0" y="52" width="11" height="11">
<path d="M5.22838 62.7121C8.11594 62.7121 10.4568 60.3784 10.4568 57.4996C10.4568 54.6208 8.11594 52.2871 5.22838 52.2871C2.34082 52.2871 0 54.6208 0 57.4996C0 60.3784 2.34082 62.7121 5.22838 62.7121Z" fill="url(#paint10_linear_722_19965)"/>
</mask>
<g mask="url(#mask10_722_19965)">
<path d="M5.22838 62.7121C8.11594 62.7121 10.4568 60.3784 10.4568 57.4996C10.4568 54.6208 8.11594 52.2871 5.22838 52.2871C2.34082 52.2871 0 54.6208 0 57.4996C0 60.3784 2.34082 62.7121 5.22838 62.7121Z" fill="#EAFFEE"/>
</g>
<mask id="mask11_722_19965" style="mask-type:alpha" maskUnits="userSpaceOnUse" x="30" y="52" width="11" height="11">
<path d="M35.5096 62.7121C38.3972 62.7121 40.738 60.3784 40.738 57.4996C40.738 54.6208 38.3972 52.2871 35.5096 52.2871C32.6221 52.2871 30.2812 54.6208 30.2812 57.4996C30.2812 60.3784 32.6221 62.7121 35.5096 62.7121Z" fill="url(#paint11_linear_722_19965)"/>
</mask>
<g mask="url(#mask11_722_19965)">
<path d="M35.5096 62.7121C38.3972 62.7121 40.738 60.3784 40.738 57.4996C40.738 54.6208 38.3972 52.2871 35.5096 52.2871C32.6221 52.2871 30.2812 54.6208 30.2812 57.4996C30.2812 60.3784 32.6221 62.7121 35.5096 62.7121Z" fill="#EAFFEE"/>
</g>
<mask id="mask12_722_19965" style="mask-type:alpha" maskUnits="userSpaceOnUse" x="60" y="52" width="12" height="11">
<path d="M65.7909 62.7121C68.6784 62.7121 71.0193 60.3784 71.0193 57.4996C71.0193 54.6208 68.6784 52.2871 65.7909 52.2871C62.9033 52.2871 60.5625 54.6208 60.5625 57.4996C60.5625 60.3784 62.9033 62.7121 65.7909 62.7121Z" fill="url(#paint12_linear_722_19965)"/>
</mask>
<g mask="url(#mask12_722_19965)">
<path d="M65.7909 62.7121C68.6784 62.7121 71.0193 60.3784 71.0193 57.4996C71.0193 54.6208 68.6784 52.2871 65.7909 52.2871C62.9033 52.2871 60.5625 54.6208 60.5625 57.4996C60.5625 60.3784 62.9033 62.7121 65.7909 62.7121Z" fill="#EAFFEE"/>
</g>
<mask id="mask13_722_19965" style="mask-type:alpha" maskUnits="userSpaceOnUse" x="90" y="52" width="12" height="11">
<path d="M96.0721 62.7121C98.9597 62.7121 101.301 60.3784 101.301 57.4996C101.301 54.6208 98.9597 52.2871 96.0721 52.2871C93.1846 52.2871 90.8438 54.6208 90.8438 57.4996C90.8438 60.3784 93.1846 62.7121 96.0721 62.7121Z" fill="url(#paint13_linear_722_19965)"/>
</mask>
<g mask="url(#mask13_722_19965)">
<path d="M96.0721 62.7121C98.9597 62.7121 101.301 60.3784 101.301 57.4996C101.301 54.6208 98.9597 52.2871 96.0721 52.2871C93.1846 52.2871 90.8438 54.6208 90.8438 57.4996C90.8438 60.3784 93.1846 62.7121 96.0721 62.7121Z" fill="#EAFFEE"/>
</g>
<mask id="mask14_722_19965" style="mask-type:alpha" maskUnits="userSpaceOnUse" x="121" y="52" width="11" height="11">
<path d="M126.353 62.7121C129.241 62.7121 131.582 60.3784 131.582 57.4996C131.582 54.6208 129.241 52.2871 126.353 52.2871C123.466 52.2871 121.125 54.6208 121.125 57.4996C121.125 60.3784 123.466 62.7121 126.353 62.7121Z" fill="url(#paint14_linear_722_19965)"/>
</mask>
<g mask="url(#mask14_722_19965)">
<path d="M126.353 62.7121C129.241 62.7121 131.582 60.3784 131.582 57.4996C131.582 54.6208 129.241 52.2871 126.353 52.2871C123.466 52.2871 121.125 54.6208 121.125 57.4996C121.125 60.3784 123.466 62.7121 126.353 62.7121Z" fill="#EAFFEE"/>
</g>
<mask id="mask15_722_19965" style="mask-type:alpha" maskUnits="userSpaceOnUse" x="0" y="78" width="11" height="11">
<path d="M5.22838 88.883C8.11594 88.883 10.4568 86.5492 10.4568 83.6705C10.4568 80.7917 8.11594 78.458 5.22838 78.458C2.34082 78.458 0 80.7917 0 83.6705C0 86.5492 2.34082 88.883 5.22838 88.883Z" fill="url(#paint15_linear_722_19965)"/>
</mask>
<g mask="url(#mask15_722_19965)">
<path d="M5.22838 88.883C8.11594 88.883 10.4568 86.5492 10.4568 83.6705C10.4568 80.7917 8.11594 78.458 5.22838 78.458C2.34082 78.458 0 80.7917 0 83.6705C0 86.5492 2.34082 88.883 5.22838 88.883Z" fill="#EAFFEE"/>
</g>
<mask id="mask16_722_19965" style="mask-type:alpha" maskUnits="userSpaceOnUse" x="30" y="78" width="11" height="11">
<path d="M35.5096 88.883C38.3972 88.883 40.738 86.5492 40.738 83.6705C40.738 80.7917 38.3972 78.458 35.5096 78.458C32.6221 78.458 30.2812 80.7917 30.2812 83.6705C30.2812 86.5492 32.6221 88.883 35.5096 88.883Z" fill="url(#paint16_linear_722_19965)"/>
</mask>
<g mask="url(#mask16_722_19965)">
<path d="M35.5096 88.883C38.3972 88.883 40.738 86.5492 40.738 83.6705C40.738 80.7917 38.3972 78.458 35.5096 78.458C32.6221 78.458 30.2812 80.7917 30.2812 83.6705C30.2812 86.5492 32.6221 88.883 35.5096 88.883Z" fill="#EAFFEE"/>
</g>
<mask id="mask17_722_19965" style="mask-type:alpha" maskUnits="userSpaceOnUse" x="60" y="78" width="12" height="11">
<path d="M65.7909 88.883C68.6784 88.883 71.0193 86.5492 71.0193 83.6705C71.0193 80.7917 68.6784 78.458 65.7909 78.458C62.9033 78.458 60.5625 80.7917 60.5625 83.6705C60.5625 86.5492 62.9033 88.883 65.7909 88.883Z" fill="url(#paint17_linear_722_19965)"/>
</mask>
<g mask="url(#mask17_722_19965)">
<path d="M65.7909 88.883C68.6784 88.883 71.0193 86.5492 71.0193 83.6705C71.0193 80.7917 68.6784 78.458 65.7909 78.458C62.9033 78.458 60.5625 80.7917 60.5625 83.6705C60.5625 86.5492 62.9033 88.883 65.7909 88.883Z" fill="#EAFFEE"/>
</g>
<mask id="mask18_722_19965" style="mask-type:alpha" maskUnits="userSpaceOnUse" x="90" y="78" width="12" height="11">
<path d="M96.0721 88.883C98.9597 88.883 101.301 86.5492 101.301 83.6705C101.301 80.7917 98.9597 78.458 96.0721 78.458C93.1846 78.458 90.8438 80.7917 90.8438 83.6705C90.8438 86.5492 93.1846 88.883 96.0721 88.883Z" fill="url(#paint18_linear_722_19965)"/>
</mask>
<g mask="url(#mask18_722_19965)">
<path d="M96.0721 88.883C98.9597 88.883 101.301 86.5492 101.301 83.6705C101.301 80.7917 98.9597 78.458 96.0721 78.458C93.1846 78.458 90.8438 80.7917 90.8438 83.6705C90.8438 86.5492 93.1846 88.883 96.0721 88.883Z" fill="#EAFFEE"/>
</g>
<mask id="mask19_722_19965" style="mask-type:alpha" maskUnits="userSpaceOnUse" x="121" y="78" width="11" height="11">
<path d="M126.353 88.883C129.241 88.883 131.582 86.5492 131.582 83.6705C131.582 80.7917 129.241 78.458 126.353 78.458C123.466 78.458 121.125 80.7917 121.125 83.6705C121.125 86.5492 123.466 88.883 126.353 88.883Z" fill="url(#paint19_linear_722_19965)"/>
</mask>
<g mask="url(#mask19_722_19965)">
<path d="M126.353 88.883C129.241 88.883 131.582 86.5492 131.582 83.6705C131.582 80.7917 129.241 78.458 126.353 78.458C123.466 78.458 121.125 80.7917 121.125 83.6705C121.125 86.5492 123.466 88.883 126.353 88.883Z" fill="#EAFFEE"/>
</g>
<mask id="mask20_722_19965" style="mask-type:alpha" maskUnits="userSpaceOnUse" x="0" y="104" width="11" height="11">
<path d="M5.22838 115C8.11594 115 10.4568 112.666 10.4568 109.788C10.4568 106.909 8.11594 104.575 5.22838 104.575C2.34082 104.575 0 106.909 0 109.788C0 112.666 2.34082 115 5.22838 115Z" fill="url(#paint20_linear_722_19965)"/>
</mask>
<g mask="url(#mask20_722_19965)">
<path d="M5.22838 115C8.11594 115 10.4568 112.666 10.4568 109.788C10.4568 106.909 8.11594 104.575 5.22838 104.575C2.34082 104.575 0 106.909 0 109.788C0 112.666 2.34082 115 5.22838 115Z" fill="#EAFFEE"/>
</g>
<mask id="mask21_722_19965" style="mask-type:alpha" maskUnits="userSpaceOnUse" x="30" y="104" width="11" height="11">
<path d="M35.5096 115C38.3972 115 40.738 112.666 40.738 109.788C40.738 106.909 38.3972 104.575 35.5096 104.575C32.6221 104.575 30.2812 106.909 30.2812 109.788C30.2812 112.666 32.6221 115 35.5096 115Z" fill="url(#paint21_linear_722_19965)"/>
</mask>
<g mask="url(#mask21_722_19965)">
<path d="M35.5096 115C38.3972 115 40.738 112.666 40.738 109.788C40.738 106.909 38.3972 104.575 35.5096 104.575C32.6221 104.575 30.2812 106.909 30.2812 109.788C30.2812 112.666 32.6221 115 35.5096 115Z" fill="#EAFFEE"/>
</g>
<mask id="mask22_722_19965" style="mask-type:alpha" maskUnits="userSpaceOnUse" x="60" y="104" width="12" height="11">
<path d="M65.7909 115C68.6784 115 71.0193 112.666 71.0193 109.788C71.0193 106.909 68.6784 104.575 65.7909 104.575C62.9033 104.575 60.5625 106.909 60.5625 109.788C60.5625 112.666 62.9033 115 65.7909 115Z" fill="url(#paint22_linear_722_19965)"/>
</mask>
<g mask="url(#mask22_722_19965)">
<path d="M65.7909 115C68.6784 115 71.0193 112.666 71.0193 109.788C71.0193 106.909 68.6784 104.575 65.7909 104.575C62.9033 104.575 60.5625 106.909 60.5625 109.788C60.5625 112.666 62.9033 115 65.7909 115Z" fill="#EAFFEE"/>
</g>
<mask id="mask23_722_19965" style="mask-type:alpha" maskUnits="userSpaceOnUse" x="90" y="104" width="12" height="11">
<path d="M96.0721 115C98.9597 115 101.301 112.666 101.301 109.788C101.301 106.909 98.9597 104.575 96.0721 104.575C93.1846 104.575 90.8438 106.909 90.8438 109.788C90.8438 112.666 93.1846 115 96.0721 115Z" fill="url(#paint23_linear_722_19965)"/>
</mask>
<g mask="url(#mask23_722_19965)">
<path d="M96.0721 115C98.9597 115 101.301 112.666 101.301 109.788C101.301 106.909 98.9597 104.575 96.0721 104.575C93.1846 104.575 90.8438 106.909 90.8438 109.788C90.8438 112.666 93.1846 115 96.0721 115Z" fill="#EAFFEE"/>
</g>
<mask id="mask24_722_19965" style="mask-type:alpha" maskUnits="userSpaceOnUse" x="121" y="104" width="11" height="11">
<path d="M126.353 115C129.241 115 131.582 112.666 131.582 109.788C131.582 106.909 129.241 104.575 126.353 104.575C123.466 104.575 121.125 106.909 121.125 109.788C121.125 112.666 123.466 115 126.353 115Z" fill="url(#paint24_linear_722_19965)"/>
</mask>
<g mask="url(#mask24_722_19965)">
<path d="M126.353 115C129.241 115 131.582 112.666 131.582 109.788C131.582 106.909 129.241 104.575 126.353 104.575C123.466 104.575 121.125 106.909 121.125 109.788C121.125 112.666 123.466 115 126.353 115Z" fill="#EAFFEE"/>
</g>
</g>
<defs>
<linearGradient id="paint0_linear_722_19965" x1="54.996" y1="131.134" x2="-16.4057" y2="-50.67" gradientUnits="userSpaceOnUse">
<stop/>
<stop offset="1" stop-color="white"/>
</linearGradient>
<linearGradient id="paint1_linear_722_19965" x1="81.2007" y1="120.843" x2="9.79907" y2="-60.9613" gradientUnits="userSpaceOnUse">
<stop/>
<stop offset="1" stop-color="white"/>
</linearGradient>
<linearGradient id="paint2_linear_722_19965" x1="107.405" y1="110.551" x2="36.0037" y2="-71.2526" gradientUnits="userSpaceOnUse">
<stop/>
<stop offset="1" stop-color="white"/>
</linearGradient>
<linearGradient id="paint3_linear_722_19965" x1="133.61" y1="100.259" x2="62.2081" y2="-81.5444" gradientUnits="userSpaceOnUse">
<stop/>
<stop offset="1" stop-color="white"/>
</linearGradient>
<linearGradient id="paint4_linear_722_19965" x1="159.814" y1="89.9679" x2="88.4126" y2="-91.8359" gradientUnits="userSpaceOnUse">
<stop/>
<stop offset="1" stop-color="white"/>
</linearGradient>
<linearGradient id="paint5_linear_722_19965" x1="46.0538" y1="134.645" x2="-25.3466" y2="-47.1572" gradientUnits="userSpaceOnUse">
<stop/>
<stop offset="1" stop-color="white"/>
</linearGradient>
<linearGradient id="paint6_linear_722_19965" x1="72.2583" y1="124.354" x2="0.857901" y2="-57.4491" gradientUnits="userSpaceOnUse">
<stop/>
<stop offset="1" stop-color="white"/>
</linearGradient>
<linearGradient id="paint7_linear_722_19965" x1="98.4628" y1="114.062" x2="27.0624" y2="-67.7404" gradientUnits="userSpaceOnUse">
<stop/>
<stop offset="1" stop-color="white"/>
</linearGradient>
<linearGradient id="paint8_linear_722_19965" x1="124.667" y1="103.771" x2="53.2669" y2="-78.0318" gradientUnits="userSpaceOnUse">
<stop/>
<stop offset="1" stop-color="white"/>
</linearGradient>
<linearGradient id="paint9_linear_722_19965" x1="150.872" y1="93.4793" x2="79.4715" y2="-88.3232" gradientUnits="userSpaceOnUse">
<stop/>
<stop offset="1" stop-color="white"/>
</linearGradient>
<linearGradient id="paint10_linear_722_19965" x1="37.1113" y1="138.158" x2="-34.2903" y2="-43.6462" gradientUnits="userSpaceOnUse">
<stop/>
<stop offset="1" stop-color="white"/>
</linearGradient>
<linearGradient id="paint11_linear_722_19965" x1="63.3159" y1="127.866" x2="-8.08572" y2="-53.9378" gradientUnits="userSpaceOnUse">
<stop/>
<stop offset="1" stop-color="white"/>
</linearGradient>
<linearGradient id="paint12_linear_722_19965" x1="89.5204" y1="117.575" x2="18.1189" y2="-64.2292" gradientUnits="userSpaceOnUse">
<stop/>
<stop offset="1" stop-color="white"/>
</linearGradient>
<linearGradient id="paint13_linear_722_19965" x1="115.725" y1="107.283" x2="44.3233" y2="-74.5209" gradientUnits="userSpaceOnUse">
<stop/>
<stop offset="1" stop-color="white"/>
</linearGradient>
<linearGradient id="paint14_linear_722_19965" x1="141.929" y1="96.9915" x2="70.5278" y2="-84.8124" gradientUnits="userSpaceOnUse">
<stop/>
<stop offset="1" stop-color="white"/>
</linearGradient>
<linearGradient id="paint15_linear_722_19965" x1="28.169" y1="141.67" x2="-43.2327" y2="-40.1343" gradientUnits="userSpaceOnUse">
<stop/>
<stop offset="1" stop-color="white"/>
</linearGradient>
<linearGradient id="paint16_linear_722_19965" x1="54.3736" y1="131.378" x2="-17.0281" y2="-50.4258" gradientUnits="userSpaceOnUse">
<stop/>
<stop offset="1" stop-color="white"/>
</linearGradient>
<linearGradient id="paint17_linear_722_19965" x1="80.578" y1="121.086" x2="9.17646" y2="-60.7172" gradientUnits="userSpaceOnUse">
<stop/>
<stop offset="1" stop-color="white"/>
</linearGradient>
<linearGradient id="paint18_linear_722_19965" x1="106.783" y1="110.795" x2="35.3809" y2="-71.0088" gradientUnits="userSpaceOnUse">
<stop/>
<stop offset="1" stop-color="white"/>
</linearGradient>
<linearGradient id="paint19_linear_722_19965" x1="132.987" y1="100.503" x2="61.5854" y2="-81.3004" gradientUnits="userSpaceOnUse">
<stop/>
<stop offset="1" stop-color="white"/>
</linearGradient>
<linearGradient id="paint20_linear_722_19965" x1="19.2266" y1="145.182" x2="-52.1751" y2="-36.6217" gradientUnits="userSpaceOnUse">
<stop/>
<stop offset="1" stop-color="white"/>
</linearGradient>
<linearGradient id="paint21_linear_722_19965" x1="45.4312" y1="134.891" x2="-25.9705" y2="-46.9132" gradientUnits="userSpaceOnUse">
<stop/>
<stop offset="1" stop-color="white"/>
</linearGradient>
<linearGradient id="paint22_linear_722_19965" x1="71.6357" y1="124.599" x2="0.234115" y2="-57.2045" gradientUnits="userSpaceOnUse">
<stop/>
<stop offset="1" stop-color="white"/>
</linearGradient>
<linearGradient id="paint23_linear_722_19965" x1="97.8402" y1="114.308" x2="26.4386" y2="-67.4962" gradientUnits="userSpaceOnUse">
<stop/>
<stop offset="1" stop-color="white"/>
</linearGradient>
<linearGradient id="paint24_linear_722_19965" x1="124.045" y1="104.016" x2="52.6431" y2="-77.7877" gradientUnits="userSpaceOnUse">
<stop/>
<stop offset="1" stop-color="white"/>
</linearGradient>
</defs>
</svg>
