<svg width="372" height="1050" viewBox="0 0 372 1050" fill="none" xmlns="http://www.w3.org/2000/svg">
<path d="M-237 0C-157.025 9.53693e-07 -77.8331 15.7523 -3.94574 46.3574C69.9415 76.9625 137.077 121.821 193.628 178.372C250.179 234.923 295.038 302.059 325.643 375.946C356.248 449.833 372 529.025 372 609L-237 609V0Z" fill="#006147"/>
<path d="M201.813 687.419C201.813 624.14 176.676 563.453 131.931 518.707C87.1856 473.962 26.4982 448.825 -36.781 448.825V687.419L201.813 687.419Z" fill="#064D3F"/>
<mask id="path-3-inside-1_539_11436" fill="white">
<path d="M-63.4768 949.372C-32.1441 949.372 -1.11827 943.201 27.8293 931.21C56.777 919.22 83.0794 901.645 105.235 879.49C127.391 857.334 144.965 831.032 156.956 802.084C168.946 773.136 175.118 742.11 175.118 710.778C175.118 679.445 168.946 648.419 156.956 619.472C144.965 590.524 127.39 564.222 105.235 542.066C83.0793 519.91 56.7769 502.336 27.8292 490.345C-1.11839 478.355 -32.1443 472.183 -63.477 472.183L-63.4768 710.778L-63.4768 949.372Z"/>
</mask>
<path d="M-63.4768 949.372C-32.1441 949.372 -1.11827 943.201 27.8293 931.21C56.777 919.22 83.0794 901.645 105.235 879.49C127.391 857.334 144.965 831.032 156.956 802.084C168.946 773.136 175.118 742.11 175.118 710.778C175.118 679.445 168.946 648.419 156.956 619.472C144.965 590.524 127.39 564.222 105.235 542.066C83.0793 519.91 56.7769 502.336 27.8292 490.345C-1.11839 478.355 -32.1443 472.183 -63.477 472.183L-63.4768 710.778L-63.4768 949.372Z" stroke="#038C34" stroke-width="16.6849" mask="url(#path-3-inside-1_539_11436)"/>
<mask id="path-4-inside-2_539_11436" fill="white">
<path d="M-63.4765 1114.55C16.3827 1114.55 94.4486 1090.87 160.849 1046.5C227.25 1002.14 279.002 939.076 309.563 865.296C340.124 791.516 348.12 710.33 332.54 632.005C316.961 553.681 278.505 481.735 222.036 425.266C165.567 368.797 93.6208 330.341 15.2961 314.761C-63.0286 299.181 -144.214 307.177 -217.995 337.738C-291.775 368.299 -354.836 420.052 -399.203 486.453C-443.571 552.853 -467.252 630.919 -467.252 710.778L-63.4765 710.778L-63.4765 1114.55Z"/>
</mask>
<path d="M-63.4765 1114.55C16.3827 1114.55 94.4486 1090.87 160.849 1046.5C227.25 1002.14 279.002 939.076 309.563 865.296C340.124 791.516 348.12 710.33 332.54 632.005C316.961 553.681 278.505 481.735 222.036 425.266C165.567 368.797 93.6208 330.341 15.2961 314.761C-63.0286 299.181 -144.214 307.177 -217.995 337.738C-291.775 368.299 -354.836 420.052 -399.203 486.453C-443.571 552.853 -467.252 630.919 -467.252 710.778L-63.4765 710.778L-63.4765 1114.55Z" stroke="#65B03A" stroke-width="10.011" mask="url(#path-4-inside-2_539_11436)"/>
</svg>
