<svg width="145" height="345" viewBox="0 0 145 345" fill="none" xmlns="http://www.w3.org/2000/svg">
<path d="M40.617 108.798L29.1048 103.113L22.6934 111.774L37.0571 118.911L40.617 108.798Z" fill="#FFC9A6"/>
<path d="M10.7376 99.2165C9.79894 105.097 13.7308 110.711 19.5223 111.756C25.3139 112.801 30.7689 108.869 31.7076 102.971C32.6463 97.0911 28.7145 91.4767 22.9229 90.4318C17.1314 89.3868 11.6763 93.3187 10.7376 99.2165Z" fill="#FFC9A6"/>
<path d="M0.19983 86.5177C-0.313794 87.6512 0.199811 89.0149 1.31561 89.564L26.6603 101.625C27.7761 102.157 29.1221 101.661 29.6358 100.527C30.1494 99.3937 29.6358 98.0122 28.52 97.4809L3.17529 85.4196C2.04178 84.8883 0.713453 85.3842 0.19983 86.5177Z" fill="black"/>
<path d="M89.5882 75.2179L64.8457 120.558L35.8171 104.742L31.3716 118.716L67.9451 143.388C70.8675 145 74.4805 143.866 75.9329 140.855L102.446 107.505L89.5882 75.2179Z" fill="#006147"/>
<path d="M107.653 57.0995L108.804 56.2848C112.63 53.5927 118.439 55.594 115.8 51.6799L93.5016 18.3829L79.74 28.0709L98.0356 55.2752C100.214 58.4987 104.518 59.3134 107.653 57.0995Z" fill="#FCC9A7"/>
<path d="M68.1747 34.7835C72.815 43.887 83.796 47.3938 92.6693 42.6472C101.56 37.9006 104.996 26.6718 100.356 17.5859C94.7592 6.62273 85.691 4.46197 75.8614 9.72218C66.9704 14.4688 63.5344 25.6976 68.1747 34.7835Z" fill="#FCC9A7"/>
<path d="M90.5799 52.5124C94.7951 50.263 96.4423 44.932 94.2284 40.6105L86.1875 24.8475L68.0513 34.5355L74.6044 47.3938C77.633 53.3094 84.7883 55.6118 90.5799 52.5124Z" fill="#FCC9A7"/>
<path d="M70.5308 38.2194L69.7161 45.3924C69.6629 46.5259 70.8496 47.2343 71.8768 46.6853L76.3578 45.3038L70.5308 38.2194Z" fill="#FCC9A7"/>
<path d="M94.2813 29.9129L103.279 32.9769C103.279 32.9769 110.15 3.6295 88.1178 0.0164213C88.1178 0.0164213 69.6982 -1.08167 62.844 14.6813C60.8957 19.1799 61.0729 26.1581 66.1205 27.203C66.1205 27.203 66.156 27.5927 66.1205 27.203C65.784 23.2535 67.2186 19.8175 67.2186 19.8175C67.2186 19.8175 71.5047 30.2848 80.2009 29.2753L82.7159 33.154C83.6723 34.624 86.5769 34.0573 88.1001 33.2248L89.8181 32.3039L87.5156 27.7698L94.2813 29.9129Z" fill="#0B1226"/>
<path d="M85.8681 24.4756C84.0261 26.5655 84.2033 29.8066 86.2401 31.684C88.2946 33.5614 91.4471 33.402 93.2891 31.2944C95.131 29.2045 94.954 25.9633 92.9172 24.0859C90.8627 22.2086 87.7101 22.368 85.8681 24.4756Z" fill="#FCC9A7"/>
<path d="M138.63 315.789L141.782 332.012L130.394 334.421L126.515 317.861L138.63 315.789Z" fill="#FCC9A7"/>
<path d="M143.854 331.038C143.536 330.188 142.508 329.887 141.818 330.454C140.454 331.552 138.01 332.898 134.379 332.614C130.624 332.313 129.207 330.347 128.676 328.93C128.392 328.187 127.595 327.815 126.869 328.133L104.057 338.618C102.676 339.256 101.595 340.425 101.046 341.877C100.533 343.241 101.56 344.693 102.977 344.64L142.384 343.294C143.943 343.241 145.129 341.877 144.988 340.283L144.332 332.526C144.315 332.402 144.297 332.278 144.244 332.154L143.854 331.038Z" fill="#0C0C0C"/>
<path d="M99.1696 315.08L98.0184 331.569L86.4353 330.825L86.9312 313.805L99.1696 315.08Z" fill="#FCC9A7"/>
<path d="M83.0349 141.759L83.3714 319.154H103.58L110.133 163.632L83.0349 141.759Z" fill="#0C0C0C"/>
<path d="M90.7743 61.9878C90.7743 61.9878 93.8915 54.921 97.0972 53.3093C100.303 51.6976 114.879 49.59 114.879 49.59C114.879 49.59 131.492 60.8543 131.244 81.0273L129.792 141.759H83.0168C83.0345 141.759 79.5454 86.9251 90.7743 61.9878Z" fill="#064D3F"/>
<path d="M83.0349 141.759L91.306 167.369L101.472 237.612L122.708 320.943L142.456 318.623L126.144 236.708L126.604 175.322C126.604 175.322 127.596 169.689 124.762 141.777H83.0349V141.759Z" fill="#232322"/>
<path d="M110.965 205.218C111.39 211.665 116.845 216.553 123.151 216.128C129.456 215.703 134.238 210.124 133.813 203.659C133.388 197.195 127.933 192.324 121.627 192.749C115.322 193.174 110.54 198.753 110.965 205.218Z" fill="#FCC9A7"/>
<path d="M117.211 198.325H128.989V176.204H117.211V198.325Z" fill="#FCC9A7"/>
<path d="M130.819 79.0259V181.45H114.631L108.91 73.7657C108.645 68.6472 110.788 63.6172 114.843 60.624C119.466 57.2235 125.665 56.9224 130.04 73.1989C130.571 75.094 130.819 77.06 130.819 79.0259Z" fill="#064D3F"/>
<path d="M130.819 181.45V174.578H114.277L114.649 181.45H130.819Z" fill="#038C34"/>
<path d="M100.905 328.417C100.622 327.549 99.612 327.195 98.8859 327.726C97.469 328.753 94.954 329.975 91.3586 329.515C87.6216 329.037 86.2933 327 85.8328 325.548C85.5848 324.786 84.8055 324.379 84.0794 324.662L60.8069 333.996C59.39 334.563 58.2565 335.678 57.6543 337.113C57.0875 338.459 58.0263 339.947 59.4609 339.982L98.8859 340.584C100.444 340.602 101.684 339.292 101.631 337.715L101.348 329.922C101.348 329.798 101.312 329.674 101.277 329.55L100.905 328.417Z" fill="#0C0C0C"/>
<path d="M110.133 87.9524L112.541 141.759L110.133 87.9524Z" stroke="#064D3F" stroke-width="1.38979" stroke-miterlimit="10" stroke-linecap="round" stroke-linejoin="round"/>
<path d="M73.028 21.7835C73.028 21.7835 59.9926 41.0355 55.7419 24.5287C51.4913 8.02192 78.8727 12.9279 78.8727 12.9279L73.028 21.7835Z" fill="#0B1226"/>
<path d="M114.879 49.59C114.879 49.59 95.0784 69.4796 92.6697 58.3393C92.6697 58.3393 94.8127 52.9728 102.428 48.9701L114.879 49.59Z" fill="#FCC9A7"/>
<path d="M35.8171 104.725L31.3716 118.699L36.7912 122.347L41.6618 107.913L35.8171 104.725Z" fill="#038C34"/>
</svg>
