<svg width="655" height="487" viewBox="0 0 655 487" fill="none" xmlns="http://www.w3.org/2000/svg">
<g clip-path="url(#clip0_704_3116)">
<circle cx="166.646" cy="413.322" r="123.303" stroke="url(#paint0_linear_704_3116)" stroke-width="45.9585"/>
<circle cx="581.393" cy="43.4125" r="146.283" fill="url(#paint1_linear_704_3116)"/>
<path d="M610.065 413.4C610.065 439.889 603.378 464.816 591.6 486.585C591.6 486.585 516.806 486.585 458.234 486.585C399.221 486.585 320.057 486.585 320.057 486.585C308.643 465.076 302.034 439.447 302.034 413.4C302.034 328.34 370.989 259.385 456.05 259.385C541.11 259.385 610.065 328.34 610.065 413.4Z" fill="url(#paint2_linear_704_3116)"/>
<path d="M430.647 64.9541H249.783C237.474 64.9541 227.496 74.9359 227.496 87.249V446.952C227.496 459.265 237.474 469.246 249.783 469.246H430.647C442.956 469.246 452.935 459.265 452.935 446.952V87.249C452.935 74.9359 442.956 64.9541 430.647 64.9541Z" fill="#064D3F"/>
<path d="M425.447 64.9539H244.582C232.274 64.9539 222.295 74.9356 222.295 87.2487V446.951C222.295 459.264 232.274 469.246 244.582 469.246H425.447C437.756 469.246 447.734 459.264 447.734 446.951V87.2487C447.734 74.9356 437.756 64.9539 425.447 64.9539Z" fill="white" stroke="#064D3F" stroke-width="0.926087" stroke-miterlimit="10"/>
<path d="M249.77 64.9541H430.647C442.942 64.9541 452.935 74.9378 452.935 87.249V99.3185H227.496V87.249C227.496 74.9378 237.476 64.9541 249.77 64.9541Z" fill="#064D3F"/>
<path d="M244.582 64.9539H425.447C437.741 64.9539 447.734 74.9376 447.734 87.2487V99.3182H222.295V87.2487C222.295 74.9376 232.276 64.9539 244.582 64.9539Z" fill="#B4E4BE" stroke="#064D3F" stroke-width="0.926087" stroke-miterlimit="10"/>
<path d="M249.224 89.9706C253.128 89.9706 256.292 86.8046 256.292 82.8993C256.292 78.9939 253.128 75.828 249.224 75.828C245.32 75.828 242.155 78.9939 242.155 82.8993C242.155 86.8046 245.32 89.9706 249.224 89.9706Z" fill="#BCE194" stroke="#064D3F" stroke-width="0.926087" stroke-miterlimit="10"/>
<path d="M270.429 89.9706C274.333 89.9706 277.498 86.8046 277.498 82.8993C277.498 78.9939 274.333 75.828 270.429 75.828C266.525 75.828 263.36 78.9939 263.36 82.8993C263.36 86.8046 266.525 89.9706 270.429 89.9706Z" fill="#BCE194" stroke="#064D3F" stroke-width="0.926087" stroke-miterlimit="10"/>
<path d="M291.637 89.9706C295.541 89.9706 298.705 86.8046 298.705 82.8993C298.705 78.9939 295.541 75.828 291.637 75.828C287.733 75.828 284.568 78.9939 284.568 82.8993C284.568 86.8046 287.733 89.9706 291.637 89.9706Z" fill="#BCE194" stroke="#064D3F" stroke-width="0.926087" stroke-miterlimit="10"/>
<path d="M275.109 253.44H244.24C241.773 253.44 239.772 255.44 239.772 257.908C239.772 260.375 241.773 262.375 244.24 262.375H275.109C277.576 262.375 279.576 260.375 279.576 257.908C279.576 255.44 277.576 253.44 275.109 253.44Z" fill="#064D3F"/>
<path d="M275.109 320.071H244.24C241.773 320.071 239.772 322.071 239.772 324.538C239.772 327.006 241.773 329.006 244.24 329.006H275.109C277.576 329.006 279.576 327.006 279.576 324.538C279.576 322.071 277.576 320.071 275.109 320.071Z" fill="#064D3F"/>
<path d="M275.109 253.44H244.24C241.773 253.44 239.772 255.44 239.772 257.908C239.772 260.375 241.773 262.375 244.24 262.375H275.109C277.576 262.375 279.576 260.375 279.576 257.908C279.576 255.44 277.576 253.44 275.109 253.44Z" fill="#064D3F"/>
<path d="M275.109 320.071H244.24C241.773 320.071 239.772 322.071 239.772 324.538C239.772 327.006 241.773 329.006 244.24 329.006H275.109C277.576 329.006 279.576 327.006 279.576 324.538C279.576 322.071 277.576 320.071 275.109 320.071Z" fill="#064D3F"/>
<path d="M302.58 203.194H248.033C243.471 203.194 239.772 206.724 239.772 211.079C239.772 215.434 243.471 218.965 248.033 218.965H302.58C307.142 218.965 310.841 215.434 310.841 211.079C310.841 206.724 307.142 203.194 302.58 203.194Z" fill="#064D3F"/>
<path d="M412.414 397.625H255.008C246.594 397.625 239.772 404.136 239.772 412.168C239.772 420.201 246.594 426.712 255.008 426.712H412.414C420.828 426.712 427.649 420.201 427.649 412.168C427.649 404.136 420.828 397.625 412.414 397.625Z" fill="#064D3F"/>
<path d="M334.312 229.409H242.525C241.005 229.409 239.772 230.642 239.772 232.162C239.772 233.682 241.005 234.915 242.525 234.915H334.312C335.832 234.915 337.064 233.682 337.064 232.162C337.064 230.642 335.832 229.409 334.312 229.409Z" fill="#2FA161"/>
<path d="M358.342 441.317H288.402C286.882 441.317 285.649 442.549 285.649 444.07C285.649 445.59 286.882 446.822 288.402 446.822H358.342C359.863 446.822 361.095 445.59 361.095 444.07C361.095 442.549 359.863 441.317 358.342 441.317Z" fill="#2FA161"/>
<path d="M382.373 441.317H367.048C365.528 441.317 364.295 442.549 364.295 444.07C364.295 445.59 365.528 446.822 367.048 446.822H382.373C383.893 446.822 385.126 445.59 385.126 444.07C385.126 442.549 383.893 441.317 382.373 441.317Z" fill="#2FA161"/>
<path d="M415.024 275.286H257.376C249.8 275.286 243.658 281.493 243.658 289.148C243.658 296.804 249.8 303.011 257.376 303.011H415.024C422.6 303.011 428.742 296.804 428.742 289.148C428.742 281.493 422.6 275.286 415.024 275.286Z" fill="#064D3F" stroke="#064D3F" stroke-width="0.926087" stroke-miterlimit="10"/>
<path d="M415.024 341.917H257.376C249.8 341.917 243.658 348.123 243.658 355.779C243.658 363.435 249.8 369.642 257.376 369.642H415.024C422.6 369.642 428.742 363.435 428.742 355.779C428.742 348.123 422.6 341.917 415.024 341.917Z" fill="#064D3F" stroke="#064D3F" stroke-width="0.926087" stroke-miterlimit="10"/>
<path d="M412.23 275.286H253.49C245.914 275.286 239.772 281.493 239.772 289.148C239.772 296.804 245.914 303.011 253.49 303.011H412.23C419.807 303.011 425.948 296.804 425.948 289.148C425.948 281.493 419.807 275.286 412.23 275.286Z" fill="white" stroke="#064D3F" stroke-width="0.926087" stroke-miterlimit="10"/>
<path d="M412.23 341.917H253.49C245.914 341.917 239.772 348.123 239.772 355.779C239.772 363.435 245.914 369.642 253.49 369.642H412.23C419.807 369.642 425.948 363.435 425.948 355.779C425.948 348.123 419.807 341.917 412.23 341.917Z" fill="white" stroke="#064D3F" stroke-width="0.926087" stroke-miterlimit="10"/>
<path d="M327.012 285.117H256.302C254.412 285.117 252.88 286.829 252.88 288.94C252.88 291.051 254.412 292.763 256.302 292.763H327.012C328.902 292.763 330.434 291.051 330.434 288.94C330.434 286.829 328.902 285.117 327.012 285.117Z" fill="#2FA161"/>
<path d="M348.858 351.748H256.302C254.412 351.748 252.88 353.459 252.88 355.571C252.88 357.682 254.412 359.394 256.302 359.394H348.858C350.748 359.394 352.28 357.682 352.28 355.571C352.28 353.459 350.748 351.748 348.858 351.748Z" fill="#2FA161"/>
<path d="M316.54 408.604C316.482 408.702 316.422 408.774 316.358 408.821C316.295 408.867 316.214 408.89 316.116 408.89C316.013 408.89 315.895 408.844 315.762 408.751C315.629 408.653 315.462 408.547 315.261 408.432C315.065 408.311 314.828 408.204 314.552 408.112C314.275 408.014 313.944 407.965 313.558 407.965C313.195 407.965 312.875 408.014 312.598 408.112C312.328 408.204 312.1 408.334 311.916 408.501C311.731 408.662 311.59 408.855 311.492 409.08C311.4 409.299 311.354 409.538 311.354 409.797C311.354 410.131 311.437 410.408 311.604 410.627C311.777 410.846 312.002 411.033 312.279 411.189C312.555 411.344 312.869 411.48 313.221 411.595C313.572 411.71 313.932 411.831 314.301 411.958C314.67 412.079 315.03 412.22 315.382 412.382C315.733 412.543 316.047 412.748 316.324 412.995C316.6 413.237 316.822 413.537 316.989 413.894C317.162 414.246 317.249 414.678 317.249 415.191C317.249 415.738 317.154 416.251 316.963 416.729C316.779 417.208 316.508 417.625 316.151 417.983C315.794 418.34 315.353 418.622 314.828 418.83C314.31 419.031 313.719 419.132 313.057 419.132C312.659 419.132 312.273 419.092 311.898 419.011C311.524 418.936 311.169 418.83 310.835 418.691C310.501 418.547 310.187 418.377 309.893 418.181C309.605 417.98 309.346 417.755 309.115 417.507L309.642 416.626C309.694 416.556 309.755 416.499 309.824 416.453C309.899 416.407 309.982 416.384 310.075 416.384C310.196 416.384 310.334 416.447 310.489 416.574C310.651 416.7 310.847 416.842 311.077 416.997C311.313 417.147 311.593 417.285 311.916 417.412C312.244 417.539 312.642 417.602 313.108 417.602C313.489 417.602 313.829 417.553 314.128 417.455C314.428 417.352 314.679 417.208 314.88 417.023C315.088 416.833 315.246 416.605 315.356 416.34C315.465 416.075 315.52 415.781 315.52 415.459C315.52 415.096 315.436 414.799 315.269 414.568C315.102 414.338 314.88 414.145 314.604 413.989C314.327 413.834 314.013 413.701 313.662 413.592C313.31 413.482 312.95 413.37 312.581 413.255C312.212 413.134 311.852 412.995 311.501 412.84C311.149 412.684 310.835 412.482 310.559 412.235C310.282 411.981 310.06 411.667 309.893 411.293C309.726 410.912 309.642 410.445 309.642 409.892C309.642 409.449 309.729 409.019 309.902 408.604C310.075 408.19 310.325 407.824 310.654 407.507C310.988 407.184 311.397 406.928 311.881 406.737C312.365 406.542 312.918 406.444 313.541 406.444C314.238 406.444 314.877 406.556 315.459 406.781C316.047 407 316.557 407.317 316.989 407.731L316.54 408.604ZM320.871 410.212V418.994H319.185V410.212H320.871ZM321.191 407.498C321.191 407.654 321.159 407.803 321.096 407.948C321.032 408.086 320.946 408.21 320.836 408.319C320.733 408.423 320.609 408.506 320.465 408.57C320.321 408.627 320.171 408.656 320.015 408.656C319.86 408.656 319.713 408.627 319.574 408.57C319.436 408.506 319.312 408.423 319.203 408.319C319.099 408.21 319.015 408.086 318.952 407.948C318.894 407.803 318.866 407.654 318.866 407.498C318.866 407.337 318.894 407.187 318.952 407.049C319.015 406.905 319.099 406.781 319.203 406.677C319.312 406.567 319.436 406.484 319.574 406.426C319.713 406.363 319.86 406.331 320.015 406.331C320.171 406.331 320.321 406.363 320.465 406.426C320.609 406.484 320.733 406.567 320.836 406.677C320.946 406.781 321.032 406.905 321.096 407.049C321.159 407.187 321.191 407.337 321.191 407.498ZM326.397 414.612C326.697 414.612 326.959 414.571 327.184 414.491C327.414 414.41 327.604 414.298 327.754 414.154C327.91 414.004 328.025 413.825 328.1 413.618C328.18 413.41 328.221 413.183 328.221 412.935C328.221 412.428 328.065 412.024 327.754 411.725C327.449 411.419 326.996 411.267 326.397 411.267C325.803 411.267 325.351 411.419 325.04 411.725C324.735 412.024 324.582 412.428 324.582 412.935C324.582 413.183 324.619 413.41 324.694 413.618C324.775 413.819 324.89 413.995 325.04 414.145C325.196 414.289 325.386 414.404 325.61 414.491C325.841 414.571 326.103 414.612 326.397 414.612ZM329.085 419.452C329.085 419.245 329.027 419.08 328.912 418.959C328.797 418.833 328.639 418.735 328.437 418.665C328.241 418.591 328.01 418.539 327.745 418.51C327.48 418.475 327.201 418.449 326.907 418.432C326.619 418.415 326.322 418.4 326.017 418.389C325.711 418.372 325.417 418.343 325.135 418.302C324.835 418.452 324.588 418.634 324.392 418.847C324.202 419.06 324.106 419.311 324.106 419.599C324.106 419.783 324.153 419.956 324.245 420.118C324.343 420.279 324.49 420.417 324.686 420.532C324.887 420.653 325.138 420.746 325.438 420.809C325.743 420.878 326.106 420.913 326.527 420.913C326.942 420.913 327.307 420.875 327.624 420.8C327.941 420.731 328.206 420.63 328.42 420.498C328.639 420.371 328.803 420.218 328.912 420.04C329.027 419.861 329.085 419.665 329.085 419.452ZM330.796 410.541V411.172C330.796 411.379 330.667 411.509 330.408 411.561L329.465 411.699C329.546 411.877 329.609 412.068 329.656 412.269C329.702 412.465 329.725 412.673 329.725 412.892C329.725 413.324 329.641 413.716 329.474 414.067C329.307 414.413 329.076 414.71 328.783 414.957C328.489 415.205 328.137 415.395 327.728 415.528C327.325 415.66 326.881 415.727 326.397 415.727C325.999 415.727 325.628 415.683 325.282 415.597C325.109 415.701 324.977 415.816 324.884 415.943C324.798 416.064 324.755 416.185 324.755 416.306C324.755 416.507 324.838 416.657 325.005 416.755C325.178 416.853 325.4 416.925 325.671 416.971C325.948 417.012 326.262 417.038 326.613 417.049C326.97 417.061 327.33 417.081 327.693 417.11C328.062 417.133 328.422 417.179 328.774 417.248C329.131 417.311 329.445 417.418 329.716 417.568C329.993 417.712 330.215 417.913 330.382 418.173C330.554 418.426 330.641 418.758 330.641 419.167C330.641 419.547 330.546 419.916 330.356 420.273C330.171 420.63 329.9 420.947 329.543 421.224C329.186 421.501 328.751 421.722 328.238 421.889C327.725 422.057 327.143 422.14 326.492 422.14C325.841 422.14 325.273 422.077 324.789 421.95C324.311 421.823 323.911 421.653 323.588 421.44C323.271 421.227 323.032 420.979 322.87 420.697C322.715 420.414 322.637 420.12 322.637 419.815C322.637 419.389 322.77 419.028 323.035 418.735C323.3 418.435 323.666 418.202 324.132 418.034C323.879 417.919 323.677 417.764 323.527 417.568C323.378 417.366 323.303 417.101 323.303 416.773C323.303 416.646 323.326 416.516 323.372 416.384C323.418 416.245 323.487 416.11 323.579 415.977C323.677 415.839 323.795 415.709 323.934 415.588C324.078 415.467 324.242 415.358 324.426 415.26C323.994 415.018 323.654 414.698 323.406 414.3C323.159 413.897 323.035 413.427 323.035 412.892C323.035 412.459 323.118 412.07 323.285 411.725C323.452 411.379 323.683 411.082 323.977 410.834C324.276 410.587 324.631 410.397 325.04 410.264C325.455 410.131 325.907 410.065 326.397 410.065C327.158 410.065 327.812 410.224 328.359 410.541H330.796ZM334.028 411.327C334.397 410.953 334.804 410.65 335.247 410.42C335.697 410.189 336.212 410.074 336.794 410.074C337.278 410.074 337.702 410.154 338.065 410.316C338.434 410.477 338.742 410.705 338.99 410.999C339.238 411.287 339.425 411.635 339.552 412.045C339.678 412.454 339.742 412.906 339.742 413.402V418.994H338.048V413.402C338.048 412.773 337.904 412.287 337.616 411.941C337.327 411.589 336.887 411.414 336.293 411.414C335.861 411.414 335.455 411.517 335.074 411.725C334.7 411.926 334.351 412.203 334.028 412.555V418.994H332.343V406.236H334.028V411.327ZM317.076 431.212V439.994H316.065C315.834 439.994 315.684 439.882 315.615 439.657L315.494 438.775C315.304 438.977 315.105 439.161 314.898 439.328C314.69 439.495 314.468 439.64 314.232 439.761C313.996 439.876 313.745 439.965 313.48 440.028C313.215 440.098 312.93 440.132 312.624 440.132C312.14 440.132 311.714 440.052 311.345 439.89C310.982 439.729 310.677 439.504 310.429 439.216C310.181 438.922 309.994 438.571 309.867 438.161C309.74 437.752 309.677 437.3 309.677 436.804V431.212H311.371V436.804C311.371 437.433 311.515 437.922 311.803 438.274C312.091 438.62 312.532 438.792 313.126 438.792C313.558 438.792 313.961 438.692 314.336 438.49C314.71 438.282 315.062 438 315.39 437.643V431.212H317.076ZM321.114 437.833C321.391 438.196 321.687 438.45 322.004 438.594C322.327 438.738 322.687 438.81 323.085 438.81C323.857 438.81 324.453 438.533 324.874 437.98C325.3 437.421 325.513 436.609 325.513 435.543C325.513 434.984 325.464 434.508 325.367 434.116C325.274 433.719 325.136 433.396 324.952 433.148C324.773 432.895 324.551 432.71 324.286 432.595C324.021 432.474 323.721 432.414 323.387 432.414C322.897 432.414 322.471 432.523 322.108 432.742C321.751 432.961 321.419 433.272 321.114 433.676V437.833ZM321.027 432.526C321.212 432.307 321.408 432.108 321.615 431.93C321.828 431.745 322.056 431.59 322.298 431.463C322.54 431.33 322.797 431.229 323.067 431.16C323.344 431.085 323.638 431.048 323.949 431.048C324.45 431.048 324.903 431.146 325.306 431.342C325.715 431.538 326.064 431.826 326.352 432.206C326.64 432.586 326.862 433.056 327.017 433.615C327.179 434.174 327.259 434.816 327.259 435.543C327.259 436.194 327.17 436.799 326.991 437.358C326.819 437.911 326.568 438.392 326.239 438.801C325.917 439.21 325.519 439.533 325.047 439.769C324.58 440 324.053 440.115 323.465 440.115C322.941 440.115 322.491 440.028 322.117 439.856C321.742 439.683 321.408 439.441 321.114 439.13V442.941H319.428V431.212H320.44C320.676 431.212 320.823 431.324 320.881 431.549L321.027 432.526Z" fill="white"/>
<path d="M428.404 109.255H242.295C236.076 109.255 231.034 114.287 231.034 120.495V174.478C231.034 180.685 236.076 185.717 242.295 185.717H428.404C434.623 185.717 439.665 180.685 439.665 174.478V120.495C439.665 114.287 434.623 109.255 428.404 109.255Z" fill="#F0F0F0"/>
<path d="M369.757 168.232C368.63 158.189 361.968 139.84 350.654 139.84C340.256 139.84 332.404 157.407 332.404 157.407C332.404 157.407 328.843 149.087 322.205 149.087C313.499 149.087 308.588 162.665 308.588 168.24H369.749C369.753 168.24 369.757 168.236 369.757 168.232Z" fill="#064D3F"/>
<path d="M327.157 137.655C330.776 137.655 333.711 134.721 333.711 131.102C333.711 127.482 330.776 124.548 327.157 124.548C323.537 124.548 320.603 127.482 320.603 131.102C320.603 134.721 323.537 137.655 327.157 137.655Z" fill="#BCE194"/>
<path d="M193.891 46.3007L207.64 57.9177" stroke="#0B5243" stroke-width="3.82671" stroke-linecap="round" stroke-linejoin="round"/>
<path d="M185.193 70.2418L203.161 71.3301" stroke="#0B5243" stroke-width="3.82671" stroke-linecap="round" stroke-linejoin="round"/>
<path d="M212.892 33.8297L218.596 50.9024" stroke="#0B5243" stroke-width="3.82671" stroke-linecap="round" stroke-linejoin="round"/>
<path d="M512.149 311.615C512.149 311.615 543.154 323.575 547.174 327.608C551.194 331.64 556.571 343.336 559.749 362.482C562.928 381.627 561.684 433.826 559.749 448.449C557.815 463.059 551.81 472.708 547.953 476.577C544.096 480.446 538.456 478.034 538.456 478.034C538.631 481.024 538.958 485.019 539.486 487.092H433.154C436.132 479.554 437.652 468.863 434.21 453.562C432.162 461.539 428.217 473.449 423.506 477.017C419.461 480.082 410.428 479.567 411.245 474.63C418.594 469.152 411.182 449.63 400.064 452.469C409.674 442.858 405.039 407.632 405.039 385.283C405.039 362.934 413.682 344.718 416.32 340.007C418.958 335.296 435.742 327.871 435.742 327.871L512.149 311.628V311.615Z" fill="#064D3F"/>
<path d="M273.481 380.296L275.717 376.954C276.044 376.464 276.584 376.175 277.175 376.163L337.124 375.283C338.343 375.271 339.511 375.773 340.328 376.665L410.478 453.009C410.918 453.486 410.993 454.203 410.667 454.768L408.682 458.11L338.883 381.439C338.016 380.497 336.785 379.957 335.504 379.957L273.469 380.296H273.481Z" fill="#0B5243"/>
<path d="M273.582 381.276L347.727 454.052C348.343 454.655 349.16 455.019 350.026 455.069L407.865 458.587C408.556 458.625 408.946 457.808 408.481 457.306L338.959 381.527C338.042 380.534 336.76 379.969 335.403 379.969H274.122C273.431 379.969 273.092 380.798 273.582 381.288V381.276Z" fill="#2FA161"/>
<path d="M337.167 419.253C338.953 417.855 338.463 414.245 336.072 411.191C333.681 408.138 330.295 406.796 328.508 408.195C326.722 409.593 327.212 413.203 329.603 416.256C331.994 419.31 335.381 420.652 337.167 419.253Z" fill="#FBD300"/>
<path d="M291.62 390.647C292.767 389.588 292.228 387.139 290.416 385.176C288.603 383.214 286.205 382.481 285.058 383.54C283.911 384.599 284.45 387.049 286.262 389.011C288.074 390.974 290.473 391.706 291.62 390.647Z" fill="#0B5243"/>
<path d="M497.112 300.648C497.112 300.648 486.634 297.244 469.763 301.465C452.891 305.686 445.265 314.857 445.265 314.857C447.489 327.645 454.486 339.643 465.717 350.949L497.112 300.636V300.648Z" fill="#088D73"/>
<path d="M446.282 301.376C446.282 301.376 454.624 313.763 453.544 322.243C452.463 330.723 447.677 335.723 447.677 335.723C447.677 335.723 443.77 354.63 464.85 356.15C485.93 357.67 503.33 313.499 503.33 313.499C503.33 313.499 495.754 312.695 483.317 301.376C470.88 290.057 469.624 262.231 469.624 262.231L462.865 263.977L446.282 301.376Z" fill="#FFC1A3"/>
<path d="M399.926 237.872C399.926 237.872 401.12 250.171 402.539 255.485C403.959 260.799 408.733 266.816 408.733 266.816C408.733 266.816 408.557 273.726 411.032 280.447C413.507 287.168 423.243 297.268 426.082 300.095C428.921 302.922 433.519 308.587 441.132 305.937C448.745 303.286 459.901 293.01 463.444 285.045C466.986 277.08 466.986 273.361 466.986 263.625C466.986 253.889 457.778 225.032 449.637 221.49C441.497 217.947 425.743 216.666 413.343 222.909C400.956 229.153 399.939 237.872 399.939 237.872H399.926Z" fill="#FFCFB7"/>
<path d="M445.24 246.088C444.586 245.837 440.503 244.065 436.37 244.718C432.237 245.372 423.38 252.658 421.898 253.588C420.416 254.517 421.923 256.276 423.908 255.271C425.893 254.266 433.682 246.967 437.212 246.402C440.742 245.837 445.616 246.929 446.295 246.929C446.973 246.929 445.893 246.339 445.24 246.088Z" fill="black"/>
<path d="M413.695 255.572C415.127 256.489 415.755 257.293 414.461 257.293C412.941 257.293 407.64 255.346 405.24 256.062C403.72 256.515 403.318 257.733 403.318 257.733C402.79 257.997 401.999 256.477 402.552 255.484C402.552 255.484 403.305 254.492 404.373 254.19C406.321 253.638 412.451 254.743 413.707 255.585L413.695 255.572Z" fill="black"/>
<path d="M416.81 259.166C416.81 259.166 418.129 260.485 418.82 263.06C419.511 265.635 419.863 273.6 419.863 277.62C419.863 281.64 422.074 283.776 424.272 283.776C426.471 283.776 427.614 281.1 429.549 280.058C431.483 279.015 432.715 278.839 432.715 276.527C432.715 273.311 427.853 273.211 427.853 273.211" stroke="#241E20" stroke-width="0.926087" stroke-linecap="round" stroke-linejoin="round"/>
<path d="M399.926 241.363C399.926 241.363 397.087 238.185 397.087 229.14C397.087 224.002 401.032 217.394 406.584 211.539C406.584 209.115 410.278 205.673 413.029 205.673C415.052 202.419 418.331 200.861 421.019 200.497C413.569 196.577 416.798 190.798 416.798 190.798C413.368 190.798 413.569 181.929 417.765 181.929C414.273 178.437 417.451 169.014 423.28 170.911C419.901 163.311 429.059 158.148 431.886 160.962C430.027 153.525 442.124 148.248 446.283 156.577C447.727 150.999 456.974 151.715 457.979 157.758C462.024 150.522 474.562 157.532 470.78 163.826C475.805 159.869 482.526 168.323 477.954 172.909C485.328 171.439 487.187 184.014 481.823 184.881C487.891 186.728 484.976 196.602 481.27 195.333C484.888 198.952 481.898 208.575 473.456 204.831C473.456 204.831 476.358 205.647 476.835 209.567C479.273 210.547 481.383 214.203 480.441 217.394C482.79 217.394 486.308 223.449 484.31 227.356C487.941 229.58 486.873 236.376 485.604 238.135C488.77 239.655 489.26 245.195 487.263 247.193C489.7 248.926 487.363 257.557 484.536 257.758C484.536 261.464 482.112 265.434 477.903 265.635C471.622 271.426 466.974 263.612 466.974 263.612L463.494 246.489C463.494 246.489 462.74 250.698 461.27 255.886C459.8 261.074 457.137 260.208 457.137 260.208C457.137 260.208 456.044 241.602 452.803 235.358C449.562 229.115 443.619 222.708 434.185 223.675C424.75 224.642 411.773 223.198 411.773 223.198C411.773 223.198 409.537 226.087 405.755 227.193C401.974 228.298 399.914 241.351 399.914 241.351L399.926 241.363Z" fill="#031001"/>
<path d="M497.111 300.648C504.259 307.118 509.096 310.56 512.136 311.615C512.136 311.615 476.722 350.61 470.867 384.316C465.013 418.022 477.174 487.079 477.174 487.079H462.852C462.852 487.079 450.126 409.504 456.496 377.004C462.865 344.504 497.111 300.648 497.111 300.648Z" fill="#C9EBDF"/>
<path d="M445.265 314.869C441.069 321.955 437.941 326.176 435.73 327.872C438.506 345.07 448.732 357.155 458.33 369.655L465.717 350.975C457.991 341.967 449.612 335.196 445.265 314.882V314.869Z" fill="#C9EBDF"/>
<path d="M516.106 442.771C516.106 442.771 461.722 446.527 450.73 444.002C439.737 441.477 431.006 435.748 424.561 430.874C418.117 425.999 408.041 422.004 405.001 423.374C403.28 424.153 400.227 428.035 397.426 430.911C395.303 433.097 392.978 434.379 393.443 435.258C394.511 437.293 397.363 436.301 397.363 436.301C397.589 437.519 398.594 438.047 399.561 438.135C401.132 438.273 403.029 437.758 403.029 437.758C403.029 437.758 404.26 439.542 407.602 439.542C410.943 439.542 415.001 437.67 416.848 438.939C418.694 440.208 419.712 441.778 422.79 446.037C425.868 450.296 432.3 458.286 437.815 459.077C443.33 459.869 450.026 456.439 450.026 456.439L516.094 469.153C521.646 466.514 523.317 448.512 516.094 442.771H516.106Z" fill="#FFCFB7"/>
<path d="M428.707 441.125C421.986 436.3 417.941 432.846 414.36 432.846C412.275 432.846 409.235 434.793 403.393 435.861C402.388 435.861 402.124 436.866 403.029 437.758" stroke="#743A26" stroke-width="0.617391" stroke-miterlimit="10" stroke-linecap="round"/>
<path d="M426.785 435.032C417.312 430.559 412.941 426.527 410.215 427.054C407.426 427.356 406.031 429.491 403.292 431.414C401.207 432.883 398.292 434.24 397.953 434.592C397.162 435.383 397.375 436.3 397.375 436.3" stroke="#743A26" stroke-width="0.617391" stroke-miterlimit="10" stroke-linecap="round"/>
<path d="M401.785 426.187C401.785 426.187 396.333 429.052 392.413 429.692C388.494 430.333 389.612 432.544 392.099 432.908C394.587 433.273 396.685 431.665 396.685 431.665C397.928 430.446 399.7 428.537 401.798 426.187H401.785Z" fill="#FFCFB7"/>
<path d="M418.594 356.175C418.594 356.175 423.205 370.245 423.205 376.791C423.205 383.336 418.594 389.152 418.594 402.745C418.594 416.338 428.971 423.75 430.479 429.579C431.019 431.665 431.81 435.383 431.81 435.383" stroke="#0B5243" stroke-width="0.926087" stroke-linecap="round" stroke-linejoin="round"/>
<path d="M542.425 334.555C531.672 342.256 520.918 358.223 520.918 378.788C520.918 399.354 524.536 436.313 524.536 436.313" stroke="#0B5243" stroke-width="0.926087" stroke-linecap="round" stroke-linejoin="round"/>
<path d="M511.307 443.085C511.307 443.085 511.96 438.989 514.385 437.859C516.81 436.728 518.267 436.301 526.194 436.301C534.121 436.301 542.702 446.715 543.556 457.934" stroke="#0B5243" stroke-width="0.926087" stroke-linecap="round" stroke-linejoin="round"/>
<path d="M512.149 469.152C512.149 469.152 512.262 471.112 514.737 473.587C517.212 476.062 527.438 475.383 538.455 478.021" stroke="#0B5243" stroke-width="0.926087" stroke-linecap="round" stroke-linejoin="round"/>
<path d="M414.862 475.019C414.862 475.019 410.666 475.358 401.785 472.356L356.571 457.13C356.571 457.13 353.845 457.758 348.845 456.552C343.845 455.346 338.556 451.099 336.76 451.099C334.963 451.099 329.511 451.765 327.601 451.765C325.692 451.765 324.436 446.778 325.076 446.137C323.833 445.496 323.657 443.738 323.657 443.738C322.237 442.318 321.358 439.479 321.358 437.745C319.611 434.68 318.669 431.049 319.184 429.592C319.184 429.592 320.365 426.502 321.923 423.122C323.481 419.743 323.971 415.245 325.227 414.919C326.483 414.592 327.589 417.268 327.589 419.806C327.589 422.343 325.064 429.605 325.064 429.605C325.064 429.605 332.124 427.896 334.988 427.042C337.853 426.187 338.933 425.283 339.875 426.213C340.817 427.142 339.875 429.592 339.875 429.592C339.875 429.592 343.229 427.758 344.134 429.592C345.039 431.426 343.317 433.424 341.169 434.63C339.021 435.836 331.571 439.303 331.056 440.283C330.541 441.263 331.056 443.436 331.056 443.436C331.056 443.436 337.89 440.283 339.724 440.283C341.559 440.283 342.601 442.142 341.621 443.122C340.642 444.102 338.456 445.019 338.456 445.019L347.614 453.838L408.694 457.544L410.918 454.316C417.739 458.675 421.106 471.137 414.862 475.044V475.019Z" fill="#FFCFB7"/>
<path d="M442.149 284.153C436.861 286.49 432.526 286.754 431.207 287.507C429.888 288.261 429.248 290.46 429.248 290.46C429.248 290.46 424.863 289.429 423.921 289.392C422.979 289.354 422.903 291.075 422.903 291.075C422.903 291.075 428.732 295.711 433.657 294.228C438.217 292.859 441.521 285.221 441.521 285.221L442.149 284.141V284.153Z" fill="#5B1A0B"/>
<path d="M462.866 248.826C462.866 248.826 464.574 240.057 469.474 239.19C474.373 238.324 478.908 242.896 478.908 250.183C478.908 257.469 475.24 264.756 471.81 266.728C468.381 268.7 465.692 264.994 465.692 264.994C465.529 259.341 464.662 253.926 462.878 248.813L462.866 248.826Z" fill="#FFCCB2"/>
<path d="M443.456 256.213C443.456 256.213 433.645 258.035 431.861 258.499C430.077 258.964 429.235 259.228 428.431 260.535C427.627 261.841 428.268 264.128 428.268 264.128C428.268 264.128 431.22 265.308 433.632 264.68C436.044 264.052 436.082 263.55 438.23 262.042C440.378 260.535 443.456 256.226 443.456 256.226V256.213Z" fill="white"/>
<path d="M446.081 255.572C446.081 255.572 441.483 256.326 437.84 256.741C434.197 257.155 430.441 257.821 428.531 259.178C426.622 260.535 427.237 263.839 427.237 263.839C427.589 264.58 428.493 265.283 428.493 264.567C428.493 264.567 427.802 262.206 429.486 260.66C431.458 258.839 439.008 258.135 443.204 257.067C447.4 256 446.069 255.585 446.069 255.585L446.081 255.572Z" fill="black"/>
<path d="M428.757 264.542C428.757 264.542 431.911 264.944 434.85 263.814C437.79 262.683 442.501 257.482 442.677 257.557C442.853 257.633 442.652 257.934 442.413 258.248C442.175 258.562 439.084 262.959 435.365 264.567C431.647 266.175 429.159 264.907 428.908 264.768C428.657 264.63 428.745 264.555 428.745 264.555L428.757 264.542Z" fill="black"/>
<path d="M433.971 258.462C433.971 258.462 435.051 258.764 435.755 259.882C436.458 261 435.943 263.085 434.046 263.55C431.873 264.09 430.441 262.947 429.863 262.055C429.147 260.962 429.498 259.58 429.498 259.58L433.983 258.462H433.971Z" fill="black"/>
<path d="M426.333 262.57C426.333 262.57 425.742 259.392 427.576 257.557C429.411 255.723 439.172 254.027 439.172 254.027" stroke="#241E20" stroke-width="0.926087" stroke-linecap="round" stroke-linejoin="round"/>
<path d="M416.973 265.623C416.973 265.623 413.808 263.073 411.107 263.073C408.406 263.073 406.584 263.939 406.584 263.939C408.142 266.289 409.787 268.399 411.772 269.442C411.772 269.442 414.097 268.826 415.026 267.897C415.956 266.967 416.961 265.623 416.961 265.623H416.973Z" fill="white"/>
<path d="M417.765 265.371C415.629 263.236 413.33 262.03 409.989 262.256C407.966 262.381 406.471 263.072 405.491 263.349C404.511 263.625 406.031 264.429 406.86 264.253C407.69 264.077 408.845 263.537 410.88 263.537C414.197 263.537 416.37 265.283 416.37 265.283C416.37 265.283 417.765 266.226 417.765 265.371Z" fill="black"/>
<path d="M416.597 265.724C414.939 267.985 412.765 268.914 411.471 269.053C410.177 269.191 409.436 269.053 409.436 269.053C409.097 268.977 409.26 269.254 409.738 269.404C410.215 269.555 410.479 269.618 411.622 269.618C413.582 269.618 416.408 267.357 416.798 265.925C416.848 265.736 416.798 265.523 416.597 265.736V265.724Z" fill="black"/>
<path d="M408.77 263.06C408.77 263.06 408.481 264.542 409.461 266.075C410.441 267.608 411.621 268.248 413.029 268.01C414.436 267.771 414.561 266.2 414.436 265.635C414.31 265.07 413.946 263.851 412.664 263.349C410.931 262.57 410.692 263.06 410.692 263.06H408.77Z" fill="black"/>
<path d="M339.536 429.718C334.159 431.954 328.594 432.632 327.049 434.177C325.504 435.723 325.026 439.454 323.77 443.373" stroke="#743A26" stroke-width="0.617391" stroke-miterlimit="10" stroke-linecap="round"/>
<path d="M331.056 443.411L325.076 446.125" stroke="#743A26" stroke-width="0.617391" stroke-miterlimit="10" stroke-linecap="round"/>
<path d="M338.456 444.994C338.456 444.994 334.8 447.029 332.903 447.77" stroke="#743A26" stroke-width="0.617391" stroke-miterlimit="10" stroke-linecap="round"/>
<path d="M465.264 351.113C462.727 356.879 460.742 361.653 458.342 368.964" stroke="#81B89E" stroke-width="0.926087" stroke-linecap="round" stroke-linejoin="round"/>
<path d="M319.059 487.092H595.717" stroke="black" stroke-width="0.926087" stroke-linecap="round" stroke-linejoin="round"/>
<path d="M406.584 211.54C402.803 209.592 393.431 216.728 395.215 222.947C391.961 222.13 387.929 226.426 389.059 231.313C384.411 231.313 382.162 243.788 388.217 245.509C387.137 248.072 390.504 252.833 394.461 252.833C392.853 257.796 399.926 260.534 403.305 257.72C402.087 244.19 402.074 232.218 406.81 228.788C405.165 232.431 405.73 236.012 408.758 237.658C406.798 240.158 408.758 244.58 411.785 244.58C411.057 247.168 415.165 251.175 419.197 249.127C420.629 252.519 427.501 253.198 428.745 250.082C432.702 253.21 436.057 250.622 436.057 246.766C438.356 245.949 438.23 242.168 435.742 240.962C437.149 237.218 433.908 236.188 432.727 235.007C431.785 234.065 432.036 230.748 433.142 229.655C433.72 233.524 435.83 235.861 440.881 235.296C440.881 240.007 445.567 242.494 450.667 240.183C448.682 243.411 448.758 248.248 453.845 250.082C450.629 253.261 452.464 260.22 457.137 260.22L459.951 228.21L440.516 215.522L406.584 211.54Z" fill="#031001"/>
<path d="M473.92 243.286C473.92 243.286 472.752 242.017 470.114 242.017C467.476 242.017 466.345 247.394 466.345 248.738C466.345 250.083 466.157 253.361 466.973 254.191C467.79 255.02 467.79 254.831 469.096 254.831C470.553 254.831 470.742 256.012 470.742 257.268C470.742 258.525 469.222 260.497 469.222 260.497C469.222 260.497 470.013 261.716 471.521 261.276C473.028 260.836 473.933 259.756 474.247 258.311C474.561 256.866 474.8 255.057 472.953 253.211C471.873 252.13 469.9 252.809 468.895 250.083C467.89 247.356 469.297 244.241 470.868 243.675C472.438 243.11 474.373 244.593 474.787 244.593C475.202 244.593 473.908 243.299 473.908 243.299L473.92 243.286Z" fill="#FFB895"/>
<path d="M407.325 261.088C407.325 261.088 410.051 260.397 412.476 261.088C414.901 261.779 416.81 263.701 416.81 263.701" stroke="#241E20" stroke-width="0.926087" stroke-linecap="round" stroke-linejoin="round"/>
<path d="M428.167 294.266C428.167 294.266 429.762 291.188 431.496 290.937C433.23 290.685 434.373 290.937 434.373 290.937C434.373 290.937 436.144 288.009 438.456 288.009H440.994C440.994 288.009 439.122 292.909 435.114 294.416C431.107 295.924 428.167 294.253 428.167 294.253V294.266Z" fill="#4F1107"/>
<path d="M442.363 283.977C437.074 286.314 432.74 286.578 431.421 287.331C430.102 288.085 429.461 290.284 429.461 290.284C429.461 290.284 425.076 289.253 424.134 289.216C423.192 289.178 423.117 290.899 423.117 290.899C423.117 290.899 425.755 292.344 430.679 290.861C435.24 289.492 441.006 285.083 441.006 285.083L442.363 283.964V283.977Z" fill="#E5E1DF"/>
<path d="M441.886 285.598C441.886 285.598 436.383 291.929 431.446 293.11C427.564 294.04 424.788 292.783 424.788 292.783C424.788 292.783 428.933 296.15 433.154 295.321C437.375 294.492 440.705 286.477 441.521 285.233C442.338 283.99 441.886 285.598 441.886 285.598Z" fill="#E5E1DF"/>
<path d="M445.152 282.507C444.549 283.11 442.652 284.944 439.675 286.351C436.697 287.758 434.486 287.62 433.293 288.311C432.099 289.002 432.036 290.057 430.466 290.736C428.896 291.414 426.873 290.773 425.567 290.773C424.26 290.773 424.65 291.804 423.456 292.218C422.263 292.633 420.265 292.52 421.308 291.829C422.351 291.138 423.155 288.562 424.989 288.562C426.823 288.562 427.74 289.329 428.732 289.329C429.725 289.329 429.725 286.829 431.22 286.163C432.715 285.497 436.383 285.145 438.607 284.605C440.83 284.065 443.092 282.344 443.506 281.942C443.921 281.54 445.742 281.917 445.139 282.52L445.152 282.507Z" fill="#7F2813"/>
<path d="M441.484 284.843C441.484 284.843 438.506 292.683 433.154 294.228C427.803 295.773 424.31 291.263 424.31 291.263L422.702 291.753C425.968 293.198 427.124 299.065 434.21 296.992C441.295 294.919 441.207 289.002 444.624 282.708C443.154 282.972 441.496 284.856 441.496 284.856L441.484 284.843Z" fill="#7F2813"/>
</g>
<defs>
<linearGradient id="paint0_linear_704_3116" x1="166.646" y1="559.605" x2="267.5" y2="333.5" gradientUnits="userSpaceOnUse">
<stop/>
<stop offset="0.447115" stop-color="#064D3F"/>
<stop offset="0.889423" stop-color="#038C34"/>
</linearGradient>
<linearGradient id="paint1_linear_704_3116" x1="665" y1="-57.5" x2="530.5" y2="171" gradientUnits="userSpaceOnUse">
<stop stop-color="#064D3F"/>
<stop offset="1" stop-color="#BCE194"/>
</linearGradient>
<linearGradient id="paint2_linear_704_3116" x1="456.05" y1="259.385" x2="456.05" y2="486.585" gradientUnits="userSpaceOnUse">
<stop stop-color="#BCE194"/>
<stop offset="1" stop-color="white"/>
</linearGradient>
<clipPath id="clip0_704_3116">
<rect x="0.186035" y="0.256348" width="654.628" height="486.487" rx="22.4188" fill="white"/>
</clipPath>
</defs>
</svg>
