<svg width="418" height="460" viewBox="0 0 418 460" fill="none" xmlns="http://www.w3.org/2000/svg">
<rect x="51" y="51" width="367" height="372" rx="50" fill="url(#paint0_linear_714_1474)"/>
<g clip-path="url(#clip0_714_1474)">
<path d="M114.04 459.188L62.1162 423.829L241.174 416.933L292.633 450.9L114.04 459.188Z" fill="#088D73"/>
<path d="M120.537 170.629C122.211 169.27 134.542 164.81 157.777 164.81C181.013 164.81 190.857 170.463 190.857 170.463C190.857 170.463 195.929 173.049 186.167 190.223C176.406 207.397 165.335 220.062 165.335 220.062L162.219 225.549L158.722 218.123L120.637 182.846C120.637 182.846 118.217 176.862 118.631 174.823C119.046 172.784 118.863 171.988 120.537 170.629Z" fill="#064D3F"/>
<path d="M312.72 301.837C324.205 301.837 341.027 310.69 343.148 327.118C343.148 327.118 343.994 353.426 320.327 337.777C296.661 322.128 301.301 301.837 312.72 301.837Z" fill="#064D3F"/>
<path d="M217.855 92.3681C217.855 92.3681 221.733 66.7729 220.092 56.8266C219.678 54.3235 224.269 52.8978 224.418 50.461C224.733 45.3055 230.914 47.2616 230.401 43.3991C228.114 26.0925 189.216 5.28813 177.631 1.49195C166.047 -2.30423 138.601 1.84007 132.569 5.56994C126.536 9.29981 121.365 19.0638 121.365 19.0638C121.365 19.0638 114.106 19.6108 108.388 22.114C102.671 24.6171 96.4225 42.736 94.1354 55.4673C91.8483 68.1986 100.5 92.8489 100.5 92.8489C100.5 92.8489 106.068 114.151 163.693 117.483C221.318 120.815 217.838 92.3681 217.838 92.3681H217.855Z" fill="#031001"/>
<path d="M320.461 375.938C320.461 375.938 297.639 416.518 276.078 416.518C254.516 416.518 243.809 383.546 243.809 383.546L242.566 380.098V429.034H173.406L86.8112 428.753C86.8112 428.753 29.9815 431.057 15.9274 427.426C2.30423 423.895 -1.24244 396.427 0.348588 369.903C1.93962 343.38 27.5618 243.287 44.9803 223.709C62.664 211.144 89.2309 200.004 109.865 192.71L199.907 191.5C199.907 191.5 245.168 213.481 254.781 222.134C264.195 230.605 286.933 327.632 285.11 329.439L320.461 375.921V375.938Z" fill="#B4E4BE"/>
<path d="M187.476 154.814V172.502C187.476 178.536 189.995 186.145 189.995 186.145L190.874 188.317L183.913 201.429C183.913 201.429 170.207 216.929 167.804 217.609C165.401 218.288 162.219 225.549 162.219 225.549C162.219 225.549 161.904 223.974 159.666 220.013C158.556 218.04 157.147 218.968 153.352 216.415C145.48 211.111 127.547 188.781 127.547 188.781L124.664 183.543C128.26 171.889 127.464 151.648 127.464 151.648L187.46 154.831L187.476 154.814Z" fill="#E8B98E"/>
<path d="M116.41 129.849C116.41 129.849 113.444 130.562 109.019 128.589C104.594 126.617 104.909 122.522 102.29 116.272C99.6714 110.039 94.4177 99.1979 97.8649 93.8766C101.312 88.5553 110.709 91.5061 110.709 91.5061L116.427 129.833L116.41 129.849Z" fill="#F7CBA4"/>
<path d="M204.629 124.329C204.629 124.329 206.27 125.738 209.601 124.329C212.933 122.92 213.745 117.748 215.551 112.824C217.358 107.901 221.501 94.4403 218.021 90.9425C214.524 87.4447 211.01 92.9815 211.01 92.9815L204.629 124.312V124.329Z" fill="#F7CBA4"/>
<path d="M191.803 174.16C192.515 179.68 184.395 197.501 165.965 217.692C163.413 219.714 162.104 226.345 162.104 226.345C164.092 222.797 166.098 219.117 167.722 218.902C173.34 218.902 182.257 246.503 187.096 247.166C191.935 247.829 200.603 192.345 199.924 190.19C199.244 188.035 194.305 173.381 192.747 171.823C192.068 171.143 190.875 170.463 190.875 170.463C190.875 170.463 191.438 171.193 191.803 174.16Z" fill="#006147"/>
<path d="M62.1162 231.219C62.1162 231.219 76.7007 238.065 83.5454 267.257C90.3902 296.45 83.5454 314.9 83.5454 314.9L63.9724 365.925" stroke="#064D3F" stroke-width="1.3974" stroke-linecap="round" stroke-linejoin="round"/>
<path d="M17.4019 367.351C17.4019 367.351 40.9856 357.653 97.0031 375.938" stroke="#064D3F" stroke-width="1.3974" stroke-linecap="round" stroke-linejoin="round"/>
<path d="M260.399 292.505C260.399 292.505 254.631 314.967 242.566 327.035" stroke="#064D3F" stroke-width="1.3974" stroke-linecap="round" stroke-linejoin="round"/>
<path d="M403.824 261.654C406.062 260.709 408.398 261.174 407.934 264.638C407.205 270.042 404.736 273.192 404.736 273.192V273.242C408.266 273.109 406.973 277.386 404.703 281.066L403.443 283.122V283.221C405.133 282.774 405.896 284.067 404.62 288.775C403.393 293.317 400.377 298.108 398.405 300.08C396.433 302.053 386.571 308.899 382.876 311.253C379.18 313.607 352.944 322.029 337.879 326.421C334.316 329.273 329.609 339.982 329.609 339.982C329.609 339.982 320.113 345.949 311.445 337.28C302.777 328.61 307.285 318.514 307.285 318.514C310.815 315.646 312.887 312.679 314.18 309.38C314.18 309.38 315.522 297.229 321.273 288.377C327.024 279.525 341.84 271.866 341.84 271.866C341.84 271.866 355.695 255.786 360.949 254.659C366.203 253.532 366.17 257.411 364.678 259.765C363.187 262.119 354.602 275.629 354.602 275.629L353.955 276.657C353.955 276.657 366.369 276.209 370.578 274.833C374.788 273.457 386.505 269.18 389.24 266.429C391.974 263.693 396.051 259.615 397.99 257.676C399.929 255.736 403.493 256.515 404.172 258.571C404.852 260.627 403.824 261.671 403.824 261.671" fill="#FFD9B3"/>
<path d="M100.749 375.656C94.4346 375.656 88.7997 382.469 86.1977 393.211C82.9162 406.771 82.8499 429.366 88.7997 430.012C94.7495 430.659 126.139 432.035 126.139 432.035V382.486C126.139 382.486 107.063 375.639 100.749 375.639V375.656Z" fill="#006147"/>
<path d="M255.327 235.28C253.305 266.23 249.924 296.118 242.566 322.973V429.034" stroke="#064D3F" stroke-width="1.3974" stroke-linecap="round" stroke-linejoin="round"/>
<path d="M155.208 215.288C158.838 218.736 161.108 221.306 161.904 223.958C163.528 229.263 165.003 260.395 163.528 277.353" stroke="#064D3F" stroke-width="1.3974" stroke-linecap="round" stroke-linejoin="round"/>
<path d="M119.542 171.574C116.824 175.403 110.079 190.14 110.079 193.191C110.079 196.241 129.818 248.807 133.58 249.636C137.342 250.465 152.308 219.764 157.86 220.178C159.617 220.178 161.191 220.609 161.191 220.609C159.567 215.305 152.092 210.348 139.695 197.932C127.282 185.515 122.658 182.449 120.653 179.233C119.112 176.746 118.382 174.956 119.542 171.574Z" fill="#006147"/>
<path d="M211.01 92.998C211.01 92.998 203.685 134.226 198.647 144.769C193.608 155.312 179.173 164.661 175.063 167.711C170.953 170.762 150.816 168.54 146.756 165.474C142.695 162.407 124.282 153.306 119.244 140.028C114.206 126.733 110.079 89.0195 110.079 89.0195C116.808 83.3833 124.68 63.8056 132.022 50.8588C154.263 44.3108 177.018 45.9188 194.918 52.3508C199.16 55.2684 205.922 67.3034 211.01 92.998Z" fill="#FFD9B3"/>
<path d="M174.748 81.7919C176.306 80.2336 181.958 76.8021 187.079 76.023C192.2 75.2439 197.619 80.3331 195.366 81.3443C193.112 82.3555 191.819 79.6534 187.079 80.4325C182.339 81.2117 175.643 84.4608 174.185 84.9581C172.726 85.4554 173.191 83.3501 174.748 81.7919Z" fill="black"/>
<path d="M129.42 81.1288C131.111 79.7031 132.934 78.2775 138.121 78.2775C143.309 78.2775 153.75 83.118 151.264 84.7758C149.192 86.1517 142.099 81.8747 137.309 82.2726C132.52 82.6705 130.067 84.2453 128.575 84.6266C127.084 85.0078 127.746 82.5544 129.437 81.1122L129.42 81.1288Z" fill="black"/>
<path d="M172.229 111.167C172.229 111.167 175.096 118.361 173.008 120.45C170.92 122.539 166.926 124.329 166.926 124.329" stroke="#E2AD86" stroke-width="1.3974" stroke-linecap="round" stroke-linejoin="round"/>
<path d="M150.784 111.167C150.784 111.167 145.033 122.025 152.441 123.135" stroke="#E2AD86" stroke-width="1.3974" stroke-linecap="round" stroke-linejoin="round"/>
<path d="M154.678 121.561C154.678 121.561 157.711 121.013 161.025 124.329" stroke="#E2AD86" stroke-width="1.3974" stroke-linecap="round" stroke-linejoin="round"/>
<path d="M353.905 277.171C350.474 286.769 344.856 290.78 338.393 292.621" stroke="#E2AD86" stroke-width="1.3974" stroke-linecap="round" stroke-linejoin="round"/>
<path d="M372.368 285.294C372.368 285.294 378.599 283.371 384.201 280.271C388.725 277.767 392.405 274.435 394.162 272.678C396.465 270.374 398.785 267.407 400.691 264.191C401.371 263.047 402.564 262.085 403.807 261.538" stroke="#E2AD86" stroke-width="1.3974" stroke-linecap="round" stroke-linejoin="round"/>
<path d="M376.345 294.461C376.345 294.461 385.925 289.222 388.029 287.498C390.316 285.625 394.559 282.79 396.217 280.387C397.874 277.983 400.31 274.071 403.459 273.524C403.757 273.474 404.039 273.441 404.288 273.441" stroke="#E2AD86" stroke-width="1.3974" stroke-linecap="round" stroke-linejoin="round"/>
<path d="M363.617 305.12C368.489 302.335 374.903 301.224 382.775 301.523C386.256 299.517 393.266 296.085 394.692 294.643C396.117 293.201 398.222 286.802 401.072 284.746C401.603 284.365 402.663 283.453 403.426 283.205" stroke="#E2AD86" stroke-width="1.3974" stroke-linecap="round" stroke-linejoin="round"/>
<path d="M341.807 335.357C337.216 353.592 331.001 366.14 323.394 373.683C323.394 373.683 315.273 380.48 303.489 380.48C291.706 380.48 278.58 349.315 282.143 332.389C285.706 328.825 297.009 318.199 305.578 305.004C305.578 305.004 297.622 321.747 317.013 334.561C336.404 347.375 341.823 335.357 341.823 335.357H341.807Z" fill="#006147"/>
<path d="M174.052 100.01C174.052 100.01 176.472 94.175 183.151 91.6553C189.83 89.1355 194.57 94.1584 194.57 94.1584C194.57 94.1584 191.288 99.8113 184.593 101.038C177.897 102.265 174.052 99.9936 174.052 99.9936V100.01Z" fill="white"/>
<path d="M174.052 99.9771C172.909 100.557 175.312 93.3793 183.234 90.8927C191.156 88.4062 195.482 93.9264 194.868 94.5232C194.255 95.1199 190.609 90.1799 183.516 92.3018C177.251 93.9595 175.213 99.3968 174.052 99.9771Z" fill="black"/>
<path d="M188.968 91.3072C188.968 91.3072 190.36 98.8664 185.653 100.342C180.946 101.817 179.67 98.5514 179.388 97.5236C179.107 96.4958 179.388 93.8103 179.388 93.8103C179.388 93.8103 183.963 89.7655 188.951 91.3072H188.968Z" fill="black"/>
<path d="M127.697 97.5236C127.697 97.5236 133.945 90.7601 141.038 91.5061C148.132 92.2521 151.993 97.275 151.993 97.275C151.993 97.275 148.297 102.53 140.176 101.917C132.056 101.303 127.697 97.507 127.697 97.507V97.5236Z" fill="white"/>
<path d="M127.697 97.4573C126.553 98.0375 129.884 91.5227 138.121 90.3789C146.806 89.1687 153.435 96.8771 152.822 97.4905C152.209 98.1038 145.662 91.4066 137.773 92.6499C131.028 93.8766 128.824 96.8771 127.68 97.4573H127.697Z" fill="black"/>
<path d="M134.376 92.7162C134.376 92.7162 133.829 101.253 140.574 101.253C147.32 101.253 146.723 93.0146 146.723 93.0146C146.723 93.0146 144.668 91.4564 141.022 91.4564C137.376 91.4564 134.376 92.7328 134.376 92.7328V92.7162Z" fill="black"/>
<path d="M151.049 100.557C149.955 101.651 146.11 105.282 139.845 104.818C134.973 104.453 130.78 102.663 129.57 101.983C128.31 101.27 128.062 101.883 128.459 102.43C129.122 103.326 134.906 106.392 139.829 106.392C144.751 106.392 150.22 103.939 151.33 101.983C152.441 100.027 152.142 99.4631 151.049 100.557Z" fill="#F4BD98"/>
<path d="M193.691 99.0321C192.829 100.193 189.747 104.038 184.31 103.939C180.084 103.856 176.355 102.331 175.262 101.718C174.118 101.071 173.952 101.718 174.333 102.232C174.963 103.094 180.151 105.796 184.41 105.514C188.669 105.232 193.21 102.464 194.022 100.441C194.834 98.4188 194.553 97.8883 193.674 99.0321H193.691Z" fill="#F4BD98"/>
<path d="M144.851 138.552C144.851 138.552 154.662 136.182 157.181 137.607C159.7 139.033 161.374 140.177 162.717 139.845C164.059 139.514 166.197 137.16 168.418 137.16C170.639 137.16 176.091 140.624 178.229 140.624C180.367 140.624 171.749 148.93 162.882 148.217C154.016 147.504 145.795 140.16 144.851 138.569V138.552Z" fill="white"/>
<path d="M148.645 139.182C148.645 139.182 154.396 142.696 162.252 142.696C170.108 142.696 175.51 139.829 175.51 139.829L178.212 140.608C178.212 140.608 173.472 147.603 161.953 146.808C150.435 146.012 145.877 139.182 145.877 139.182H148.645Z" fill="#F2EAE7"/>
<path d="M144.502 139.829C146.292 140.492 153.253 138.9 156.103 139.431C158.954 139.961 159.451 141.95 162.898 141.95C166.346 141.95 166.611 139.945 169.263 139.431C171.914 138.917 177.002 142.73 179.422 141.287C181.842 139.845 182.024 137.79 180.284 138.602C178.544 139.414 177.234 139.331 176.091 138.569C173.456 136.812 170.257 133.927 168.45 133.927C165.848 133.927 164.92 136.679 162.898 136.679C160.877 136.679 159.236 133.927 156.65 133.927C154.794 133.927 151.347 135.734 148.413 137.093C147.253 137.64 145.032 137.707 143.889 136.961C142.745 136.215 142.696 139.182 144.502 139.845V139.829Z" fill="#E8A381"/>
<path d="M147.369 139.829C147.369 139.829 156.385 144.852 162.086 144.852C167.787 144.852 176.986 141.055 176.986 141.055L179.422 141.287C179.422 141.287 172.56 151.018 161.788 150.455C151.015 149.891 144.502 139.829 144.502 139.829H147.369Z" fill="#E8A381"/>
<path d="M292.633 450.9L114.04 459.188V321.929L292.633 313.64V450.9Z" fill="#064D3F"/>
<path d="M210.746 396.543C216.393 396.543 220.971 391.021 220.971 384.21C220.971 377.398 216.393 371.876 210.746 371.876C205.098 371.876 200.52 377.398 200.52 384.21C200.52 391.021 205.098 396.543 210.746 396.543Z" fill="#FBD300"/>
<g opacity="0.3">
<mask id="mask0_714_1474" style="mask-type:alpha" maskUnits="userSpaceOnUse" x="293" y="10" width="9" height="9">
<path d="M297.228 18.4306C299.563 18.4306 301.456 16.5433 301.456 14.2153C301.456 11.8872 299.563 10 297.228 10C294.893 10 293 11.8872 293 14.2153C293 16.5433 294.893 18.4306 297.228 18.4306Z" fill="url(#paint1_linear_714_1474)"/>
</mask>
<g mask="url(#mask0_714_1474)">
<path d="M297.228 18.4306C299.563 18.4306 301.456 16.5433 301.456 14.2153C301.456 11.8872 299.563 10 297.228 10C294.893 10 293 11.8872 293 14.2153C293 16.5433 294.893 18.4306 297.228 18.4306Z" fill="#064D3F"/>
</g>
<mask id="mask1_714_1474" style="mask-type:alpha" maskUnits="userSpaceOnUse" x="317" y="10" width="9" height="9">
<path d="M321.716 18.4306C324.052 18.4306 325.945 16.5433 325.945 14.2153C325.945 11.8872 324.052 10 321.716 10C319.381 10 317.488 11.8872 317.488 14.2153C317.488 16.5433 319.381 18.4306 321.716 18.4306Z" fill="url(#paint2_linear_714_1474)"/>
</mask>
<g mask="url(#mask1_714_1474)">
<path d="M321.716 18.4306C324.052 18.4306 325.945 16.5433 325.945 14.2153C325.945 11.8872 324.052 10 321.716 10C319.381 10 317.488 11.8872 317.488 14.2153C317.488 16.5433 319.381 18.4306 321.716 18.4306Z" fill="#064D3F"/>
</g>
<mask id="mask2_714_1474" style="mask-type:alpha" maskUnits="userSpaceOnUse" x="341" y="10" width="10" height="9">
<path d="M346.204 18.4306C348.539 18.4306 350.432 16.5433 350.432 14.2153C350.432 11.8872 348.539 10 346.204 10C343.869 10 341.976 11.8872 341.976 14.2153C341.976 16.5433 343.869 18.4306 346.204 18.4306Z" fill="url(#paint3_linear_714_1474)"/>
</mask>
<g mask="url(#mask2_714_1474)">
<path d="M346.204 18.4306C348.539 18.4306 350.432 16.5433 350.432 14.2153C350.432 11.8872 348.539 10 346.204 10C343.869 10 341.976 11.8872 341.976 14.2153C341.976 16.5433 343.869 18.4306 346.204 18.4306Z" fill="#064D3F"/>
</g>
<mask id="mask3_714_1474" style="mask-type:alpha" maskUnits="userSpaceOnUse" x="366" y="10" width="9" height="9">
<path d="M370.693 18.4306C373.028 18.4306 374.921 16.5433 374.921 14.2153C374.921 11.8872 373.028 10 370.693 10C368.357 10 366.464 11.8872 366.464 14.2153C366.464 16.5433 368.357 18.4306 370.693 18.4306Z" fill="url(#paint4_linear_714_1474)"/>
</mask>
<g mask="url(#mask3_714_1474)">
<path d="M370.693 18.4306C373.028 18.4306 374.921 16.5433 374.921 14.2153C374.921 11.8872 373.028 10 370.693 10C368.357 10 366.464 11.8872 366.464 14.2153C366.464 16.5433 368.357 18.4306 370.693 18.4306Z" fill="#064D3F"/>
</g>
<mask id="mask4_714_1474" style="mask-type:alpha" maskUnits="userSpaceOnUse" x="390" y="10" width="10" height="9">
<path d="M395.181 18.4306C397.516 18.4306 399.409 16.5433 399.409 14.2153C399.409 11.8872 397.516 10 395.181 10C392.846 10 390.953 11.8872 390.953 14.2153C390.953 16.5433 392.846 18.4306 395.181 18.4306Z" fill="url(#paint5_linear_714_1474)"/>
</mask>
<g mask="url(#mask4_714_1474)">
<path d="M395.181 18.4306C397.516 18.4306 399.409 16.5433 399.409 14.2153C399.409 11.8872 397.516 10 395.181 10C392.846 10 390.953 11.8872 390.953 14.2153C390.953 16.5433 392.846 18.4306 395.181 18.4306Z" fill="#064D3F"/>
</g>
<mask id="mask5_714_1474" style="mask-type:alpha" maskUnits="userSpaceOnUse" x="293" y="31" width="9" height="9">
<path d="M297.228 39.5949C299.563 39.5949 301.456 37.7076 301.456 35.3796C301.456 33.0516 299.563 31.1643 297.228 31.1643C294.893 31.1643 293 33.0516 293 35.3796C293 37.7076 294.893 39.5949 297.228 39.5949Z" fill="url(#paint6_linear_714_1474)"/>
</mask>
<g mask="url(#mask5_714_1474)">
<path d="M297.228 39.5949C299.563 39.5949 301.456 37.7076 301.456 35.3796C301.456 33.0516 299.563 31.1643 297.228 31.1643C294.893 31.1643 293 33.0516 293 35.3796C293 37.7076 294.893 39.5949 297.228 39.5949Z" fill="#064D3F"/>
</g>
<mask id="mask6_714_1474" style="mask-type:alpha" maskUnits="userSpaceOnUse" x="317" y="31" width="9" height="9">
<path d="M321.716 39.5949C324.052 39.5949 325.945 37.7076 325.945 35.3796C325.945 33.0516 324.052 31.1643 321.716 31.1643C319.381 31.1643 317.488 33.0516 317.488 35.3796C317.488 37.7076 319.381 39.5949 321.716 39.5949Z" fill="url(#paint7_linear_714_1474)"/>
</mask>
<g mask="url(#mask6_714_1474)">
<path d="M321.716 39.5949C324.052 39.5949 325.945 37.7076 325.945 35.3796C325.945 33.0516 324.052 31.1643 321.716 31.1643C319.381 31.1643 317.488 33.0516 317.488 35.3796C317.488 37.7076 319.381 39.5949 321.716 39.5949Z" fill="#064D3F"/>
</g>
<mask id="mask7_714_1474" style="mask-type:alpha" maskUnits="userSpaceOnUse" x="341" y="31" width="10" height="9">
<path d="M346.204 39.5949C348.539 39.5949 350.432 37.7076 350.432 35.3796C350.432 33.0516 348.539 31.1643 346.204 31.1643C343.869 31.1643 341.976 33.0516 341.976 35.3796C341.976 37.7076 343.869 39.5949 346.204 39.5949Z" fill="url(#paint8_linear_714_1474)"/>
</mask>
<g mask="url(#mask7_714_1474)">
<path d="M346.204 39.5949C348.539 39.5949 350.432 37.7076 350.432 35.3796C350.432 33.0516 348.539 31.1643 346.204 31.1643C343.869 31.1643 341.976 33.0516 341.976 35.3796C341.976 37.7076 343.869 39.5949 346.204 39.5949Z" fill="#064D3F"/>
</g>
<mask id="mask8_714_1474" style="mask-type:alpha" maskUnits="userSpaceOnUse" x="366" y="31" width="9" height="9">
<path d="M370.693 39.5949C373.028 39.5949 374.921 37.7076 374.921 35.3796C374.921 33.0516 373.028 31.1643 370.693 31.1643C368.357 31.1643 366.464 33.0516 366.464 35.3796C366.464 37.7076 368.357 39.5949 370.693 39.5949Z" fill="url(#paint9_linear_714_1474)"/>
</mask>
<g mask="url(#mask8_714_1474)">
<path d="M370.693 39.5949C373.028 39.5949 374.921 37.7076 374.921 35.3796C374.921 33.0516 373.028 31.1643 370.693 31.1643C368.357 31.1643 366.464 33.0516 366.464 35.3796C366.464 37.7076 368.357 39.5949 370.693 39.5949Z" fill="#064D3F"/>
</g>
<mask id="mask9_714_1474" style="mask-type:alpha" maskUnits="userSpaceOnUse" x="390" y="31" width="10" height="9">
<path d="M395.181 39.5949C397.516 39.5949 399.409 37.7076 399.409 35.3796C399.409 33.0516 397.516 31.1643 395.181 31.1643C392.846 31.1643 390.953 33.0516 390.953 35.3796C390.953 37.7076 392.846 39.5949 395.181 39.5949Z" fill="url(#paint10_linear_714_1474)"/>
</mask>
<g mask="url(#mask9_714_1474)">
<path d="M395.181 39.5949C397.516 39.5949 399.409 37.7076 399.409 35.3796C399.409 33.0516 397.516 31.1643 395.181 31.1643C392.846 31.1643 390.953 33.0516 390.953 35.3796C390.953 37.7076 392.846 39.5949 395.181 39.5949Z" fill="#064D3F"/>
</g>
<mask id="mask10_714_1474" style="mask-type:alpha" maskUnits="userSpaceOnUse" x="293" y="52" width="9" height="9">
<path d="M297.228 60.7153C299.563 60.7153 301.456 58.8281 301.456 56.5C301.456 54.172 299.563 52.2847 297.228 52.2847C294.893 52.2847 293 54.172 293 56.5C293 58.8281 294.893 60.7153 297.228 60.7153Z" fill="url(#paint11_linear_714_1474)"/>
</mask>
<g mask="url(#mask10_714_1474)">
<path d="M297.228 60.7153C299.563 60.7153 301.456 58.8281 301.456 56.5C301.456 54.172 299.563 52.2847 297.228 52.2847C294.893 52.2847 293 54.172 293 56.5C293 58.8281 294.893 60.7153 297.228 60.7153Z" fill="#064D3F"/>
</g>
<mask id="mask11_714_1474" style="mask-type:alpha" maskUnits="userSpaceOnUse" x="317" y="52" width="9" height="9">
<path d="M321.716 60.7153C324.052 60.7153 325.945 58.8281 325.945 56.5C325.945 54.172 324.052 52.2847 321.716 52.2847C319.381 52.2847 317.488 54.172 317.488 56.5C317.488 58.8281 319.381 60.7153 321.716 60.7153Z" fill="url(#paint12_linear_714_1474)"/>
</mask>
<g mask="url(#mask11_714_1474)">
<path d="M321.716 60.7153C324.052 60.7153 325.945 58.8281 325.945 56.5C325.945 54.172 324.052 52.2847 321.716 52.2847C319.381 52.2847 317.488 54.172 317.488 56.5C317.488 58.8281 319.381 60.7153 321.716 60.7153Z" fill="#064D3F"/>
</g>
<mask id="mask12_714_1474" style="mask-type:alpha" maskUnits="userSpaceOnUse" x="341" y="52" width="10" height="9">
<path d="M346.204 60.7153C348.539 60.7153 350.432 58.8281 350.432 56.5C350.432 54.172 348.539 52.2847 346.204 52.2847C343.869 52.2847 341.976 54.172 341.976 56.5C341.976 58.8281 343.869 60.7153 346.204 60.7153Z" fill="url(#paint13_linear_714_1474)"/>
</mask>
<g mask="url(#mask12_714_1474)">
<path d="M346.204 60.7153C348.539 60.7153 350.432 58.8281 350.432 56.5C350.432 54.172 348.539 52.2847 346.204 52.2847C343.869 52.2847 341.976 54.172 341.976 56.5C341.976 58.8281 343.869 60.7153 346.204 60.7153Z" fill="#064D3F"/>
</g>
<mask id="mask13_714_1474" style="mask-type:alpha" maskUnits="userSpaceOnUse" x="366" y="52" width="9" height="9">
<path d="M370.693 60.7153C373.028 60.7153 374.921 58.8281 374.921 56.5C374.921 54.172 373.028 52.2847 370.693 52.2847C368.357 52.2847 366.464 54.172 366.464 56.5C366.464 58.8281 368.357 60.7153 370.693 60.7153Z" fill="url(#paint14_linear_714_1474)"/>
</mask>
<g mask="url(#mask13_714_1474)">
<path d="M370.693 60.7153C373.028 60.7153 374.921 58.8281 374.921 56.5C374.921 54.172 373.028 52.2847 370.693 52.2847C368.357 52.2847 366.464 54.172 366.464 56.5C366.464 58.8281 368.357 60.7153 370.693 60.7153Z" fill="#064D3F"/>
</g>
<mask id="mask14_714_1474" style="mask-type:alpha" maskUnits="userSpaceOnUse" x="390" y="52" width="10" height="9">
<path d="M395.181 60.7153C397.516 60.7153 399.409 58.8281 399.409 56.5C399.409 54.172 397.516 52.2847 395.181 52.2847C392.846 52.2847 390.953 54.172 390.953 56.5C390.953 58.8281 392.846 60.7153 395.181 60.7153Z" fill="url(#paint15_linear_714_1474)"/>
</mask>
<g mask="url(#mask14_714_1474)">
<path d="M395.181 60.7153C397.516 60.7153 399.409 58.8281 399.409 56.5C399.409 54.172 397.516 52.2847 395.181 52.2847C392.846 52.2847 390.953 54.172 390.953 56.5C390.953 58.8281 392.846 60.7153 395.181 60.7153Z" fill="#064D3F"/>
</g>
<mask id="mask15_714_1474" style="mask-type:alpha" maskUnits="userSpaceOnUse" x="293" y="73" width="9" height="9">
<path d="M297.228 81.8796C299.563 81.8796 301.456 79.9923 301.456 77.6643C301.456 75.3362 299.563 73.449 297.228 73.449C294.893 73.449 293 75.3362 293 77.6643C293 79.9923 294.893 81.8796 297.228 81.8796Z" fill="url(#paint16_linear_714_1474)"/>
</mask>
<g mask="url(#mask15_714_1474)">
<path d="M297.228 81.8796C299.563 81.8796 301.456 79.9923 301.456 77.6643C301.456 75.3362 299.563 73.449 297.228 73.449C294.893 73.449 293 75.3362 293 77.6643C293 79.9923 294.893 81.8796 297.228 81.8796Z" fill="#064D3F"/>
</g>
<mask id="mask16_714_1474" style="mask-type:alpha" maskUnits="userSpaceOnUse" x="317" y="73" width="9" height="9">
<path d="M321.716 81.8796C324.052 81.8796 325.945 79.9923 325.945 77.6643C325.945 75.3362 324.052 73.449 321.716 73.449C319.381 73.449 317.488 75.3362 317.488 77.6643C317.488 79.9923 319.381 81.8796 321.716 81.8796Z" fill="url(#paint17_linear_714_1474)"/>
</mask>
<g mask="url(#mask16_714_1474)">
<path d="M321.716 81.8796C324.052 81.8796 325.945 79.9923 325.945 77.6643C325.945 75.3362 324.052 73.449 321.716 73.449C319.381 73.449 317.488 75.3362 317.488 77.6643C317.488 79.9923 319.381 81.8796 321.716 81.8796Z" fill="#064D3F"/>
</g>
<mask id="mask17_714_1474" style="mask-type:alpha" maskUnits="userSpaceOnUse" x="341" y="73" width="10" height="9">
<path d="M346.204 81.8796C348.539 81.8796 350.432 79.9923 350.432 77.6643C350.432 75.3362 348.539 73.449 346.204 73.449C343.869 73.449 341.976 75.3362 341.976 77.6643C341.976 79.9923 343.869 81.8796 346.204 81.8796Z" fill="url(#paint18_linear_714_1474)"/>
</mask>
<g mask="url(#mask17_714_1474)">
<path d="M346.204 81.8796C348.539 81.8796 350.432 79.9923 350.432 77.6643C350.432 75.3362 348.539 73.449 346.204 73.449C343.869 73.449 341.976 75.3362 341.976 77.6643C341.976 79.9923 343.869 81.8796 346.204 81.8796Z" fill="#064D3F"/>
</g>
<mask id="mask18_714_1474" style="mask-type:alpha" maskUnits="userSpaceOnUse" x="366" y="73" width="9" height="9">
<path d="M370.693 81.8796C373.028 81.8796 374.921 79.9923 374.921 77.6643C374.921 75.3362 373.028 73.449 370.693 73.449C368.357 73.449 366.464 75.3362 366.464 77.6643C366.464 79.9923 368.357 81.8796 370.693 81.8796Z" fill="url(#paint19_linear_714_1474)"/>
</mask>
<g mask="url(#mask18_714_1474)">
<path d="M370.693 81.8796C373.028 81.8796 374.921 79.9923 374.921 77.6643C374.921 75.3362 373.028 73.449 370.693 73.449C368.357 73.449 366.464 75.3362 366.464 77.6643C366.464 79.9923 368.357 81.8796 370.693 81.8796Z" fill="#064D3F"/>
</g>
<mask id="mask19_714_1474" style="mask-type:alpha" maskUnits="userSpaceOnUse" x="390" y="73" width="10" height="9">
<path d="M395.181 81.8796C397.516 81.8796 399.409 79.9923 399.409 77.6643C399.409 75.3362 397.516 73.449 395.181 73.449C392.846 73.449 390.953 75.3362 390.953 77.6643C390.953 79.9923 392.846 81.8796 395.181 81.8796Z" fill="url(#paint20_linear_714_1474)"/>
</mask>
<g mask="url(#mask19_714_1474)">
<path d="M395.181 81.8796C397.516 81.8796 399.409 79.9923 399.409 77.6643C399.409 75.3362 397.516 73.449 395.181 73.449C392.846 73.449 390.953 75.3362 390.953 77.6643C390.953 79.9923 392.846 81.8796 395.181 81.8796Z" fill="#064D3F"/>
</g>
<mask id="mask20_714_1474" style="mask-type:alpha" maskUnits="userSpaceOnUse" x="293" y="94" width="9" height="9">
<path d="M297.228 103C299.563 103 301.456 101.113 301.456 98.7847C301.456 96.4567 299.563 94.5694 297.228 94.5694C294.893 94.5694 293 96.4567 293 98.7847C293 101.113 294.893 103 297.228 103Z" fill="url(#paint21_linear_714_1474)"/>
</mask>
<g mask="url(#mask20_714_1474)">
<path d="M297.228 103C299.563 103 301.456 101.113 301.456 98.7847C301.456 96.4567 299.563 94.5694 297.228 94.5694C294.893 94.5694 293 96.4567 293 98.7847C293 101.113 294.893 103 297.228 103Z" fill="#064D3F"/>
</g>
<mask id="mask21_714_1474" style="mask-type:alpha" maskUnits="userSpaceOnUse" x="317" y="94" width="9" height="9">
<path d="M321.716 103C324.052 103 325.945 101.113 325.945 98.7847C325.945 96.4567 324.052 94.5694 321.716 94.5694C319.381 94.5694 317.488 96.4567 317.488 98.7847C317.488 101.113 319.381 103 321.716 103Z" fill="url(#paint22_linear_714_1474)"/>
</mask>
<g mask="url(#mask21_714_1474)">
<path d="M321.716 103C324.052 103 325.945 101.113 325.945 98.7847C325.945 96.4567 324.052 94.5694 321.716 94.5694C319.381 94.5694 317.488 96.4567 317.488 98.7847C317.488 101.113 319.381 103 321.716 103Z" fill="#064D3F"/>
</g>
<mask id="mask22_714_1474" style="mask-type:alpha" maskUnits="userSpaceOnUse" x="341" y="94" width="10" height="9">
<path d="M346.204 103C348.539 103 350.432 101.113 350.432 98.7847C350.432 96.4567 348.539 94.5694 346.204 94.5694C343.869 94.5694 341.976 96.4567 341.976 98.7847C341.976 101.113 343.869 103 346.204 103Z" fill="url(#paint23_linear_714_1474)"/>
</mask>
<g mask="url(#mask22_714_1474)">
<path d="M346.204 103C348.539 103 350.432 101.113 350.432 98.7847C350.432 96.4567 348.539 94.5694 346.204 94.5694C343.869 94.5694 341.976 96.4567 341.976 98.7847C341.976 101.113 343.869 103 346.204 103Z" fill="#064D3F"/>
</g>
<mask id="mask23_714_1474" style="mask-type:alpha" maskUnits="userSpaceOnUse" x="366" y="94" width="9" height="9">
<path d="M370.693 103C373.028 103 374.921 101.113 374.921 98.7847C374.921 96.4567 373.028 94.5694 370.693 94.5694C368.357 94.5694 366.464 96.4567 366.464 98.7847C366.464 101.113 368.357 103 370.693 103Z" fill="url(#paint24_linear_714_1474)"/>
</mask>
<g mask="url(#mask23_714_1474)">
<path d="M370.693 103C373.028 103 374.921 101.113 374.921 98.7847C374.921 96.4567 373.028 94.5694 370.693 94.5694C368.357 94.5694 366.464 96.4567 366.464 98.7847C366.464 101.113 368.357 103 370.693 103Z" fill="#064D3F"/>
</g>
<mask id="mask24_714_1474" style="mask-type:alpha" maskUnits="userSpaceOnUse" x="390" y="94" width="10" height="9">
<path d="M395.181 103C397.516 103 399.409 101.113 399.409 98.7847C399.409 96.4567 397.516 94.5694 395.181 94.5694C392.846 94.5694 390.953 96.4567 390.953 98.7847C390.953 101.113 392.846 103 395.181 103Z" fill="url(#paint25_linear_714_1474)"/>
</mask>
<g mask="url(#mask24_714_1474)">
<path d="M395.181 103C397.516 103 399.409 101.113 399.409 98.7847C399.409 96.4567 397.516 94.5694 395.181 94.5694C392.846 94.5694 390.953 96.4567 390.953 98.7847C390.953 101.113 392.846 103 395.181 103Z" fill="#064D3F"/>
</g>
</g>
</g>
<defs>
<linearGradient id="paint0_linear_714_1474" x1="234.5" y1="51" x2="234.5" y2="423" gradientUnits="userSpaceOnUse">
<stop stop-color="#038C34"/>
<stop offset="1" stop-color="#01260E"/>
</linearGradient>
<linearGradient id="paint1_linear_714_1474" x1="337.475" y1="116.047" x2="279.733" y2="-30.9766" gradientUnits="userSpaceOnUse">
<stop/>
<stop offset="1" stop-color="white"/>
</linearGradient>
<linearGradient id="paint2_linear_714_1474" x1="358.667" y1="107.725" x2="300.924" y2="-39.2991" gradientUnits="userSpaceOnUse">
<stop/>
<stop offset="1" stop-color="white"/>
</linearGradient>
<linearGradient id="paint3_linear_714_1474" x1="379.858" y1="99.4023" x2="322.115" y2="-47.6216" gradientUnits="userSpaceOnUse">
<stop/>
<stop offset="1" stop-color="white"/>
</linearGradient>
<linearGradient id="paint4_linear_714_1474" x1="401.049" y1="91.0794" x2="343.307" y2="-55.9446" gradientUnits="userSpaceOnUse">
<stop/>
<stop offset="1" stop-color="white"/>
</linearGradient>
<linearGradient id="paint5_linear_714_1474" x1="422.24" y1="82.7567" x2="364.498" y2="-64.2673" gradientUnits="userSpaceOnUse">
<stop/>
<stop offset="1" stop-color="white"/>
</linearGradient>
<linearGradient id="paint6_linear_714_1474" x1="330.244" y1="118.887" x2="272.502" y2="-28.1357" gradientUnits="userSpaceOnUse">
<stop/>
<stop offset="1" stop-color="white"/>
</linearGradient>
<linearGradient id="paint7_linear_714_1474" x1="351.435" y1="110.564" x2="293.694" y2="-36.4588" gradientUnits="userSpaceOnUse">
<stop/>
<stop offset="1" stop-color="white"/>
</linearGradient>
<linearGradient id="paint8_linear_714_1474" x1="372.626" y1="102.241" x2="314.885" y2="-44.7813" gradientUnits="userSpaceOnUse">
<stop/>
<stop offset="1" stop-color="white"/>
</linearGradient>
<linearGradient id="paint9_linear_714_1474" x1="393.817" y1="93.919" x2="336.076" y2="-53.104" gradientUnits="userSpaceOnUse">
<stop/>
<stop offset="1" stop-color="white"/>
</linearGradient>
<linearGradient id="paint10_linear_714_1474" x1="415.009" y1="85.5964" x2="357.268" y2="-61.4265" gradientUnits="userSpaceOnUse">
<stop/>
<stop offset="1" stop-color="white"/>
</linearGradient>
<linearGradient id="paint11_linear_714_1474" x1="323.012" y1="121.728" x2="265.27" y2="-25.2962" gradientUnits="userSpaceOnUse">
<stop/>
<stop offset="1" stop-color="white"/>
</linearGradient>
<linearGradient id="paint12_linear_714_1474" x1="344.203" y1="113.405" x2="286.461" y2="-33.6189" gradientUnits="userSpaceOnUse">
<stop/>
<stop offset="1" stop-color="white"/>
</linearGradient>
<linearGradient id="paint13_linear_714_1474" x1="365.394" y1="105.082" x2="307.652" y2="-41.9415" gradientUnits="userSpaceOnUse">
<stop/>
<stop offset="1" stop-color="white"/>
</linearGradient>
<linearGradient id="paint14_linear_714_1474" x1="386.586" y1="96.7596" x2="328.843" y2="-50.2644" gradientUnits="userSpaceOnUse">
<stop/>
<stop offset="1" stop-color="white"/>
</linearGradient>
<linearGradient id="paint15_linear_714_1474" x1="407.777" y1="88.4369" x2="350.035" y2="-58.5871" gradientUnits="userSpaceOnUse">
<stop/>
<stop offset="1" stop-color="white"/>
</linearGradient>
<linearGradient id="paint16_linear_714_1474" x1="315.78" y1="124.568" x2="258.038" y2="-22.4561" gradientUnits="userSpaceOnUse">
<stop/>
<stop offset="1" stop-color="white"/>
</linearGradient>
<linearGradient id="paint17_linear_714_1474" x1="336.972" y1="116.245" x2="279.229" y2="-30.7788" gradientUnits="userSpaceOnUse">
<stop/>
<stop offset="1" stop-color="white"/>
</linearGradient>
<linearGradient id="paint18_linear_714_1474" x1="358.163" y1="107.922" x2="300.42" y2="-39.1014" gradientUnits="userSpaceOnUse">
<stop/>
<stop offset="1" stop-color="white"/>
</linearGradient>
<linearGradient id="paint19_linear_714_1474" x1="379.354" y1="99.5998" x2="321.612" y2="-47.4242" gradientUnits="userSpaceOnUse">
<stop/>
<stop offset="1" stop-color="white"/>
</linearGradient>
<linearGradient id="paint20_linear_714_1474" x1="400.545" y1="91.2771" x2="342.803" y2="-55.747" gradientUnits="userSpaceOnUse">
<stop/>
<stop offset="1" stop-color="white"/>
</linearGradient>
<linearGradient id="paint21_linear_714_1474" x1="308.548" y1="127.408" x2="250.806" y2="-19.6159" gradientUnits="userSpaceOnUse">
<stop/>
<stop offset="1" stop-color="white"/>
</linearGradient>
<linearGradient id="paint22_linear_714_1474" x1="329.74" y1="119.085" x2="271.998" y2="-27.9386" gradientUnits="userSpaceOnUse">
<stop/>
<stop offset="1" stop-color="white"/>
</linearGradient>
<linearGradient id="paint23_linear_714_1474" x1="350.931" y1="110.763" x2="293.189" y2="-36.2612" gradientUnits="userSpaceOnUse">
<stop/>
<stop offset="1" stop-color="white"/>
</linearGradient>
<linearGradient id="paint24_linear_714_1474" x1="372.122" y1="102.44" x2="314.38" y2="-44.584" gradientUnits="userSpaceOnUse">
<stop/>
<stop offset="1" stop-color="white"/>
</linearGradient>
<linearGradient id="paint25_linear_714_1474" x1="393.314" y1="94.1173" x2="335.572" y2="-52.9067" gradientUnits="userSpaceOnUse">
<stop/>
<stop offset="1" stop-color="white"/>
</linearGradient>
<clipPath id="clip0_714_1474">
<rect width="408" height="459.188" fill="white"/>
</clipPath>
</defs>
</svg>
