<svg width="554" height="194" viewBox="0 0 554 194" fill="none" xmlns="http://www.w3.org/2000/svg">
<path d="M494.278 121L492.385 124.601L496.395 123.913L499.235 126.827L499.82 122.801L503.469 121L499.82 119.199L499.235 115.173L496.395 118.087L492.385 117.398L494.278 121Z" fill="#65B03A"/>
<g clip-path="url(#clip0_515_9588)">
<path d="M384.576 187.524L383.089 190.353L386.239 189.812L388.47 192.102L388.93 188.939L391.797 187.524L388.93 186.109L388.47 182.945L386.239 185.235L383.089 184.694L384.576 187.524Z" fill="#65B03A"/>
</g>
<g clip-path="url(#clip1_515_9588)">
<path d="M461.564 69.5001C461.564 71.111 462.87 72.4167 464.481 72.4167C466.091 72.4167 467.397 71.111 467.397 69.5001C467.397 67.8892 466.091 66.5834 464.481 66.5834C462.87 66.5834 461.564 67.8892 461.564 69.5001Z" fill="#65B03A"/>
</g>
<g clip-path="url(#clip2_515_9588)">
<path d="M435.805 12.0001C435.805 14.3013 437.671 16.1667 439.972 16.1667C442.273 16.1667 444.139 14.3013 444.139 12.0001C444.139 9.69883 442.273 7.83341 439.972 7.83341C437.671 7.83341 435.805 9.69883 435.805 12.0001Z" fill="#65B03A"/>
</g>
<g clip-path="url(#clip3_515_9588)">
<path d="M543.886 151.5C543.886 154.031 545.938 156.083 548.47 156.083C551.001 156.083 553.053 154.031 553.053 151.5C553.053 148.969 551.001 146.917 548.47 146.917C545.938 146.917 543.886 148.969 543.886 151.5Z" fill="#65B03A"/>
</g>
<g clip-path="url(#clip4_515_9588)">
<path d="M289.322 177.024C289.322 177.944 290.068 178.69 290.989 178.69C291.909 178.69 292.655 177.944 292.655 177.024C292.655 176.103 291.909 175.357 290.989 175.357C290.068 175.357 289.322 176.103 289.322 177.024Z" fill="#65B03A"/>
</g>
<g clip-path="url(#clip5_515_9588)">
<path d="M252.564 57.5001C252.564 59.111 253.87 60.4167 255.481 60.4167C257.092 60.4167 258.398 59.111 258.398 57.5001C258.398 55.8892 257.092 54.5834 255.481 54.5834C253.87 54.5834 252.564 55.8892 252.564 57.5001Z" fill="#65B03A"/>
</g>
<g clip-path="url(#clip6_515_9588)">
<path d="M521.483 3C521.483 4.38075 522.602 5.5 523.983 5.5C525.364 5.5 526.483 4.38075 526.483 3C526.483 1.61925 525.364 0.5 523.983 0.5C522.602 0.5 521.483 1.61925 521.483 3Z" fill="#65B03A"/>
</g>
<path d="M419.875 142.648H423C423.165 142.648 423.324 142.714 423.441 142.831C423.559 142.949 423.625 143.108 423.625 143.273C423.625 143.439 423.559 143.598 423.441 143.715C423.324 143.833 423.165 143.898 423 143.898H419.875V147.023C419.875 147.189 419.809 147.348 419.691 147.465C419.574 147.583 419.415 147.648 419.25 147.648C419.084 147.648 418.925 147.583 418.808 147.465C418.69 147.348 418.625 147.189 418.625 147.023V143.898H415.5C415.334 143.898 415.175 143.833 415.058 143.715C414.94 143.598 414.875 143.439 414.875 143.273C414.875 143.108 414.94 142.949 415.058 142.831C415.175 142.714 415.334 142.648 415.5 142.648H418.625V139.523C418.625 139.358 418.69 139.199 418.808 139.081C418.925 138.964 419.084 138.898 419.25 138.898C419.415 138.898 419.574 138.964 419.691 139.081C419.809 139.199 419.875 139.358 419.875 139.523V142.648Z" fill="#65B03A"/>
<path d="M348.199 159.557H349.866C349.955 159.557 350.039 159.592 350.102 159.654C350.164 159.717 350.199 159.802 350.199 159.89C350.199 159.978 350.164 160.063 350.102 160.126C350.039 160.188 349.955 160.223 349.866 160.223H348.199V161.89C348.199 161.978 348.164 162.063 348.102 162.126C348.039 162.188 347.955 162.223 347.866 162.223C347.778 162.223 347.693 162.188 347.63 162.126C347.568 162.063 347.533 161.978 347.533 161.89V160.223H345.866C345.778 160.223 345.693 160.188 345.63 160.126C345.568 160.063 345.533 159.978 345.533 159.89C345.533 159.802 345.568 159.717 345.63 159.654C345.693 159.592 345.778 159.557 345.866 159.557H347.533V157.89C347.533 157.802 347.568 157.717 347.63 157.654C347.693 157.592 347.778 157.557 347.866 157.557C347.955 157.557 348.039 157.592 348.102 157.654C348.164 157.717 348.199 157.802 348.199 157.89V159.557Z" fill="#65B03A"/>
<g clip-path="url(#clip7_515_9588)">
<path d="M312.483 103.024C312.483 104.405 313.602 105.524 314.983 105.524C316.364 105.524 317.483 104.405 317.483 103.024C317.483 101.644 316.364 100.524 314.983 100.524C313.602 100.524 312.483 101.644 312.483 103.024Z" fill="#65B03A"/>
</g>
<path d="M403.299 60.2991H405.799C405.932 60.2991 406.059 60.3518 406.153 60.4455C406.246 60.5393 406.299 60.6665 406.299 60.7991C406.299 60.9317 406.246 61.0589 406.153 61.1526C406.059 61.2464 405.932 61.2991 405.799 61.2991H403.299V63.7991C403.299 63.9317 403.246 64.0589 403.153 64.1526C403.059 64.2464 402.932 64.2991 402.799 64.2991C402.666 64.2991 402.539 64.2464 402.446 64.1526C402.352 64.0589 402.299 63.9317 402.299 63.7991V61.2991H399.799C399.666 61.2991 399.539 61.2464 399.446 61.1526C399.352 61.0589 399.299 60.9317 399.299 60.7991C399.299 60.6665 399.352 60.5393 399.446 60.4455C399.539 60.3518 399.666 60.2991 399.799 60.2991H402.299V57.7991C402.299 57.6665 402.352 57.5393 402.446 57.4455C402.539 57.3518 402.666 57.2991 402.799 57.2991C402.932 57.2991 403.059 57.3518 403.153 57.4455C403.246 57.5393 403.299 57.6665 403.299 57.7991V60.2991Z" fill="#65B03A"/>
<path d="M164.52 57.2507L165.257 56.5142C165.276 56.4943 165.299 56.4785 165.325 56.4676C165.35 56.4566 165.377 56.4509 165.405 56.4506C165.433 56.4504 165.46 56.4557 165.486 56.4662C165.511 56.4766 165.535 56.4921 165.554 56.5117C165.574 56.5312 165.589 56.5545 165.6 56.5801C165.61 56.6057 165.615 56.6331 165.615 56.6608C165.615 56.6884 165.609 56.7158 165.598 56.7412C165.587 56.7666 165.572 56.7896 165.552 56.8088L164.815 57.5455L165.552 58.282C165.572 58.3012 165.587 58.3242 165.598 58.3496C165.609 58.375 165.615 58.4023 165.615 58.43C165.615 58.4577 165.61 58.4851 165.6 58.5107C165.589 58.5363 165.574 58.5596 165.554 58.5791C165.535 58.5987 165.511 58.6141 165.486 58.6246C165.46 58.6351 165.433 58.6404 165.405 58.6401C165.377 58.6399 165.35 58.6341 165.325 58.6232C165.299 58.6123 165.276 58.5964 165.257 58.5765L164.521 57.8401L163.784 58.5765C163.765 58.5964 163.742 58.6123 163.716 58.6232C163.691 58.6341 163.664 58.6399 163.636 58.6401C163.608 58.6404 163.581 58.6351 163.555 58.6246C163.53 58.6141 163.506 58.5987 163.487 58.5791C163.467 58.5596 163.452 58.5363 163.441 58.5107C163.431 58.4851 163.426 58.4577 163.426 58.43C163.426 58.4023 163.432 58.375 163.443 58.3496C163.454 58.3242 163.469 58.3012 163.489 58.282L164.226 57.5455L163.489 56.8088C163.469 56.7896 163.454 56.7666 163.443 56.7412C163.432 56.7158 163.426 56.6884 163.426 56.6608C163.426 56.6331 163.431 56.6057 163.441 56.5801C163.452 56.5545 163.467 56.5312 163.487 56.5117C163.506 56.4921 163.53 56.4766 163.555 56.4662C163.581 56.4557 163.608 56.4504 163.636 56.4506C163.664 56.4509 163.691 56.4566 163.716 56.4676C163.742 56.4785 163.765 56.4943 163.784 56.5142L164.521 57.2507H164.52Z" fill="#65B03A"/>
<path d="M527.562 84.6789L529.772 82.4695C529.83 82.4098 529.899 82.3622 529.975 82.3294C530.051 82.2967 530.133 82.2794 530.216 82.2787C530.299 82.278 530.382 82.2938 530.458 82.3252C530.535 82.3566 530.605 82.4031 530.664 82.4617C530.722 82.5204 530.769 82.5902 530.8 82.667C530.832 82.7438 530.847 82.8261 530.847 82.9091C530.846 82.9921 530.829 83.0741 530.796 83.1504C530.763 83.2266 530.716 83.2956 530.656 83.3532L528.446 85.5632L530.656 87.7726C530.716 87.8303 530.763 87.8992 530.796 87.9755C530.829 88.0517 530.846 88.1338 530.847 88.2167C530.847 88.2997 530.832 88.382 530.8 88.4588C530.769 88.5356 530.722 88.6054 530.664 88.6641C530.605 88.7228 530.535 88.7692 530.458 88.8006C530.382 88.8321 530.299 88.8479 530.216 88.8471C530.133 88.8464 530.051 88.8292 529.975 88.7964C529.899 88.7637 529.83 88.7161 529.772 88.6564L527.563 86.447L525.353 88.6564C525.295 88.7161 525.226 88.7637 525.15 88.7964C525.074 88.8292 524.992 88.8464 524.909 88.8471C524.826 88.8479 524.743 88.8321 524.667 88.8006C524.59 88.7692 524.52 88.7228 524.461 88.6641C524.403 88.6054 524.356 88.5356 524.325 88.4588C524.293 88.382 524.277 88.2997 524.278 88.2167C524.279 88.1338 524.296 88.0517 524.329 87.9755C524.362 87.8992 524.409 87.8303 524.469 87.7726L526.678 85.5632L524.469 83.3532C524.409 83.2956 524.362 83.2266 524.329 83.1504C524.296 83.0741 524.279 82.9921 524.278 82.9091C524.277 82.8261 524.293 82.7438 524.325 82.667C524.356 82.5902 524.403 82.5204 524.461 82.4617C524.52 82.4031 524.59 82.3566 524.667 82.3252C524.743 82.2938 524.826 82.278 524.909 82.2787C524.992 82.2794 525.074 82.2967 525.15 82.3294C525.226 82.3622 525.295 82.4098 525.353 82.4695L527.563 84.6789H527.562Z" fill="#65B03A"/>
<path d="M6.30005 63.2883H8.80005C8.93266 63.2883 9.05983 63.341 9.1536 63.4348C9.24737 63.5285 9.30005 63.6557 9.30005 63.7883C9.30005 63.9209 9.24737 64.0481 9.1536 64.1419C9.05983 64.2357 8.93266 64.2883 8.80005 64.2883H6.30005L6.30005 66.7883C6.30005 66.9209 6.24737 67.0481 6.1536 67.1419C6.05983 67.2357 5.93266 67.2883 5.80005 67.2883C5.66744 67.2883 5.54026 67.2357 5.4465 67.1419C5.35273 67.0481 5.30005 66.9209 5.30005 66.7883L5.30005 64.2883H2.80005C2.66744 64.2883 2.54026 64.2357 2.4465 64.1419C2.35273 64.0481 2.30005 63.9209 2.30005 63.7883C2.30005 63.6557 2.35273 63.5285 2.4465 63.4348C2.54026 63.341 2.66744 63.2883 2.80005 63.2883H5.30005L5.30005 60.7883C5.30005 60.6557 5.35273 60.5285 5.4465 60.4348C5.54026 60.341 5.66744 60.2883 5.80005 60.2883C5.93266 60.2883 6.05983 60.341 6.1536 60.4348C6.24737 60.5285 6.30005 60.6557 6.30005 60.7883L6.30005 63.2883Z" fill="#65B03A"/>
<path d="M451.3 105.305H453.8C453.932 105.305 454.059 105.358 454.153 105.451C454.247 105.545 454.3 105.672 454.3 105.805C454.3 105.938 454.247 106.065 454.153 106.158C454.059 106.252 453.932 106.305 453.8 106.305H451.3V108.805C451.3 108.938 451.247 109.065 451.153 109.158C451.059 109.252 450.932 109.305 450.8 109.305C450.667 109.305 450.54 109.252 450.446 109.158C450.352 109.065 450.3 108.938 450.3 108.805V106.305H447.8C447.667 106.305 447.54 106.252 447.446 106.158C447.352 106.065 447.3 105.938 447.3 105.805C447.3 105.672 447.352 105.545 447.446 105.451C447.54 105.358 447.667 105.305 447.8 105.305H450.3V102.805C450.3 102.672 450.352 102.545 450.446 102.451C450.54 102.358 450.667 102.305 450.8 102.305C450.932 102.305 451.059 102.358 451.153 102.451C451.247 102.545 451.3 102.672 451.3 102.805V105.305Z" fill="#65B03A"/>
<path d="M481.05 29.3431L482.818 27.5756C482.864 27.5278 482.919 27.4897 482.98 27.4635C483.041 27.4373 483.107 27.4235 483.173 27.423C483.239 27.4224 483.305 27.435 483.367 27.4602C483.428 27.4853 483.484 27.5224 483.531 27.5694C483.578 27.6163 483.615 27.6722 483.64 27.7336C483.665 27.7951 483.678 27.8609 483.677 27.9273C483.677 27.9937 483.663 28.0593 483.637 28.1203C483.61 28.1813 483.572 28.2365 483.525 28.2826L481.757 30.0506L483.525 31.8181C483.572 31.8642 483.61 31.9194 483.637 31.9804C483.663 32.0414 483.677 32.107 483.677 32.1734C483.678 32.2398 483.665 32.3056 483.64 32.3671C483.615 32.4285 483.578 32.4843 483.531 32.5313C483.484 32.5782 483.428 32.6154 483.367 32.6405C483.305 32.6656 483.239 32.6783 483.173 32.6777C483.107 32.6771 483.041 32.6633 482.98 32.6371C482.919 32.6109 482.864 32.5728 482.818 32.5251L481.05 30.7576L479.282 32.5251C479.236 32.5728 479.181 32.6109 479.12 32.6371C479.059 32.6633 478.993 32.6771 478.927 32.6777C478.86 32.6783 478.795 32.6656 478.733 32.6405C478.672 32.6154 478.616 32.5782 478.569 32.5313C478.522 32.4843 478.485 32.4285 478.46 32.3671C478.435 32.3056 478.422 32.2398 478.422 32.1734C478.423 32.107 478.437 32.0414 478.463 31.9804C478.489 31.9194 478.527 31.8642 478.575 31.8181L480.343 30.0506L478.575 28.2826C478.527 28.2365 478.489 28.1813 478.463 28.1203C478.437 28.0593 478.423 27.9937 478.422 27.9273C478.422 27.8609 478.435 27.7951 478.46 27.7336C478.485 27.6722 478.522 27.6163 478.569 27.5694C478.616 27.5224 478.672 27.4853 478.733 27.4602C478.795 27.435 478.86 27.4224 478.927 27.423C478.993 27.4235 479.059 27.4373 479.12 27.4635C479.181 27.4897 479.236 27.5278 479.282 27.5756L481.05 29.3431H481.05Z" fill="#65B03A"/>
<defs>
<clipPath id="clip0_515_9588">
<rect width="11" height="11" fill="white" transform="matrix(0 -1 -1 0 393 193.023)"/>
</clipPath>
<clipPath id="clip1_515_9588">
<rect width="7" height="7" fill="white" transform="matrix(0 -1 -1 0 468 73)"/>
</clipPath>
<clipPath id="clip2_515_9588">
<rect width="10" height="10" fill="white" transform="matrix(0 -1 -1 0 444.999 17)"/>
</clipPath>
<clipPath id="clip3_515_9588">
<rect width="11" height="11" fill="white" transform="matrix(0 -1 -1 0 554 157)"/>
</clipPath>
<clipPath id="clip4_515_9588">
<rect width="4" height="4" fill="white" transform="matrix(0 -1 -1 0 293 179.023)"/>
</clipPath>
<clipPath id="clip5_515_9588">
<rect width="7" height="7" fill="white" transform="matrix(0 -1 -1 0 259 61)"/>
</clipPath>
<clipPath id="clip6_515_9588">
<rect width="6" height="6" fill="white" transform="matrix(0 -1 -1 0 527 6)"/>
</clipPath>
<clipPath id="clip7_515_9588">
<rect width="6" height="6" fill="white" transform="matrix(0 -1 -1 0 318 106.024)"/>
</clipPath>
</defs>
</svg>
