<svg width="602" height="733" viewBox="0 0 602 733" fill="none" xmlns="http://www.w3.org/2000/svg">
<path d="M158.024 693.675C4.34201 774.629 -192.17 726.587 -280.899 586.371C-369.627 446.154 -316.971 266.86 -163.29 185.905L114.976 39.325C268.658 -41.6291 465.17 6.41273 553.899 146.629C642.627 286.846 589.971 466.14 436.29 547.095L158.024 693.675Z" fill="#D9E8C1"/>
<circle cx="11.5" cy="571.5" r="64.5" fill="#2FA161"/>
<path d="M239 188C239 218.928 213.928 244 183 244C152.072 244 127 218.928 127 188C127 157.072 152.072 132 183 132C213.928 132 239 157.072 239 188Z" fill="#064D3F"/>
<path d="M350 613C350 629.569 336.569 643 320 643C303.431 643 290 629.569 290 613C290 596.431 303.431 583 320 583C336.569 583 350 596.431 350 613Z" fill="#65B03A"/>
<path d="M425 29C425 38.9411 416.941 47 407 47C397.059 47 389 38.9411 389 29C389 19.0589 397.059 11 407 11C416.941 11 425 19.0589 425 29Z" fill="#65B03A"/>
<g clip-path="url(#clip0_474_7807)">
<path fill-rule="evenodd" clip-rule="evenodd" d="M578.53 82.567C580.307 83.0677 582.219 84.5988 582.479 87.1148L588.4 144.396C588.674 147.048 586.904 148.867 585.319 149.636C583.879 150.335 581.281 150.745 579.461 148.839L579.455 148.833L579.442 148.82C579.414 148.792 579.37 148.748 579.31 148.689C579.191 148.572 579.009 148.395 578.771 148.169C578.295 147.715 577.591 147.062 576.701 146.28C574.915 144.712 572.397 142.642 569.456 140.624C563.404 136.471 556.239 133.011 550.147 133.64L521.878 136.559C520.379 136.713 518.879 136.267 517.709 135.316C516.54 134.366 515.795 132.991 515.64 131.492L513.888 114.541C513.733 113.042 514.18 111.544 515.131 110.374C516.082 109.205 517.458 108.462 518.958 108.307L547.226 105.388C553.323 104.759 559.632 99.923 564.707 94.6424C567.174 92.0759 569.217 89.5449 570.645 87.6527C571.357 86.7086 571.912 85.9286 572.286 85.3894C572.472 85.12 572.614 84.911 572.707 84.7721C572.753 84.7027 572.787 84.6509 572.809 84.6178C572.818 84.6037 572.825 84.593 572.83 84.5858C574.248 82.3534 576.791 82.0771 578.53 82.567ZM581.502 146.862L583.525 144.869C583.525 144.869 583.526 144.87 583.525 144.869C583.523 144.871 583.515 144.878 583.49 144.902C583.39 145.002 583.002 145.384 581.502 146.862ZM582.646 144.013L576.926 88.6705C576.515 89.2615 575.927 90.0863 575.183 91.0722C573.66 93.091 571.471 95.8056 568.807 98.5774C563.621 103.973 556.078 110.185 547.81 111.039L519.542 113.957L521.294 130.908L549.563 127.99C557.834 127.136 566.492 131.699 572.673 135.941C575.849 138.12 578.549 140.34 580.453 142.013C581.38 142.827 582.124 143.516 582.646 144.013ZM577.608 87.6609C577.608 87.6613 577.609 87.6605 577.608 87.6609L575.223 86.1187C576.913 87.2116 577.406 87.5305 577.549 87.6238C577.596 87.6539 577.606 87.6594 577.608 87.6609Z" fill="black"/>
<path fill-rule="evenodd" clip-rule="evenodd" d="M518.391 119.555C519.71 118.822 520.231 117.173 519.551 115.809C518.852 114.404 517.146 113.833 515.741 114.531L517.007 117.074C515.741 114.531 515.739 114.532 515.737 114.533L515.734 114.535L515.726 114.539L515.711 114.547C515.7 114.552 515.688 114.558 515.676 114.565C515.651 114.578 515.624 114.593 515.593 114.609C515.533 114.643 515.463 114.684 515.383 114.734C515.224 114.833 515.028 114.968 514.811 115.142C514.376 115.491 513.848 116.006 513.357 116.727C512.342 118.22 511.635 120.381 511.937 123.308C512.24 126.236 513.374 128.206 514.674 129.46C515.301 130.066 515.923 130.462 516.421 130.715C516.669 130.841 516.888 130.933 517.064 130.997C517.152 131.03 517.23 131.056 517.296 131.076C517.328 131.087 517.358 131.096 517.385 131.103C517.399 131.107 517.411 131.111 517.423 131.114L517.44 131.118L517.448 131.121L517.452 131.122C517.454 131.122 517.456 131.123 518.175 128.375L517.456 131.123C518.975 131.52 520.527 130.611 520.925 129.094C521.311 127.619 520.463 126.112 519.022 125.664C519.016 125.661 519.007 125.657 518.997 125.652C518.929 125.617 518.788 125.534 518.622 125.374C518.334 125.097 517.763 124.388 517.591 122.725C517.419 121.061 517.833 120.251 518.058 119.92C518.188 119.73 518.309 119.62 518.369 119.572C518.378 119.565 518.385 119.559 518.391 119.555ZM518.902 125.629C518.902 125.629 518.902 125.629 518.902 125.629V125.629Z" fill="black"/>
<path fill-rule="evenodd" clip-rule="evenodd" d="M582.229 111.379C582.481 109.831 583.942 108.78 585.491 109.032L585.034 111.835C585.491 109.032 585.489 109.032 585.491 109.032L585.497 109.033L585.503 109.034L585.516 109.036C585.525 109.037 585.535 109.039 585.545 109.041C585.567 109.045 585.591 109.05 585.618 109.055C585.673 109.066 585.74 109.08 585.817 109.098C585.97 109.135 586.168 109.188 586.398 109.265C586.85 109.417 587.461 109.672 588.098 110.094C589.437 110.982 590.825 112.581 591.089 115.136C591.354 117.691 590.322 119.54 589.193 120.682C588.655 121.226 588.109 121.601 587.698 121.842C587.489 121.964 587.306 122.057 587.163 122.124C587.091 122.157 587.029 122.185 586.978 122.206C586.952 122.217 586.929 122.227 586.909 122.235C586.899 122.239 586.89 122.243 586.881 122.246L586.869 122.251L586.863 122.253C586.862 122.254 586.858 122.255 585.837 119.604L586.858 122.255C585.393 122.818 583.748 122.088 583.185 120.624C582.63 119.181 583.331 117.565 584.753 116.979C584.765 116.973 584.791 116.96 584.826 116.94C584.919 116.885 585.04 116.8 585.149 116.69C585.314 116.524 585.494 116.285 585.436 115.72C585.377 115.154 585.152 114.958 584.957 114.829C584.828 114.743 584.692 114.685 584.589 114.65C584.551 114.638 584.523 114.63 584.51 114.627C582.998 114.344 581.981 112.904 582.229 111.379Z" fill="black"/>
<path fill-rule="evenodd" clip-rule="evenodd" d="M550.053 105.096C551.615 104.935 553.011 106.069 553.172 107.63L555.508 130.231C555.67 131.792 554.535 133.187 552.974 133.348C551.412 133.509 550.016 132.375 549.855 130.815L547.518 108.213C547.357 106.653 548.492 105.258 550.053 105.096Z" fill="black"/>
<path fill-rule="evenodd" clip-rule="evenodd" d="M524.612 107.723C526.173 107.562 527.569 108.696 527.73 110.256L530.067 132.858C530.228 134.418 529.093 135.814 527.532 135.975C525.971 136.136 524.574 135.002 524.413 133.442L522.077 110.84C521.915 109.28 523.05 107.884 524.612 107.723Z" fill="black"/>
<path fill-rule="evenodd" clip-rule="evenodd" d="M532.602 129.741C534.163 129.58 535.559 130.714 535.72 132.274L538.641 160.526L546.591 159.705C546.196 158.784 545.63 157.733 544.984 156.535C542.96 152.779 540.16 147.583 539.423 140.458C539.262 138.898 540.397 137.502 541.958 137.341L544.785 137.049L544.493 134.224L541.666 134.516C540.105 134.677 538.709 133.543 538.547 131.982C538.386 130.422 539.521 129.027 541.082 128.865L543.909 128.573C545.408 128.419 546.908 128.865 548.078 129.816C549.248 130.766 549.992 132.141 550.147 133.64L550.439 136.465C550.594 137.964 550.147 139.463 549.196 140.632C548.272 141.767 546.947 142.502 545.497 142.685C546.357 147.018 548.002 150.072 549.605 153.048C550.384 154.495 551.154 155.923 551.818 157.472L551.821 157.477C552.17 158.296 552.322 159.185 552.264 160.073C552.207 160.961 551.941 161.823 551.489 162.589C551.037 163.356 550.411 164.006 549.661 164.486C548.912 164.967 548.061 165.264 547.175 165.356C547.175 165.356 547.176 165.356 547.175 165.356L537.811 166.322C536.687 166.439 535.562 166.103 534.685 165.391C533.807 164.678 533.249 163.646 533.133 162.522L530.067 132.858C529.905 131.298 531.04 129.902 532.602 129.741Z" fill="black"/>
<path d="M553.326 109.725L554.965 128.148C566.934 131.57 573.195 135.535 582.821 144.524L577.086 88.436C568.428 99.7065 563.284 104.646 553.326 109.725Z" fill="url(#paint0_linear_474_7807)"/>
<path d="M521.225 131.013L519.326 113.819L522.603 113.409L524.242 130.604L521.225 131.013Z" fill="url(#paint1_linear_474_7807)"/>
<path d="M529.568 130.195L527.93 113L548.002 110.953L549.641 128.148L529.568 130.195Z" fill="url(#paint2_linear_474_7807)"/>
<path d="M538.653 160.565L535.785 134.772L544.797 133.954L544.797 137.229L541.52 137.638C540.106 137.954 539.472 138.866 539.472 140.095C539.472 141.323 540.701 145.826 541.111 147.054C541.52 148.283 546.846 159.746 546.846 159.746L538.653 160.565Z" fill="url(#paint3_linear_474_7807)"/>
</g>
<path d="M491.979 173.634C491.979 173.634 490.472 156.918 489.941 156.802C489.874 148.274 473.878 136.995 470.326 134.539C451.071 121.236 438.944 122.053 419.139 141.616C403.51 157.052 408.783 184.352 409.338 186.235C405.231 188.436 409.063 194.197 413.458 193.332C413.458 193.332 412.176 197.002 416.192 198.532C420.207 200.062 421.495 198.721 421.495 198.721C421.495 198.721 418.749 202.744 424.498 204C424.498 204 421.959 205.475 425.883 206.835C429.808 208.194 433.109 202.391 433.109 202.391C433.109 202.391 432.633 206.859 436.399 207.883C440.164 208.908 444.516 204.457 444.516 204.457C444.516 204.457 448.44 209.408 451.986 208.859C455.532 208.304 457.753 204.366 457.753 204.366C457.753 204.366 457.332 207.188 460.848 206.695C464.033 206.25 463.734 201.44 463.649 200.537C463.753 201.452 464.4 206.353 466.426 205.823C470.393 204.787 469.453 201.568 470.167 202.543C470.881 203.512 474.421 202.616 477.387 200.574C480.09 198.715 478.748 195.514 478.748 195.514C478.748 195.514 481.415 196.355 483.203 193.319C483.203 193.319 483.386 197.788 486.792 195.752C489.776 193.966 486.389 188.79 486.389 188.79C486.389 188.79 488.873 190.497 491.839 188.631C494.219 187.138 490.704 184.602 490.704 184.602C490.704 184.602 495.11 185.589 496.416 183.59C497.722 181.59 491.979 173.628 491.979 173.628V173.634Z" fill="url(#paint4_linear_474_7807)"/>
<path d="M487.251 170.312C487.251 170.952 487.226 171.531 487.184 172.049V172.074C486.884 175.792 485.713 176.841 485.444 178.536C485.212 180.005 483.87 183.09 481.648 180.444L481.642 180.438C481.642 180.438 480.623 168.44 480.958 166.178C480.958 166.178 481.422 162.789 483.101 162.027C485.255 161.045 487.269 164.654 487.257 170.306L487.251 170.312Z" fill="url(#paint5_linear_474_7807)"/>
<path style="mix-blend-mode:multiply" opacity="0.6" d="M481.092 172.988C481.092 172.988 483.576 165.819 485.193 165.118C486.81 164.423 486.847 170.171 486.798 172.092C486.755 174.018 486.42 175.201 486.42 175.201C486.42 175.201 486.499 172.927 486.304 171.122C486.023 168.538 485.047 166.428 484.369 166.751C483.692 167.074 483.252 170.452 483.246 170.824C483.246 171.202 483.875 171.775 484.156 173.774C484.436 175.774 484.04 178.054 483.637 178.09C483.234 178.127 483.155 176.487 482.862 174.622C482.569 172.756 481.501 173.299 481.196 174.585L481.092 172.982V172.988Z" fill="url(#paint6_linear_474_7807)"/>
<path style="mix-blend-mode:multiply" opacity="0.6" d="M481.196 174.585C481.196 174.585 481.824 172.671 482.489 173.391C483.161 174.11 483.118 176.408 483.576 176.609C484.033 176.811 484.308 174.921 483.942 173.287C483.576 171.653 482.837 170.251 482.16 170.641L481.092 172.988L481.196 174.591V174.585Z" fill="url(#paint7_linear_474_7807)"/>
<path style="mix-blend-mode:multiply" d="M487.177 172.073C486.878 175.792 485.712 176.841 485.438 178.536C485.206 180.005 483.863 183.09 481.642 180.444C481.764 180.541 482.954 181.45 483.912 180.803C484.925 180.115 485.065 178.743 485.364 177.646C485.663 176.554 486.738 175.664 487.177 172.067V172.073Z" fill="url(#paint8_linear_474_7807)"/>
<path d="M425.946 205.481C422.424 206.256 418.177 205.823 416.443 202.878C416.413 202.884 411.793 203.963 408.668 196.483C405.958 189.991 407.624 186.717 407.624 186.717C407.624 186.717 404.994 184.534 404.591 182.834C403.682 178.999 404.835 172.513 407.569 172.403C410.31 172.293 412.293 174.335 412.293 174.335C412.293 174.335 414.106 169.915 416.303 170.312C418.5 170.708 424.042 178.231 424.042 178.231C424.042 178.231 427.166 175.573 428.454 177.188C429.742 178.804 431.371 182.895 431.371 182.895C431.371 182.895 434.996 184.791 434.429 189.143C434.429 189.143 435.894 192.106 433.037 194.557C432.421 195.087 431.597 195.593 430.523 196.038C430.523 196.038 432.214 198.934 431.28 202.196C430.877 203.604 428.625 204.89 425.952 205.481H425.946Z" fill="#010101"/>
<path d="M431.31 439.8L329.944 386.146L331.122 406.447L417.456 466.88C422.106 457.863 426.738 448.847 431.31 439.8Z" fill="url(#paint9_linear_474_7807)"/>
<path opacity="0.2" d="M431.31 439.8L360.557 402.35C357.347 408.221 354.253 414.372 350.713 420.164L417.456 466.886C422.106 457.869 426.738 448.853 431.31 439.806V439.8Z" fill="#201829"/>
<path d="M332.319 407.782L337.567 388.95L326.185 380.159L292.319 434.941C292.319 434.941 300.113 434.953 332.319 407.776V407.782Z" fill="#064D3F"/>
<path d="M292.319 434.941L326.185 380.159L322.395 377.227L290 432.85L292.319 434.941Z" fill="#2B2238"/>
<path d="M328.315 411.561C327.582 408.775 326.038 406.319 324.806 403.74C324.696 403.508 324.348 403.709 324.458 403.941C325.678 406.489 327.204 408.916 327.93 411.665C327.997 411.915 328.388 411.811 328.321 411.555L328.315 411.561Z" fill="#2B2238"/>
<path d="M325.282 414.482C324.549 411.696 323.005 409.239 321.772 406.66C321.663 406.429 321.315 406.63 321.424 406.861C322.645 409.41 324.171 411.836 324.897 414.585C324.964 414.835 325.355 414.732 325.288 414.476L325.282 414.482Z" fill="#2B2238"/>
<path d="M321.773 417.585C321.04 414.799 319.496 412.342 318.264 409.763C318.154 409.532 317.806 409.733 317.916 409.964C319.136 412.513 320.662 414.939 321.388 417.689C321.455 417.938 321.846 417.835 321.779 417.579L321.773 417.585Z" fill="#2B2238"/>
<path d="M489.771 212.23L536.789 219.899L535.428 168.818C540.725 167.117 545.406 169.641 550.545 167.477C553.261 178.847 563.062 229.361 559.571 240.316C554.091 257.508 492.841 238.835 492.841 238.835L489.765 212.236L489.771 212.23Z" fill="url(#paint10_linear_474_7807)"/>
<path d="M550.721 166.934C550.721 166.934 552.961 150.249 550.965 150.566C548.969 150.877 547.895 158.704 547.895 158.704C547.895 158.704 548.689 145.823 547.151 145.804C545.613 145.792 542.464 158.278 542.464 158.278C542.464 158.278 542.653 143.189 541.408 143.384C540.163 143.579 537.606 158.271 537.606 158.271C537.606 158.271 535.891 147.31 533.895 147.621C531.899 147.932 534.225 164.41 534.225 164.41C534.225 164.41 528.86 161.167 527.603 162.892C526.339 164.624 535.28 171.135 535.28 171.135L536.782 224.746L549.757 180.352L550.721 166.928V166.934Z" fill="url(#paint11_linear_474_7807)"/>
<path d="M528.171 385.28L492.377 618.824L514.024 619.123L556.984 449.426L528.171 385.28Z" fill="url(#paint12_linear_474_7807)"/>
<path opacity="0.2" d="M527.323 591.396L490.326 393.144L534.537 375.178L547.402 588.007C540.664 588.836 533.914 590.25 527.317 591.39L527.323 591.396Z" fill="#201829"/>
<path d="M508.994 264.049L513.7 323.957L438.742 325.719L454.299 285.124L508.994 264.049Z" fill="#F78E1E"/>
<path d="M460.837 191.734L468.209 215.04L486.811 212.651L469.045 243.059L431.762 227.312L446.208 220.692L439.152 188.601L460.837 191.734Z" fill="url(#paint13_linear_474_7807)"/>
<path d="M443.546 135.392C443.546 135.392 470.735 132.136 480.219 162.99C489.709 193.837 467.836 205.256 452.468 205.03C437.101 204.805 424.657 190.167 421.178 181.084C417.693 172 419.073 139.55 443.546 135.398V135.392Z" fill="url(#paint14_linear_474_7807)"/>
<path d="M510.52 287.952C510.52 287.952 489.611 300.608 449.313 299.998C449.313 299.998 418.987 337.82 420.061 379.702C420.812 409.098 433.817 479.364 433.817 479.364C433.817 479.364 471.101 509.742 480.426 482.961C489.752 456.18 498.686 350.043 498.686 350.043L477.924 375.227L502.653 503.896L483.789 579.972L543.806 577.832C543.806 577.832 563.226 537.109 566.015 496.111C570.342 432.484 541.438 346.129 510.52 287.952Z" fill="#65B03A"/>
<path d="M455.801 480.298C461.355 465.892 467.604 450.017 470.723 434.026C420.812 415.183 371.695 396.814 371.695 396.814L353.605 447.633L456.576 492.594C459.023 487.29 453.695 485.754 455.801 480.298Z" fill="#65B03A"/>
<path d="M359.403 456.65L389.833 401.557L368.125 392.919L344.994 450.273L359.403 456.65Z" fill="#65B03A"/>
<path d="M408.021 242.858L334.821 338.052C334.821 338.052 324.476 331.565 322.102 333.894C315.944 339.924 311.062 360.48 322.035 340.07C322.035 340.07 311.581 372.496 326.686 341.246C326.686 341.246 320.387 371.009 331.446 345.136C331.446 345.136 328.212 370.265 334.73 347.751C334.73 347.751 338.446 352.86 343.194 348.593C347.949 344.325 427.514 268.005 430.431 258.355C433.348 248.704 408.015 242.858 408.015 242.858H408.021Z" fill="url(#paint15_linear_474_7807)"/>
<path opacity="0.2" d="M492.364 360.072C508.158 348.099 519.693 334.778 527.963 322.762C547.743 370.838 561.475 424.784 567.687 474.073C569.012 526.599 543.806 577.832 543.806 577.832L483.789 579.972L503.16 503.799L488.824 430.49L488.44 428.021C489.166 375.697 492.364 360.084 492.364 360.084V360.072Z" fill="#064D3F"/>
<path d="M547.743 574.4L481.568 577.046L480.299 590.525L541.25 600.212L547.743 574.4Z" fill="#65B03A"/>
<path opacity="0.2" d="M451.219 293.165L454.301 285.118L508.996 264.049L510.9 288.263C494.703 292.165 471.426 296.109 451.219 293.165Z" fill="#201829"/>
<path d="M512.248 617.184L492.804 614.965L485.896 627.573L545.376 652.391C545.376 652.391 544.167 644.703 512.242 617.191L512.248 617.184Z" fill="#064D3F"/>
<path d="M545.381 652.385L485.9 627.566L483.6 631.767L543.672 655L545.381 652.385Z" fill="#2B2238"/>
<path d="M516.593 620.549C513.969 621.702 511.796 623.604 509.452 625.213C509.239 625.359 509.44 625.707 509.654 625.561C511.997 623.951 514.17 622.049 516.794 620.897C517.032 620.793 516.825 620.446 516.593 620.549Z" fill="#2B2238"/>
<path d="M519.962 623.085C517.338 624.238 515.165 626.14 512.822 627.749C512.608 627.896 512.809 628.243 513.023 628.097C515.366 626.487 517.539 624.585 520.163 623.433C520.402 623.329 520.194 622.982 519.962 623.085Z" fill="#2B2238"/>
<path d="M523.581 626.054C520.957 627.206 518.784 629.109 516.441 630.718C516.227 630.864 516.428 631.212 516.642 631.065C518.986 629.456 521.158 627.554 523.783 626.402C524.021 626.298 523.813 625.951 523.581 626.054Z" fill="#2B2238"/>
<path d="M492.914 212.602L517.491 215.314L515.434 250.637L492.914 212.602Z" fill="#161C40"/>
<path d="M475.092 214.102C475.092 214.102 484.155 210.627 491.943 212.151C499.73 213.675 514.786 235.317 519.04 244.937C523.294 254.557 520.629 286.661 520.629 286.661C520.629 286.661 464.048 315.386 439.483 307.571L429.124 262.415L417.4 275.217L391.621 255.252C391.621 255.252 405.792 231.781 422.325 227.83L437.418 223.417C437.418 223.417 475.44 233.927 475.08 214.102H475.092Z" fill="#161C40"/>
<path d="M415.204 182.084C415.497 182.858 415.796 183.553 416.095 184.163L416.114 184.193C418.262 188.57 420.599 189.314 421.796 191.259C422.833 192.935 426.361 196.075 428.71 191.868C428.716 191.862 428.723 191.856 428.723 191.856C428.723 191.856 424.939 176.829 423.382 174.238C423.382 174.238 421.112 170.336 418.097 170.159C414.222 169.934 412.635 175.225 415.204 182.084Z" fill="url(#paint16_linear_474_7807)"/>
<path style="mix-blend-mode:multiply" opacity="0.6" d="M426.226 182.559C426.226 182.559 419.031 174.969 416.138 174.853C413.245 174.738 415.778 181.73 416.718 184.047C417.658 186.363 418.726 187.65 418.726 187.65C418.726 187.65 417.572 184.925 417.078 182.651C416.364 179.383 416.968 176.384 418.189 176.469C419.409 176.554 421.643 180.456 421.814 180.913C421.991 181.37 421.24 182.352 421.692 184.906C422.143 187.461 423.803 190.052 424.469 189.911C425.128 189.771 424.517 187.747 424.145 185.351C423.773 182.955 425.714 183.132 426.788 184.553L426.226 182.559Z" fill="url(#paint17_linear_474_7807)"/>
<path style="mix-blend-mode:multiply" opacity="0.6" d="M426.788 184.553C426.788 184.553 424.926 182.511 424.182 183.687C423.437 184.864 424.542 187.631 423.901 188.083C423.26 188.534 421.973 186.357 421.82 184.211C421.667 182.059 422.211 180.029 423.468 180.194L426.232 182.559L426.794 184.553H426.788Z" fill="url(#paint18_linear_474_7807)"/>
<path style="mix-blend-mode:multiply" d="M416.113 184.193C418.262 188.57 420.599 189.314 421.795 191.259C422.833 192.935 426.36 196.075 428.71 191.868C428.557 192.039 427.074 193.685 425.256 193.325C423.333 192.947 422.491 191.344 421.514 190.149C420.544 188.954 418.432 188.363 416.113 184.193Z" fill="url(#paint19_linear_474_7807)"/>
<path d="M408.278 167.782C409.553 170.495 410.859 166.739 410.859 166.739C412.403 170.964 415.626 170.787 415.626 170.787C415.626 170.787 412.867 172.769 413.587 175.737C414.301 178.706 419.745 177.213 419.745 177.213C419.745 177.213 419.556 182.87 422.315 183.01C425.079 183.151 424.292 180.858 424.292 180.858C427.734 181.444 425.525 178.328 425.525 178.328C426.404 177.036 422.846 174.274 422.846 174.274C424.457 173.689 423.419 170.476 423.419 170.476C424.298 171.86 426.812 170.306 426.812 170.306C426.812 170.306 428.058 172.244 429.913 171.568C431.774 170.885 429.296 163.837 429.296 163.837C430.975 162.801 427.441 155.528 427.441 155.528C427.441 155.528 428.997 156.187 429.687 155.315C430.364 154.461 428.79 151.797 428.729 151.694C428.778 151.754 429.602 152.687 432.397 151.907C435.229 151.114 434.399 146.524 434.356 146.475C437.108 147.036 439.434 144.61 439.434 144.61C439.434 144.61 440.813 146.914 441.936 146.573C443.059 146.231 445.933 141.586 445.933 141.586C448.381 142.043 450.584 140.775 450.584 140.775C450.352 140.976 453.336 145.298 455.192 144.384C456.974 143.506 457.212 142.64 457.23 142.58C457.242 142.665 457.486 144.536 459.555 147.713C461.673 150.968 464.072 149.005 464.072 149.005C464.072 149.005 464.084 152.937 464.84 154.388C465.597 155.839 466.793 156.942 466.793 156.942C466.793 156.942 467.739 160.375 469.045 159.631C470.352 158.893 470.083 157.631 470.101 157.241C470.12 156.851 470.962 158.29 473.086 158.71C475.21 159.131 474.355 156.601 474.355 156.601C475.417 157.869 477.101 157.144 477.101 157.144C477.101 157.144 477.394 161.326 478.646 162.557C481.496 165.368 482.466 159.57 482.466 159.57C484.456 158.662 483.089 156.089 483.089 156.089C483.089 156.089 483.711 156.65 484.828 155.388C485.939 154.12 485.334 149.572 483.79 147.914C482.356 146.378 482.216 147.95 482.204 148.188C482.204 148.206 482.204 148.219 482.204 148.219C482.204 148.219 485.426 145.664 485.115 144.03C484.804 142.403 482.802 139.684 482.802 139.684C482.802 139.684 484.443 137.776 484.376 135.892C484.309 134.014 483.162 129.716 481.41 129.93C479.714 130.143 479.598 131.521 479.604 131.661C479.604 131.661 478.646 128.753 477.773 127.906C477.205 127.357 475.258 126.595 474.544 126.625C472.817 126.705 471.755 127.778 471.755 127.778C469.991 126.894 468.167 124.906 468.167 124.906C468.167 124.906 469.375 123.87 468.301 122.486C465.963 119.462 459.14 118.188 455.741 117.688C451.121 117.005 448.918 119.706 448.96 119.737C444.389 119.462 441.069 120.657 441.069 120.657C441.069 120.657 441.057 120.054 439.208 119.834C437.438 119.627 436.345 120.474 435.253 122.126L435.235 122.157C435.235 122.157 433.837 121.163 431.945 122.535C429.693 124.163 428.283 128.796 429.418 134.74C428.686 134.959 428.289 135.124 427.411 135.605C418.018 132.155 418.36 139.251 418.36 139.251C418.36 139.251 416.858 139.019 414.301 139.946C411.817 140.842 411.891 141.324 412.104 142.214C412.324 143.128 414.198 143.11 414.198 143.11C408.894 146.036 409.742 145.811 409.742 145.811C407.844 147.426 407.924 148.889 408.082 149.523C408.137 149.737 408.198 149.859 408.198 149.859C408.198 149.859 405.019 152.236 405.366 153.986C405.714 155.735 407.887 154.815 407.887 154.815C407.643 156.296 408.137 157.948 408.589 159.058C408.906 159.832 409.199 160.344 409.199 160.344C409.199 160.344 407.002 165.075 408.278 167.788V167.782Z" fill="#010101"/>
<g style="mix-blend-mode:multiply">
<path d="M408.277 167.782C409.552 170.494 410.858 166.739 410.858 166.739C412.402 170.964 415.625 170.787 415.625 170.787C415.625 170.787 412.866 172.768 413.586 175.737C414.301 178.706 419.744 177.213 419.744 177.213C419.744 177.213 419.555 182.87 422.314 183.01C425.079 183.15 424.291 180.858 424.291 180.858C427.733 181.443 425.524 178.328 425.524 178.328C426.403 177.036 422.845 174.274 422.845 174.274C424.456 173.689 423.418 170.476 423.418 170.476C424.297 171.86 426.812 170.305 426.812 170.305C426.812 170.305 428.057 172.244 429.912 171.567C431.774 170.885 429.296 163.837 429.296 163.837C430.974 162.801 427.44 155.528 427.44 155.528C427.44 155.528 428.997 156.186 429.686 155.315C430.376 154.443 428.728 151.687 428.728 151.687C428.728 151.687 429.515 152.711 432.396 151.907C435.228 151.114 434.398 146.524 434.355 146.475C437.108 147.036 439.433 144.609 439.433 144.609C439.433 144.609 440.812 146.914 441.935 146.573C443.058 146.231 445.933 141.586 445.933 141.586C448.38 142.043 450.583 140.775 450.583 140.775C450.351 140.976 453.336 145.298 455.191 144.384C456.973 143.506 457.211 142.64 457.229 142.579C457.241 142.665 457.486 144.536 459.555 147.713C461.672 150.968 464.071 149.005 464.071 149.005C464.071 149.005 464.083 152.937 464.84 154.388C465.597 155.839 466.793 156.942 466.793 156.942C466.793 156.942 467.739 160.375 469.045 159.631C470.351 158.893 470.082 157.631 470.101 157.241C470.119 156.851 470.961 158.29 473.085 158.71C475.209 159.131 474.354 156.601 474.354 156.601C475.416 157.869 477.101 157.144 477.101 157.144C477.101 157.144 477.394 161.326 478.645 162.557C481.495 165.367 482.465 159.57 482.465 159.57C484.455 158.662 483.088 156.089 483.088 156.089C483.088 156.089 483.71 156.65 484.827 155.388C485.938 154.12 485.334 149.572 483.79 147.914C482.246 146.255 482.203 148.219 482.203 148.219C482.203 148.219 485.425 145.664 485.114 144.03C484.803 142.403 482.801 139.684 482.801 139.684C482.801 139.684 484.443 137.776 484.376 135.892C484.308 134.014 483.161 129.716 481.409 129.93C479.713 130.143 479.597 131.521 479.603 131.661C479.249 133.941 467.311 134.24 467.311 134.24C467.311 134.24 469.637 136.349 465.627 136.855C460.598 137.489 456.167 133.362 456.167 133.362C456.167 133.362 451.437 136.02 447.757 135.904C436.961 135.556 430.406 133.453 429.027 131.185L429.418 134.74L427.41 135.605C427.41 135.605 430.297 136.483 430.712 140.056C430.895 141.616 425.249 143.567 424.419 142.043C424.419 142.043 424.987 145.445 421.295 145.579C421.295 145.579 424.224 146.353 423.449 149.682C422.68 153.01 409.388 154.108 408.191 149.865C408.191 149.865 405.012 152.242 405.36 153.992C405.707 155.741 407.88 154.821 407.88 154.821C407.465 157.333 409.192 160.35 409.192 160.35C409.192 160.35 406.995 165.081 408.271 167.794L408.277 167.782Z" fill="#010101"/>
</g>
<g style="mix-blend-mode:multiply">
<path d="M408.276 167.782C409.552 170.495 410.858 166.739 410.858 166.739C412.402 170.964 415.624 170.787 415.624 170.787C415.624 170.787 412.866 172.769 413.586 175.737C414.3 178.706 419.744 177.213 419.744 177.213C419.744 177.213 419.555 182.87 422.313 183.01C425.078 183.151 424.291 180.858 424.291 180.858C427.733 181.444 425.524 178.328 425.524 178.328C426.402 177.036 422.844 174.274 422.844 174.274C424.455 173.689 423.418 170.476 423.418 170.476C424.297 171.86 426.811 170.306 426.811 170.306C426.811 170.306 428.056 172.244 429.912 171.568C431.773 170.885 429.295 163.837 429.295 163.837C430.974 162.801 427.44 155.528 427.44 155.528C427.44 155.528 428.996 156.187 429.686 155.315C430.363 154.461 428.789 151.797 428.728 151.694C428.776 151.755 429.6 152.687 432.396 151.907C435.227 151.114 434.397 146.524 434.355 146.475C437.107 147.036 439.432 144.61 439.432 144.61C439.432 144.61 440.812 146.914 441.935 146.573C443.058 146.231 445.932 141.586 445.932 141.586C448.379 142.043 450.583 140.775 450.583 140.775C450.351 140.976 453.335 145.299 455.19 144.384C456.972 143.506 457.21 142.641 457.229 142.58C457.241 142.665 457.485 144.536 459.554 147.713C461.672 150.968 464.07 149.005 464.07 149.005C464.07 149.005 464.082 152.937 464.839 154.388C465.596 155.839 466.792 156.943 466.792 156.943C466.792 156.943 467.738 160.375 469.044 159.631C470.35 158.893 470.082 157.631 470.1 157.241C470.118 156.851 470.961 158.29 473.084 158.71C475.208 159.131 474.354 156.601 474.354 156.601C475.416 157.869 477.1 157.144 477.1 157.144C477.1 157.144 477.393 161.326 478.644 162.557C481.494 165.368 482.465 159.57 482.465 159.57C484.454 158.662 483.087 156.089 483.087 156.089C483.087 156.089 483.71 156.65 484.827 155.388C485.937 154.12 485.333 149.572 483.789 147.914C482.355 146.378 482.215 147.95 482.202 148.188C482.202 148.206 482.202 148.219 482.202 148.219C482.733 151.242 479.853 148.926 479.853 148.926C479.853 148.926 479.877 150.791 477.875 150.237C477.991 150.273 479.462 150.785 477.912 151.505C476.301 152.254 474.531 149.542 474.531 149.542C474.531 149.542 473.939 151.181 471.943 151.322C471.943 151.322 474.079 152.206 471.723 152.913C469.368 153.62 469.972 148.865 469.972 148.865C469.972 148.865 468.66 150.255 467.085 148.81C465.504 147.365 465.651 144.067 465.651 144.067C465.651 144.067 465.071 146.365 462.453 146.03C459.835 145.695 457.876 141.11 457.876 141.11C457.876 141.11 456.948 142.214 455.764 142.592C454.586 142.964 453.445 139.196 453.445 139.196C453.445 139.196 453.396 140.604 450.576 139.598C450.576 139.598 450.93 140.549 448.996 140.671C447.061 140.793 444.541 138.526 444.541 138.526C444.541 138.526 444.852 142.25 443.369 142.964C441.886 143.677 441.361 138.422 441.361 138.422C441.361 138.422 439.737 141.08 437.955 140.354C436.173 139.629 435.612 138.007 435.612 138.007C435.612 138.007 436.533 140.61 434.464 140.958C432.481 141.287 431.486 139.934 431.401 139.818C431.523 140.025 433.799 144.03 430.87 145.341C431.224 145.189 433.97 144.061 433.445 145.896C432.884 147.859 429.686 146.5 429.686 146.5C429.686 146.5 430.931 147.914 429.576 149.054C428.331 150.102 427.568 149.279 427.446 149.133C427.623 149.383 429.283 151.834 426.512 153.297C426.653 153.236 428.477 152.498 428.056 153.699C427.617 154.949 425.285 155.321 425.285 155.321C425.285 155.321 427.269 156.711 426.39 157.839C426.042 158.284 425.469 158.357 424.895 158.278C426.604 158.991 428.807 160.363 427.763 162.472C426.561 164.892 424.266 163.557 423.143 162.691C423.882 163.417 424.858 164.728 423.802 165.855C422.246 167.52 419.561 163.819 419.561 163.819C419.561 163.819 419.774 165.88 417.339 165.685C417.339 165.685 420.067 167.514 418.475 168.526C416.876 169.538 412.14 168.916 413.244 166.52C413.244 166.52 411.297 165.252 412.378 163.661C412.378 163.661 409.314 163.746 409.216 160.344C409.216 160.344 407.019 165.075 408.295 167.788L408.276 167.782Z" fill="#010101"/>
</g>
<g style="mix-blend-mode:soft-light" opacity="0.5">
<path d="M448.038 130.484C448.038 130.484 446.347 131.557 448.16 131.893C449.972 132.228 452.804 130.692 452.804 130.692C458.242 130.948 459.804 129.674 458.779 127.607C458.779 127.607 461.928 123.065 456.674 123.315C455.343 123.376 456.088 124.467 456.112 124.486C453.353 124.321 453.86 125.613 453.86 125.613C453.86 125.613 450.186 123.882 449.063 123.858C437.608 123.589 442.057 126.839 442.057 126.839C431.193 131.85 448.05 130.49 448.05 130.49L448.038 130.484Z" fill="#010101"/>
</g>
<defs>
<linearGradient id="paint0_linear_474_7807" x1="568.073" y1="88.436" x2="568.073" y2="144.115" gradientUnits="userSpaceOnUse">
<stop stop-color="#65B03A"/>
<stop offset="1" stop-color="#2A4A18"/>
</linearGradient>
<linearGradient id="paint1_linear_474_7807" x1="521.784" y1="113.819" x2="521.784" y2="131.013" gradientUnits="userSpaceOnUse">
<stop stop-color="#65B03A"/>
<stop offset="1" stop-color="#2A4A18"/>
</linearGradient>
<linearGradient id="paint2_linear_474_7807" x1="538.785" y1="110.953" x2="538.785" y2="130.195" gradientUnits="userSpaceOnUse">
<stop stop-color="#539185"/>
<stop offset="1" stop-color="#064D3F"/>
</linearGradient>
<linearGradient id="paint3_linear_474_7807" x1="541.52" y1="133.954" x2="541.52" y2="160.565" gradientUnits="userSpaceOnUse">
<stop stop-color="#666666"/>
<stop offset="1"/>
</linearGradient>
<linearGradient id="paint4_linear_474_7807" x1="455.379" y1="206.886" x2="449.568" y2="169.691" gradientUnits="userSpaceOnUse">
<stop stop-color="#31111B"/>
<stop offset="1" stop-color="#1A0F21"/>
</linearGradient>
<linearGradient id="paint5_linear_474_7807" x1="489.191" y1="186.397" x2="486.001" y2="165.983" gradientUnits="userSpaceOnUse">
<stop stop-color="#F7A393"/>
<stop offset="0.43" stop-color="#F5A794"/>
<stop offset="0.51" stop-color="#F5A18E"/>
<stop offset="0.76" stop-color="#F59584"/>
<stop offset="1" stop-color="#F69181"/>
</linearGradient>
<linearGradient id="paint6_linear_474_7807" x1="488.363" y1="181.083" x2="486.167" y2="167.031" gradientUnits="userSpaceOnUse">
<stop stop-color="#F7A393"/>
<stop offset="0.43" stop-color="#F5A794"/>
<stop offset="0.51" stop-color="#F5A18E"/>
<stop offset="0.76" stop-color="#F59584"/>
<stop offset="1" stop-color="#F69181"/>
</linearGradient>
<linearGradient id="paint7_linear_474_7807" x1="485.823" y1="176.192" x2="484.869" y2="170.091" gradientUnits="userSpaceOnUse">
<stop stop-color="#F7A393"/>
<stop offset="0.43" stop-color="#F5A794"/>
<stop offset="0.51" stop-color="#F5A18E"/>
<stop offset="0.76" stop-color="#F59584"/>
<stop offset="1" stop-color="#F69181"/>
</linearGradient>
<linearGradient id="paint8_linear_474_7807" x1="481.168" y1="177.441" x2="487.848" y2="176.394" gradientUnits="userSpaceOnUse">
<stop stop-color="#F7A393"/>
<stop offset="0.43" stop-color="#F5A794"/>
<stop offset="0.51" stop-color="#F5A18E"/>
<stop offset="0.76" stop-color="#F59584"/>
<stop offset="1" stop-color="#F69181"/>
</linearGradient>
<linearGradient id="paint9_linear_474_7807" x1="335.19" y1="432.535" x2="427.88" y2="418.021" gradientUnits="userSpaceOnUse">
<stop stop-color="#F7A393"/>
<stop offset="0.43" stop-color="#F5A794"/>
<stop offset="0.51" stop-color="#F5A18E"/>
<stop offset="0.76" stop-color="#F59584"/>
<stop offset="1" stop-color="#F69181"/>
</linearGradient>
<linearGradient id="paint10_linear_474_7807" x1="489.285" y1="216.145" x2="557.604" y2="205.447" gradientUnits="userSpaceOnUse">
<stop stop-color="#F7A393"/>
<stop offset="0.43" stop-color="#F5A794"/>
<stop offset="0.51" stop-color="#F5A18E"/>
<stop offset="0.76" stop-color="#F59584"/>
<stop offset="1" stop-color="#F69181"/>
</linearGradient>
<linearGradient id="paint11_linear_474_7807" x1="530.615" y1="185.406" x2="556.288" y2="181.386" gradientUnits="userSpaceOnUse">
<stop stop-color="#F7A393"/>
<stop offset="0.43" stop-color="#F5A794"/>
<stop offset="0.51" stop-color="#F5A18E"/>
<stop offset="0.76" stop-color="#F59584"/>
<stop offset="1" stop-color="#F69181"/>
</linearGradient>
<linearGradient id="paint12_linear_474_7807" x1="506.892" y1="501.433" x2="546.139" y2="508.622" gradientUnits="userSpaceOnUse">
<stop stop-color="#F7A393"/>
<stop offset="0.43" stop-color="#F5A794"/>
<stop offset="0.51" stop-color="#F5A18E"/>
<stop offset="0.76" stop-color="#F59584"/>
<stop offset="1" stop-color="#F69181"/>
</linearGradient>
<linearGradient id="paint13_linear_474_7807" x1="430.532" y1="219.524" x2="486.509" y2="210.759" gradientUnits="userSpaceOnUse">
<stop stop-color="#F9AD99"/>
<stop offset="0.18" stop-color="#F79B8D"/>
<stop offset="0.46" stop-color="#F48781"/>
<stop offset="0.73" stop-color="#F37B79"/>
<stop offset="1" stop-color="#F37777"/>
</linearGradient>
<linearGradient id="paint14_linear_474_7807" x1="419.836" y1="174.855" x2="481.161" y2="165.252" gradientUnits="userSpaceOnUse">
<stop stop-color="#F7A393"/>
<stop offset="0.43" stop-color="#F5A794"/>
<stop offset="0.51" stop-color="#F5A18E"/>
<stop offset="0.76" stop-color="#F59584"/>
<stop offset="1" stop-color="#F69181"/>
</linearGradient>
<linearGradient id="paint15_linear_474_7807" x1="309.41" y1="309.397" x2="435.852" y2="289.597" gradientUnits="userSpaceOnUse">
<stop stop-color="#F7A393"/>
<stop offset="0.43" stop-color="#F5A794"/>
<stop offset="0.51" stop-color="#F5A18E"/>
<stop offset="0.76" stop-color="#F59584"/>
<stop offset="1" stop-color="#F69181"/>
</linearGradient>
<linearGradient id="paint16_linear_474_7807" x1="424.067" y1="201.887" x2="419.969" y2="175.661" gradientUnits="userSpaceOnUse">
<stop stop-color="#F7A393"/>
<stop offset="0.43" stop-color="#F5A794"/>
<stop offset="0.51" stop-color="#F5A18E"/>
<stop offset="0.76" stop-color="#F59584"/>
<stop offset="1" stop-color="#F69181"/>
</linearGradient>
<linearGradient id="paint17_linear_474_7807" x1="422.992" y1="195.064" x2="420.171" y2="177.011" gradientUnits="userSpaceOnUse">
<stop stop-color="#F7A393"/>
<stop offset="0.43" stop-color="#F5A794"/>
<stop offset="0.51" stop-color="#F5A18E"/>
<stop offset="0.76" stop-color="#F59584"/>
<stop offset="1" stop-color="#F69181"/>
</linearGradient>
<linearGradient id="paint18_linear_474_7807" x1="424.848" y1="187.98" x2="423.623" y2="180.137" gradientUnits="userSpaceOnUse">
<stop stop-color="#F7A393"/>
<stop offset="0.43" stop-color="#F5A794"/>
<stop offset="0.51" stop-color="#F5A18E"/>
<stop offset="0.76" stop-color="#F59584"/>
<stop offset="1" stop-color="#F69181"/>
</linearGradient>
<linearGradient id="paint19_linear_474_7807" x1="416.977" y1="189.728" x2="428.101" y2="187.986" gradientUnits="userSpaceOnUse">
<stop stop-color="#F7A393"/>
<stop offset="0.43" stop-color="#F5A794"/>
<stop offset="0.51" stop-color="#F5A18E"/>
<stop offset="0.76" stop-color="#F59584"/>
<stop offset="1" stop-color="#F69181"/>
</linearGradient>
<clipPath id="clip0_474_7807">
<rect width="90.9403" height="90.8878" fill="white" transform="matrix(0.994712 -0.1027 0.102821 0.9947 502.195 84.3394)"/>
</clipPath>
</defs>
</svg>
