<svg width="830" height="31" viewBox="0 0 830 31" fill="none" xmlns="http://www.w3.org/2000/svg">
<path d="M16.363 18.6087C14.6289 18.6087 13.2231 17.203 13.2231 15.4688C13.2231 13.7347 14.6289 12.329 16.363 12.329C18.0972 12.329 19.5029 13.7347 19.5029 15.4688C19.5029 17.203 18.0972 18.6087 16.363 18.6087Z" fill="#E11D48"/>
<path d="M27.6662 18.6087C25.9321 18.6087 24.5264 17.203 24.5264 15.4688C24.5264 13.7347 25.9321 12.329 27.6662 12.329C29.4004 12.329 30.8061 13.7347 30.8061 15.4688C30.8061 17.203 29.4004 18.6087 27.6662 18.6087Z" fill="#FBBF24"/>
<g clip-path="url(#clip0_541_12081)">
<path d="M38.9699 18.6087C37.2358 18.6087 35.8301 17.203 35.8301 15.4688C35.8301 13.7347 37.2358 12.329 38.9699 12.329C40.7041 12.329 42.1098 13.7347 42.1098 15.4688C42.1098 17.203 40.7041 18.6087 38.9699 18.6087Z" fill="#22C55E"/>
</g>
<path d="M785.572 15.4484L789.302 19.1786C789.374 19.2481 789.431 19.3312 789.471 19.4232C789.51 19.5151 789.531 19.614 789.532 19.714C789.533 19.8141 789.514 19.9133 789.476 20.0059C789.438 20.0985 789.382 20.1827 789.311 20.2534C789.24 20.3242 789.156 20.3801 789.064 20.418C788.971 20.4559 788.872 20.475 788.772 20.4741C788.672 20.4733 788.573 20.4525 788.481 20.413C788.389 20.3735 788.306 20.3161 788.236 20.2441L783.973 15.9812C783.832 15.8399 783.753 15.6482 783.753 15.4484C783.753 15.2486 783.832 15.0569 783.973 14.9156L788.236 10.6527C788.378 10.5154 788.569 10.4395 788.766 10.4412C788.964 10.4429 789.153 10.5222 789.293 10.6619C789.432 10.8016 789.512 10.9906 789.513 11.1882C789.515 11.3858 789.439 11.5761 789.302 11.7182L785.572 15.4484Z" fill="#94A3B8"/>
<path d="M809.352 15.5019L805.622 11.7717C805.485 11.6296 805.409 11.4392 805.41 11.2416C805.412 11.0441 805.491 10.8551 805.631 10.7153C805.771 10.5756 805.96 10.4964 806.157 10.4947C806.355 10.4929 806.545 10.5689 806.687 10.7062L810.95 14.9691C811.092 15.1104 811.171 15.302 811.171 15.5019C811.171 15.7017 811.092 15.8933 810.95 16.0346L806.687 20.2976C806.545 20.4348 806.355 20.5108 806.157 20.5091C805.96 20.5074 805.771 20.4281 805.631 20.2884C805.491 20.1487 805.412 19.9597 805.41 19.7621C805.409 19.5645 805.485 19.3741 805.622 19.232L809.352 15.5019V15.5019Z" fill="#475569"/>
<rect x="229.257" y="6.02881" width="372.943" height="19.0285" rx="3.76784" fill="#F1F5F9"/>
<path d="M393.226 15.8419V18.1953C393.146 18.3131 393.02 18.4455 392.846 18.5927C392.673 18.737 392.433 18.8635 392.127 18.9724C391.823 19.0784 391.432 19.1314 390.952 19.1314C390.561 19.1314 390.2 19.0637 389.87 18.9283C389.544 18.7899 389.259 18.5898 389.018 18.3278C388.78 18.0629 388.594 17.742 388.462 17.3652C388.332 16.9855 388.267 16.5557 388.267 16.0759V15.577C388.267 15.0972 388.323 14.6689 388.435 14.2921C388.55 13.9153 388.718 13.5959 388.939 13.3339C389.159 13.069 389.43 12.8688 389.751 12.7334C390.072 12.5951 390.44 12.5259 390.855 12.5259C391.346 12.5259 391.757 12.6113 392.087 12.782C392.419 12.9498 392.678 13.1823 392.864 13.4796C393.052 13.777 393.173 14.1155 393.226 14.4952H392.374C392.336 14.2626 392.259 14.0507 392.144 13.8594C392.032 13.668 391.872 13.515 391.663 13.4002C391.454 13.2824 391.185 13.2236 390.855 13.2236C390.558 13.2236 390.3 13.278 390.082 13.3869C389.864 13.4958 389.685 13.6518 389.544 13.855C389.402 14.0581 389.296 14.3039 389.226 14.5923C389.158 14.8808 389.124 15.2061 389.124 15.5681V16.0759C389.124 16.4468 389.167 16.778 389.252 17.0694C389.34 17.3608 389.465 17.6095 389.627 17.8156C389.789 18.0187 389.982 18.1733 390.206 18.2792C390.432 18.3852 390.683 18.4382 390.956 18.4382C391.26 18.4382 391.505 18.4132 391.694 18.3631C391.882 18.3101 392.029 18.2483 392.135 18.1777C392.241 18.1041 392.322 18.0349 392.378 17.9701V16.5307H390.89V15.8419H393.226ZM397.332 18.2262V15.7668C397.332 15.5784 397.294 15.4151 397.218 15.2767C397.144 15.1354 397.032 15.0265 396.882 14.95C396.732 14.8735 396.546 14.8352 396.326 14.8352C396.12 14.8352 395.939 14.8705 395.783 14.9412C395.629 15.0118 395.509 15.1045 395.42 15.2193C395.335 15.3341 395.292 15.4578 395.292 15.5902H394.476C394.476 15.4195 394.52 15.2502 394.608 15.0824C394.696 14.9147 394.823 14.7631 394.988 14.6277C395.156 14.4893 395.356 14.3804 395.588 14.3009C395.824 14.2185 396.086 14.1773 396.374 14.1773C396.722 14.1773 397.028 14.2362 397.293 14.3539C397.56 14.4716 397.769 14.6497 397.92 14.8882C398.073 15.1237 398.149 15.4195 398.149 15.7757V18.001C398.149 18.16 398.162 18.3293 398.189 18.5088C398.218 18.6884 398.261 18.8429 398.317 18.9724V19.0431H397.465C397.424 18.9489 397.391 18.8238 397.368 18.6678C397.344 18.5088 397.332 18.3616 397.332 18.2262ZM397.474 16.1466L397.482 16.7206H396.657C396.424 16.7206 396.217 16.7397 396.034 16.778C395.852 16.8133 395.699 16.8678 395.575 16.9413C395.451 17.0149 395.357 17.1077 395.292 17.2195C395.228 17.3284 395.195 17.4565 395.195 17.6037C395.195 17.7538 395.229 17.8907 395.297 18.0143C395.365 18.1379 395.466 18.2365 395.601 18.3101C395.74 18.3808 395.909 18.4161 396.109 18.4161C396.359 18.4161 396.58 18.3631 396.772 18.2571C396.963 18.1512 397.114 18.0217 397.226 17.8686C397.341 17.7155 397.403 17.5669 397.412 17.4226L397.761 17.8156C397.74 17.9392 397.684 18.0761 397.593 18.2262C397.502 18.3764 397.379 18.5206 397.226 18.6589C397.076 18.7944 396.897 18.9077 396.688 18.9989C396.482 19.0872 396.249 19.1314 395.99 19.1314C395.666 19.1314 395.382 19.0681 395.138 18.9415C394.896 18.815 394.708 18.6457 394.573 18.4338C394.44 18.2189 394.374 17.979 394.374 17.714C394.374 17.458 394.424 17.2328 394.524 17.0385C394.624 16.8413 394.768 16.6779 394.957 16.5484C395.145 16.4159 395.372 16.3158 395.637 16.2481C395.902 16.1804 396.198 16.1466 396.524 16.1466H397.474ZM400.322 12.261V19.0431H399.5V12.261H400.322ZM403.615 19.1314C403.283 19.1314 402.981 19.0755 402.71 18.9636C402.442 18.8488 402.211 18.6884 402.017 18.4823C401.826 18.2763 401.679 18.032 401.576 17.7494C401.473 17.4668 401.421 17.1577 401.421 16.8221V16.6367C401.421 16.2481 401.478 15.9022 401.593 15.5991C401.708 15.2929 401.864 15.0339 402.061 14.8219C402.258 14.61 402.482 14.4496 402.732 14.3407C402.983 14.2317 403.242 14.1773 403.51 14.1773C403.851 14.1773 404.145 14.2362 404.393 14.3539C404.643 14.4716 404.847 14.6365 405.006 14.8484C405.165 15.0574 405.283 15.3047 405.36 15.5902C405.436 15.8728 405.474 16.1819 405.474 16.5175V16.8839H401.907V16.2172H404.658V16.1554C404.646 15.9435 404.602 15.7374 404.525 15.5372C404.451 15.3371 404.334 15.1722 404.172 15.0427C404.01 14.9132 403.789 14.8484 403.51 14.8484C403.324 14.8484 403.153 14.8882 402.997 14.9676C402.841 15.0442 402.707 15.159 402.596 15.3121C402.484 15.4651 402.397 15.652 402.335 15.8728C402.273 16.0936 402.242 16.3482 402.242 16.6367V16.8221C402.242 17.0488 402.273 17.2622 402.335 17.4624C402.4 17.6596 402.492 17.8333 402.613 17.9834C402.737 18.1335 402.885 18.2513 403.059 18.3366C403.236 18.422 403.436 18.4647 403.66 18.4647C403.948 18.4647 404.192 18.4058 404.393 18.2881C404.593 18.1703 404.768 18.0128 404.918 17.8156L405.413 18.2086C405.31 18.3646 405.179 18.5132 405.02 18.6545C404.861 18.7958 404.665 18.9106 404.432 18.9989C404.203 19.0872 403.93 19.1314 403.615 19.1314ZM407.245 15.0162V19.0431H406.428V14.2656H407.223L407.245 15.0162ZM408.737 14.2391L408.733 14.9986C408.665 14.9838 408.601 14.975 408.539 14.9721C408.48 14.9662 408.412 14.9632 408.336 14.9632C408.147 14.9632 407.981 14.9927 407.837 15.0515C407.692 15.1104 407.57 15.1928 407.47 15.2988C407.37 15.4048 407.291 15.5314 407.232 15.6785C407.176 15.8228 407.139 15.9817 407.121 16.1554L406.892 16.2879C406.892 15.9994 406.92 15.7286 406.976 15.4754C407.035 15.2223 407.124 14.9986 407.245 14.8043C407.366 14.6071 407.519 14.454 407.704 14.3451C407.893 14.2332 408.116 14.1773 408.375 14.1773C408.434 14.1773 408.502 14.1846 408.578 14.1994C408.655 14.2111 408.708 14.2244 408.737 14.2391ZM410.38 14.2656V19.0431H409.559V14.2656H410.38ZM409.497 12.9984C409.497 12.8659 409.537 12.754 409.616 12.6628C409.698 12.5715 409.819 12.5259 409.978 12.5259C410.134 12.5259 410.253 12.5715 410.336 12.6628C410.421 12.754 410.464 12.8659 410.464 12.9984C410.464 13.1249 410.421 13.2339 410.336 13.3251C410.253 13.4134 410.134 13.4576 409.978 13.4576C409.819 13.4576 409.698 13.4134 409.616 13.3251C409.537 13.2339 409.497 13.1249 409.497 12.9984ZM416.429 16.5219H414.711V15.8287H416.429C416.762 15.8287 417.031 15.7757 417.237 15.6697C417.443 15.5637 417.593 15.4165 417.687 15.2282C417.785 15.0398 417.833 14.8249 417.833 14.5835C417.833 14.3627 417.785 14.1552 417.687 13.9609C417.593 13.7666 417.443 13.6106 417.237 13.4929C417.031 13.3722 416.762 13.3119 416.429 13.3119H414.91V19.0431H414.058V12.6142H416.429C416.915 12.6142 417.325 12.6981 417.661 12.8659C417.997 13.0337 418.251 13.2662 418.425 13.5635C418.599 13.8579 418.685 14.1949 418.685 14.5747C418.685 14.9868 418.599 15.3385 418.425 15.63C418.251 15.9214 417.997 16.1436 417.661 16.2967C417.325 16.4468 416.915 16.5219 416.429 16.5219ZM420.456 15.0162V19.0431H419.639V14.2656H420.434L420.456 15.0162ZM421.948 14.2391L421.944 14.9986C421.876 14.9838 421.811 14.975 421.75 14.9721C421.691 14.9662 421.623 14.9632 421.547 14.9632C421.358 14.9632 421.192 14.9927 421.048 15.0515C420.903 15.1104 420.781 15.1928 420.681 15.2988C420.581 15.4048 420.502 15.5314 420.443 15.6785C420.387 15.8228 420.35 15.9817 420.332 16.1554L420.103 16.2879C420.103 15.9994 420.131 15.7286 420.187 15.4754C420.245 15.2223 420.335 14.9986 420.456 14.8043C420.577 14.6071 420.73 14.454 420.915 14.3451C421.104 14.2332 421.327 14.1773 421.586 14.1773C421.645 14.1773 421.713 14.1846 421.789 14.1994C421.866 14.2111 421.919 14.2244 421.948 14.2391ZM422.399 16.7073V16.6058C422.399 16.2614 422.449 15.942 422.549 15.6476C422.649 15.3503 422.793 15.0928 422.982 14.8749C423.17 14.6542 423.398 14.4834 423.666 14.3627C423.934 14.2391 424.234 14.1773 424.567 14.1773C424.902 14.1773 425.204 14.2391 425.472 14.3627C425.743 14.4834 425.972 14.6542 426.161 14.8749C426.352 15.0928 426.498 15.3503 426.598 15.6476C426.698 15.942 426.748 16.2614 426.748 16.6058V16.7073C426.748 17.0517 426.698 17.3711 426.598 17.6655C426.498 17.9598 426.352 18.2174 426.161 18.4382C425.972 18.656 425.744 18.8267 425.476 18.9504C425.211 19.0711 424.911 19.1314 424.576 19.1314C424.24 19.1314 423.938 19.0711 423.67 18.9504C423.403 18.8267 423.173 18.656 422.982 18.4382C422.793 18.2174 422.649 17.9598 422.549 17.6655C422.449 17.3711 422.399 17.0517 422.399 16.7073ZM423.216 16.6058V16.7073C423.216 16.9458 423.244 17.1709 423.299 17.3829C423.355 17.5919 423.439 17.7773 423.551 17.9392C423.666 18.1011 423.809 18.2292 423.979 18.3234C424.15 18.4146 424.349 18.4603 424.576 18.4603C424.799 18.4603 424.995 18.4146 425.163 18.3234C425.334 18.2292 425.475 18.1011 425.587 17.9392C425.699 17.7773 425.782 17.5919 425.838 17.3829C425.897 17.1709 425.927 16.9458 425.927 16.7073V16.6058C425.927 16.3703 425.897 16.148 425.838 15.939C425.782 15.7271 425.697 15.5402 425.582 15.3783C425.47 15.2134 425.329 15.0839 425.158 14.9897C424.991 14.8955 424.793 14.8484 424.567 14.8484C424.343 14.8484 424.146 14.8955 423.975 14.9897C423.807 15.0839 423.666 15.2134 423.551 15.3783C423.439 15.5402 423.355 15.7271 423.299 15.939C423.244 16.148 423.216 16.3703 423.216 16.6058ZM429.472 15.9744V16.6455H427.318V15.9744H429.472ZM431.309 12.6142V19.0431H430.457V12.6142H431.309ZM434.599 19.0431H433.256L433.265 18.3499H434.599C435.058 18.3499 435.44 18.2542 435.747 18.0629C436.053 17.8686 436.282 17.5978 436.435 17.2504C436.591 16.9001 436.669 16.491 436.669 16.0229V15.63C436.669 15.262 436.625 14.9353 436.537 14.6497C436.449 14.3613 436.319 14.1184 436.148 13.9212C435.978 13.721 435.769 13.5694 435.521 13.4664C435.277 13.3634 434.996 13.3119 434.678 13.3119H433.23V12.6142H434.678C435.099 12.6142 435.483 12.6849 435.83 12.8262C436.178 12.9645 436.477 13.1662 436.727 13.4311C436.98 13.6931 437.174 14.011 437.31 14.3848C437.445 14.7557 437.513 15.1737 437.513 15.6388V16.0229C437.513 16.488 437.445 16.9075 437.31 17.2813C437.174 17.6522 436.978 17.9687 436.722 18.2307C436.469 18.4926 436.163 18.6943 435.804 18.8356C435.448 18.9739 435.046 19.0431 434.599 19.0431ZM433.711 12.6142V19.0431H432.859V12.6142H433.711ZM440.652 19.1314C440.319 19.1314 440.018 19.0755 439.747 18.9636C439.479 18.8488 439.248 18.6884 439.054 18.4823C438.862 18.2763 438.715 18.032 438.612 17.7494C438.509 17.4668 438.458 17.1577 438.458 16.8221V16.6367C438.458 16.2481 438.515 15.9022 438.63 15.5991C438.745 15.2929 438.901 15.0339 439.098 14.8219C439.295 14.61 439.519 14.4496 439.769 14.3407C440.019 14.2317 440.278 14.1773 440.546 14.1773C440.888 14.1773 441.182 14.2362 441.429 14.3539C441.679 14.4716 441.884 14.6365 442.043 14.8484C442.202 15.0574 442.32 15.3047 442.396 15.5902C442.473 15.8728 442.511 16.1819 442.511 16.5175V16.8839H438.943V16.2172H441.694V16.1554C441.682 15.9435 441.638 15.7374 441.562 15.5372C441.488 15.3371 441.37 15.1722 441.208 15.0427C441.047 14.9132 440.826 14.8484 440.546 14.8484C440.361 14.8484 440.19 14.8882 440.034 14.9676C439.878 15.0442 439.744 15.159 439.632 15.3121C439.52 15.4651 439.433 15.652 439.372 15.8728C439.31 16.0936 439.279 16.3482 439.279 16.6367V16.8221C439.279 17.0488 439.31 17.2622 439.372 17.4624C439.436 17.6596 439.529 17.8333 439.65 17.9834C439.773 18.1335 439.922 18.2513 440.096 18.3366C440.272 18.422 440.473 18.4647 440.696 18.4647C440.985 18.4647 441.229 18.4058 441.429 18.2881C441.629 18.1703 441.805 18.0128 441.955 17.8156L442.449 18.2086C442.346 18.3646 442.215 18.5132 442.056 18.6545C441.897 18.7958 441.702 18.9106 441.469 18.9989C441.239 19.0872 440.967 19.1314 440.652 19.1314Z" fill="#94A3B8"/>
<defs>
<clipPath id="clip0_541_12081">
<rect width="7.53567" height="7.53567" fill="white" transform="translate(35.2021 11.6805)"/>
</clipPath>
</defs>
</svg>
